<?xml version="1.0" encoding="UTF-8"?>
<svg width="70px" height="70px" viewBox="0 0 70 70" version="1.1" xmlns="http://www.w3.org/2000/svg" xmlns:xlink="http://www.w3.org/1999/xlink">
    <!-- Generator: Sketch 46.2 (44496) - http://www.bohemiancoding.com/sketch -->
    <title>500px</title>
    <desc>Created with Sketch.</desc>
    <defs></defs>
    <g id="Icons" stroke="none" stroke-width="1" fill="none" fill-rule="evenodd">
        <g transform="translate(-949.000000, -66.000000)" id="Icon-Set">
            <g transform="translate(69.000000, 66.000000)">
                <g id="500px" transform="translate(880.000000, 0.000000)">
                    <circle id="Oval-1-Copy-7" fill="#373737" cx="35" cy="35" r="35"></circle>
                    <path d="M47.7563015,47.0913 L47.7563716,47.0913 C47.5094116,46.84504 47.2996915,46.69965 47.1151716,46.64673 C46.9280616,46.59297 46.7609715,46.63301 46.6318915,46.7624401 L46.5104416,46.88368 C45.2384716,48.15572 43.7573416,49.1544101 42.1081415,49.85196 C40.4014716,50.5738 38.5879816,50.93983 36.7180715,50.93983 C34.8480916,50.93983 33.0346715,50.5738 31.3280715,49.85196 C29.6790115,49.1544801 28.1979515,48.15586 26.9259815,46.88375 C25.6007415,45.5585801 24.6021215,44.07759 23.9579115,42.48187 C23.3297315,40.92598 23.1245615,39.7557201 23.0571515,39.37121 C23.0508515,39.3351601 23.0458815,39.30667 23.0419615,39.28609 C22.9555115,38.83326 22.5387315,38.80162 21.9397415,38.89325 C21.6906815,38.93133 20.9326515,39.04732 21.0048215,39.59269 L21.0065715,39.60515 C21.2072615,40.8676 21.5617415,42.10548 22.0603515,43.28428 C22.8617115,45.1789 24.0085915,46.8800401 25.4692115,48.34052 C26.9298315,49.80121 28.6310416,50.94809 30.5255916,51.74931 C32.4869916,52.57923 34.5704715,53 36.7180715,53 C38.8645516,53 40.9481015,52.5790201 42.9106215,51.74868 C44.8045415,50.94774 46.5057515,49.80065 47.9670716,48.33926 C47.9704315,48.3359 48.0502316,48.25673 48.0939116,48.20913 C48.2547016,48.03406 48.3946315,47.7277401 47.7563015,47.0913 L47.7563015,47.0913 L47.7563015,47.0913 Z M36.6982616,21.74997 C34.6461416,21.74997 32.4631916,22.16423 30.8593515,22.858 C30.6879215,22.92513 30.5854416,23.06282 30.5629015,23.2563 C30.5418315,23.43879 30.5911115,23.67959 30.7137515,23.99291 C30.8132215,24.24708 31.0774015,24.92223 31.5888915,24.72714 C33.2303215,24.10099 35.0448615,23.75617 36.6982616,23.75617 C38.5718115,23.75617 40.3888016,24.1229 42.0989015,24.84614 C43.4576716,25.42098 44.7397916,26.25132 46.1337015,27.45917 C46.2353416,27.5473 46.3432115,27.59196 46.4543015,27.59196 C46.7260416,27.59196 46.9867215,27.32498 47.2096716,27.0748 C47.5818616,26.65725 47.8375016,26.31019 47.4707716,25.96285 C46.1396515,24.70187 44.6809916,23.75988 42.8803116,22.99842 C40.9219916,22.17004 38.8420115,21.74997 36.6982616,21.74997 L36.6982616,21.74997 L36.6982616,21.74997 Z M33.9006416,39.10122 C33.9030915,39.33313 34.1153315,39.5364801 34.2421015,39.658 L34.2819316,39.69643 C34.4993515,39.91028 34.7064815,40.0187101 34.8974416,40.0187101 C35.0555715,40.0187101 35.1530115,39.94395 35.1875215,39.91182 C35.2832815,39.82285 36.3666716,38.72511 36.4700615,38.62039 L37.6782615,39.82467 C37.7901215,39.9506701 37.9117115,40.01381 38.0533916,40.01773 C38.2463115,40.01773 38.4565916,39.903 38.6782816,39.67676 C39.1996415,39.14441 38.9387515,38.85734 38.8126115,38.7186 L37.5884516,37.49402 L38.8651116,36.20833 C39.1450415,35.90537 38.8978715,35.58344 38.6512615,35.33683 C38.2932116,34.97871 37.9477615,34.88631 37.7262815,35.09036 L36.4569016,36.3619801 L35.1731715,35.0779001 C35.1051315,35.0127301 35.0193116,34.9782901 34.9250215,34.9782901 C34.7539415,34.9782901 34.5515716,35.09393 34.3233716,35.32213 C33.9285716,35.71686 33.8439415,35.98972 34.0493915,36.20742 L35.3334715,37.48758 L34.0569516,38.76634 C33.9519515,38.8712 33.8993816,38.98383 33.9006416,39.10122 L33.9006416,39.10122 L33.9006416,39.10122 Z M25.7602016,40.9971 C25.7679015,41.0183101 25.9492015,41.51972 26.0542715,41.76822 C26.6310015,43.13189 27.4569315,44.35682 28.5091015,45.40906 C29.5605716,46.46039 30.7856416,47.2862501 32.1504315,47.86347 C33.5632416,48.46113 35.0636916,48.76416 36.6101316,48.76416 C38.1562915,48.76416 39.6567415,48.46106 41.0698315,47.86333 C42.4340615,47.2863201 43.6592016,46.46039 44.7110916,45.4085 C45.7629116,44.35682 46.5887715,43.13168 47.1659216,41.76731 C47.7635816,40.35429 48.0666115,38.85377 48.0666115,37.30754 C48.0666115,35.76124 47.7635816,34.26072 47.1659216,32.84784 C46.5889115,31.4835401 45.7629816,30.2584 44.7110916,29.20651 C43.6595515,28.1549 42.4344116,27.32897 41.0698315,26.75168 C39.6568816,26.15402 38.1564316,25.85099 36.6101316,25.85099 C35.0454915,25.85099 33.4821116,26.16242 32.0889015,26.75168 C30.9752715,27.22278 29.0903115,28.4356 27.9869716,29.57352 L27.9804615,29.58017 L27.9804615,20.15159 L43.8186615,20.15145 C44.3950416,20.14515 44.3950416,19.34029 44.3950416,19.07576 C44.3950416,18.81137 44.3950416,18.00672 43.8169116,18.00014 L26.6916215,18 C26.2254215,18 25.9368115,18.3878 25.9368115,18.74711 L25.9368115,32.01834 C25.9368115,32.44646 26.4701415,32.75565 26.9656715,32.86163 C27.9334215,33.06834 28.1570015,32.75901 28.3940215,32.43169 L28.4254516,32.38829 C28.7872815,31.85076 29.9179915,30.71277 29.9293316,30.70143 C31.6938915,28.93687 34.0533116,27.96513 36.5728216,27.96513 C39.0802916,27.96513 41.4329915,28.93687 43.1975516,30.70143 C44.9680615,32.47208 45.9431615,34.81813 45.9431615,37.30754 C45.9431615,39.80598 44.9731015,42.1519601 43.2115515,43.91351 C41.4725415,45.6525201 39.0431215,46.64988 36.5463616,46.64988 C34.8552316,46.64988 33.2228316,46.1992901 31.8245115,45.3465501 L31.8304616,37.2770901 C31.8304616,36.20112 32.2974315,35.03149 33.0794716,34.14823 C33.9736515,33.13848 35.2059315,32.5824 36.5494415,32.5824 C37.8505316,32.5824 39.0656615,33.07632 39.9711115,33.97323 C40.8700516,34.86377 41.3650915,36.0502 41.3650915,37.31405 C41.3650915,40.01066 39.2446515,42.12298 36.5377516,42.12298 C36.0159015,42.12298 35.0672616,41.8924 35.0282715,41.88288 C34.4817115,41.72013 34.2491716,42.47893 34.1726615,42.72904 C33.8784516,43.69091 34.3205716,43.88159 34.4122015,43.91008 C35.2832815,44.18042 35.8544815,44.23166 36.6037616,44.23166 C40.4251316,44.23166 43.5339715,41.12121 43.5339715,37.29809 C43.5339715,33.50563 40.4270215,30.4201701 36.6080316,30.4201701 C34.7378416,30.4201701 32.9809115,31.13508 31.6609915,32.43316 C30.4040016,33.66943 29.6830015,35.31779 29.6830015,36.95523 L29.6823015,36.9959 C29.6762115,37.20009 29.6722216,42.03758 29.6710315,43.62511 L29.6638915,43.6172 C28.9456216,42.82186 28.2356815,41.60442 27.7650015,40.3605901 C27.5804815,39.87311 27.1637015,39.95942 26.5949515,40.13456 C26.3465915,40.21107 25.5907315,40.44389 25.7578915,40.99031 L25.7602016,40.9971 L25.7602016,40.9971 L25.7602016,40.9971 Z" id="Shape" fill="#FFFFFF"></path>
                </g>
            </g>
        </g>
    </g>
</svg>