<?xml version="1.0" encoding="UTF-8"?>
<svg width="70px" height="70px" viewBox="0 0 70 70" version="1.1" xmlns="http://www.w3.org/2000/svg" xmlns:xlink="http://www.w3.org/1999/xlink">
    <!-- Generator: Sketch 46.2 (44496) - http://www.bohemiancoding.com/sketch -->
    <title>Addvocate</title>
    <desc>Created with Sketch.</desc>
    <defs></defs>
    <g id="Icons" stroke="none" stroke-width="1" fill="none" fill-rule="evenodd">
        <g transform="translate(-729.000000, -176.000000)" id="Icon-Set">
            <g transform="translate(69.000000, 66.000000)">
                <g id="Addvocate" transform="translate(660.000000, 110.000000)">
                    <circle id="Oval-1-Copy-15" fill="#EF4B3E" cx="35" cy="35" r="35"></circle>
                    <path d="M16.0075812,38.3845563 C16.0068034,39.5138891 16.0192479,40.6436113 16.0001923,41.7725548 C15.9947479,42.1182451 16.1040256,42.2073927 16.4404145,42.2058356 C19.3706923,42.192989 22.3009701,42.2066141 25.2312479,42.1887068 C25.6259701,42.186371 25.7333034,42.2992654 25.7317479,42.6893348 C25.720859,45.8048298 25.7294145,48.9203247 25.7321368,52.0362089 L30.0507479,52.0362089 C30.043359,51.9069644 30.029359,51.7777198 30.029359,51.6484752 C30.0281923,48.6633927 30.0351923,45.6783102 30.0200256,42.6928385 C30.0180812,42.3078298 30.106359,42.1859817 30.5076923,42.1887068 C33.4115256,42.2070034 36.3157479,42.198439 39.2199701,42.198439 L39.7228034,42.198439 C39.731359,42.0372726 39.7441923,41.9006315 39.7445812,41.7636011 C39.7461368,40.6085751 39.7298034,39.4531597 39.7546923,38.298523 C39.7624701,37.9259716 39.636859,37.8434419 39.2954145,37.8449991 C36.4044145,37.8558992 33.5130256,37.8512278 30.6216368,37.8508385 C30.0289701,37.8508385 30.0285812,37.8500599 30.0285812,37.2669021 C30.0285812,34.0610917 30.0581368,30.854892 30.0204145,27.6494709 C29.9784145,24.072277 32.9223034,21.2880686 36.1512479,21.0716228 C39.4463034,20.8508949 42.4551368,23.1808008 43.0614145,26.3114781 C43.1321923,26.6781901 43.1780812,27.0561916 43.1784701,27.4291322 C43.1850812,35.5022466 43.1835256,43.5757502 43.182359,51.6488645 C43.182359,51.7777198 43.168359,51.9069644 43.161359,52.0362089 L47.4799701,52.0362089 L47.4799701,27.8098587 C47.3691368,27.1885505 47.2870812,26.5606243 47.1435812,25.9471018 C46.2958034,22.3247502 44.3750812,19.5214665 40.9548034,17.9475635 C35.8401368,15.5946894 29.8131368,17.768879 27.2060256,22.8604144 C26.2400256,24.7473073 25.7480812,26.7443696 25.7535256,28.8749586 C25.7613034,31.6914781 25.7360256,34.5083869 25.724359,37.3252958 C25.7220256,37.848892 25.7212479,37.8504492 25.1779701,37.8508385 C22.2990256,37.8512278 19.4200812,37.8508385 16.5415256,37.8512278 C16.0095256,37.8512278 16.0079701,37.8531742 16.0075812,38.3845563" id="Fill-24" fill="#FFFFFF"></path>
                </g>
            </g>
        </g>
    </g>
</svg>