<?xml version="1.0" encoding="UTF-8"?>
<svg width="70px" height="70px" viewBox="0 0 70 70" version="1.1" xmlns="http://www.w3.org/2000/svg" xmlns:xlink="http://www.w3.org/1999/xlink">
    <!-- Generator: Sketch 46.2 (44496) - http://www.bohemiancoding.com/sketch -->
    <title>Aim</title>
    <desc>Created with Sketch.</desc>
    <defs></defs>
    <g id="Icons" stroke="none" stroke-width="1" fill="none" fill-rule="evenodd">
        <g transform="translate(-839.000000, -176.000000)" id="Icon-Set">
            <g transform="translate(69.000000, 66.000000)">
                <g id="Aim" transform="translate(770.000000, 110.000000)">
                    <circle id="Oval-1-Copy-16" fill="#FFD900" cx="35" cy="35" r="35"></circle>
                    <g id="Group-3" transform="translate(19.000000, 17.000000)" fill="#FFFFFF">
                        <g id="Group-9">
                            <path d="M19.0769444,0 C16.3119444,0 14,2.23063676 14,4.98331259 C14,7.73520984 16.3119444,9.96623589 19.0769444,9.96623589 C21.84,9.96623589 24.1881111,7.73520984 24.1881111,4.98331259 C24.1881111,2.23063676 21.84,0 19.0769444,0" id="Fill-26"></path>
                            <path d="M28.4098889,17.6969711 C28.4098889,17.6969711 27.2517778,15.5508104 25.7872222,13.3295166 C23.3986667,15.4667236 20.9241667,15.1089653 19.8726111,14.8812301 C18.4862222,14.5818654 18.1097778,13.9955933 18.2245,13.4801722 C17.4163889,13.2267438 14.5759444,11.5555181 12.8586111,11 C9.555,12.999398 8.232,17.9963357 8.39066667,23.0781389 C6.17477778,27.2653517 4.5255,28.6765311 0,29.7116556 C0.851277778,31.6985962 1.19544444,32.4429204 2.45622222,35.0764732 C8.11533333,33.5523994 11.7331667,30.2523806 13.9560556,27.4261288 C17.7422778,28.3841737 20.5115556,30.777534 22.7978333,35.1200738 C25.1716111,33.1510405 25.4345,32.9493878 27.4543889,31.33422 C25.879,27.5841809 22.0130556,24.3406093 18.3310556,22.5743965 C18.3656667,21.6872026 18.3925,21.4656961 18.4290556,20.769644 C23.8392778,22.1757627 28.4098889,17.6969711 28.4098889,17.6969711" id="Fill-28"></path>
                        </g>
                    </g>
                </g>
            </g>
        </g>
    </g>
</svg>