<?xml version="1.0" encoding="UTF-8"?>
<svg width="70px" height="70px" viewBox="0 0 70 70" version="1.1" xmlns="http://www.w3.org/2000/svg" xmlns:xlink="http://www.w3.org/1999/xlink">
    <!-- Generator: Sketch 46.2 (44496) - http://www.bohemiancoding.com/sketch -->
    <title>Airbnb</title>
    <desc>Created with Sketch.</desc>
    <defs></defs>
    <g id="Icons" stroke="none" stroke-width="1" fill="none" fill-rule="evenodd">
        <g transform="translate(-509.000000, -835.000000)" id="Icon-Set">
            <g transform="translate(69.000000, 66.000000)">
                <g id="Airbnb" transform="translate(440.000000, 769.000000)">
                    <circle id="Oval-1-Copy-58" fill="#FD5C63" cx="35" cy="35" r="35"></circle>
                    <path d="M51.025,42.85 C50.85,42.43 50.675,41.975 50.5,41.59 C50.22,40.96 49.94,40.365 49.695,39.805 L49.66,39.77 C47.245,34.52 44.6585,29.2 41.9285,23.95 L41.8235,23.74 C41.5435,23.215 41.2635,22.655 40.9835,22.095 C40.6335,21.465 40.2835,20.8 39.7235,20.17 C38.6035,18.77 36.9935,18 35.2785,18 C33.5285,18 31.9535,18.77 30.7985,20.1 C30.2735,20.73 29.8885,21.395 29.5385,22.025 C29.2585,22.585 28.9785,23.145 28.6985,23.67 L28.5935,23.88 C25.8985,29.13 23.2735,34.45 20.8585,39.7 L20.8235,39.77 C20.5785,40.33 20.2985,40.925 20.0185,41.555 C19.8435,41.94 19.6685,42.36 19.4935,42.815 C19.0385,44.11 18.8985,45.335 19.0735,46.595 C19.4585,49.22 21.2085,51.425 23.6235,52.405 C24.5335,52.79 25.4785,52.965 26.4585,52.965 C26.7385,52.965 27.0885,52.93 27.3685,52.895 C28.5235,52.755 29.7135,52.37 30.8685,51.705 C32.3035,50.9 33.6685,49.745 35.2085,48.065 C36.7485,49.745 38.1485,50.9 39.5485,51.705 C40.7035,52.37 41.8935,52.755 43.0485,52.895 C43.3285,52.93 43.6785,52.965 43.9585,52.965 C44.9385,52.965 45.9185,52.79 46.79,52.405 C49.24,51.425 50.955,49.185 51.34,46.595 C51.62,45.37 51.48,44.145 51.025,42.85 L51.025,42.85 Z M35.2435,44.67 C33.3535,42.29 32.1285,40.05 31.7085,38.16 C31.5335,37.355 31.4985,36.655 31.6035,36.025 C31.6735,35.465 31.8835,34.975 32.1635,34.555 C32.8285,33.61 33.9485,33.015 35.2435,33.015 C36.5385,33.015 37.6935,33.575 38.3235,34.555 C38.6035,34.975 38.8135,35.465 38.8835,36.025 C38.9885,36.655 38.9535,37.39 38.7785,38.16 C38.3585,40.015 37.1335,42.255 35.2435,44.67 L35.2435,44.67 Z M49.205,46.315 C48.96,48.135 47.735,49.71 46.0235,50.41 C45.1835,50.76 44.2735,50.865 43.3635,50.76 C42.4885,50.655 41.6135,50.375 40.7035,49.85 C39.4435,49.15 38.1835,48.065 36.7135,46.455 C39.0235,43.62 40.4235,41.03 40.9485,38.72 C41.1935,37.635 41.2285,36.655 41.1235,35.745 C40.9835,34.87 40.6685,34.065 40.1785,33.365 C39.0935,31.79 37.2735,30.88 35.2435,30.88 C33.2135,30.88 31.3935,31.825 30.3085,33.365 C29.8185,34.065 29.5035,34.87 29.3635,35.745 C29.2235,36.655 29.2585,37.67 29.5385,38.72 C30.0635,41.03 31.4985,43.655 33.7735,46.49 C32.3385,48.1 31.0435,49.185 29.7835,49.885 C28.8735,50.41 27.9985,50.69 27.1235,50.795 C26.1785,50.9 25.2685,50.76 24.4635,50.445 C22.7485,49.745 21.5235,48.17 21.2785,46.35 C21.1735,45.475 21.2435,44.6 21.5935,43.62 C21.6985,43.27 21.8735,42.92 22.0485,42.5 C22.2935,41.94 22.5735,41.345 22.8535,40.75 L22.8885,40.68 C25.3035,35.465 27.8935,30.145 30.5885,24.965 L30.6935,24.755 C30.9735,24.23 31.2535,23.67 31.5335,23.145 C31.8135,22.585 32.1285,22.06 32.5135,21.605 C33.2485,20.765 34.2285,20.31 35.3135,20.31 C36.3985,20.31 37.3785,20.765 38.1135,21.605 C38.4985,22.06 38.8135,22.585 39.0935,23.145 C39.3735,23.67 39.6535,24.23 39.9335,24.755 L40.0385,24.965 C42.6985,30.18 45.2885,35.5 47.7,40.715 L47.7,40.75 C47.98,41.31 48.225,41.94 48.505,42.5 C48.68,42.92 48.855,43.27 48.96,43.62 C49.24,44.53 49.345,45.405 49.205,46.315 L49.205,46.315 Z" id="Shape" fill="#FFFFFF"></path>
                </g>
            </g>
        </g>
    </g>
</svg>