<?xml version="1.0" encoding="UTF-8"?>
<svg width="70px" height="70px" viewBox="0 0 70 70" version="1.1" xmlns="http://www.w3.org/2000/svg" xmlns:xlink="http://www.w3.org/1999/xlink">
    <!-- Generator: Sketch 46.2 (44496) - http://www.bohemiancoding.com/sketch -->
    <title>Amazon</title>
    <desc>Created with Sketch.</desc>
    <defs></defs>
    <g id="Icons" stroke="none" stroke-width="1" fill="none" fill-rule="evenodd">
        <g transform="translate(-949.000000, -176.000000)" id="Icon-Set">
            <g transform="translate(69.000000, 66.000000)">
                <g id="Amazon" transform="translate(880.000000, 110.000000)">
                    <circle id="Oval-1-Copy-17" fill="#FF9900" cx="35" cy="35" r="35"></circle>
                    <g id="Group-4" transform="translate(18.000000, 18.000000)" fill="#FFFFFF">
                        <path d="M18.2811111,18.9487337 C17.7405556,20.0294052 16.8118889,20.7258466 15.807,20.9625355 C15.6545556,20.9625355 15.4231667,21.0392258 15.1902222,21.0392258 C13.4919444,21.0392258 12.4874444,19.722644 12.4874444,17.7894255 C12.4874444,15.3131462 13.9539444,14.1538379 15.807,13.6115557 C16.8118889,13.3799276 17.9715556,13.3012909 19.1312222,13.3012909 L19.1312222,14.2313068 C19.1312222,16.0091983 19.2074444,17.4009132 18.2811111,18.9487337 L18.2811111,18.9487337 Z M19.1312222,9.74706512 C18.1263333,9.82258755 16.9666667,9.89888857 15.807,10.0518799 C14.0305556,10.2866223 12.2560556,10.5945514 10.7891667,11.2917713 C7.93122222,12.4518582 6,14.9265803 6,18.5613893 C6,23.1269928 8.93416667,25.4467771 12.6441667,25.4467771 C13.8777222,25.4467771 14.8826111,25.2906715 15.807,25.0602113 C17.2781667,24.595398 18.5121111,23.7451867 19.9793889,22.1961983 C20.8295,23.357453 21.0624444,23.9001245 22.5273889,25.1369016 C22.9151111,25.2906715 23.3012778,25.2906715 23.6085,25.0602113 C24.5371667,24.2855224 26.1607778,22.8926397 27.0089444,22.1206758 C27.3947222,21.8108003 27.3185,21.345987 27.0851667,20.9625355 C26.2373889,19.8775818 25.3849444,18.9487337 25.3849444,16.8597988 L25.3849444,9.89888857 C25.3849444,6.95935311 25.6182778,4.25144573 23.4556667,2.24309407 C21.6792222,0.619751085 18.8978889,0 16.7356667,0 L15.807,0 C11.8702778,0.228124457 7.70022222,1.93205065 6.77194444,6.80558321 C6.61716667,7.4253343 7.0815,7.6557945 7.39066667,7.7324848 L11.7155,8.27359913 C12.1798333,8.19729812 12.4108333,7.80878582 12.4874444,7.4253343 C12.8732222,5.72257598 14.2635,4.87158611 15.807,4.71664834 L16.1188889,4.71664834 C17.0452222,4.71664834 18.0501111,5.10360347 18.5887222,5.87751375 C19.2074444,6.80558321 19.1312222,8.0443068 19.1312222,9.12731404 L19.1312222,9.74706512 Z" id="Fill-172"></path>
                        <path d="M0.840029435,26 C0.626918324,26 0.409918324,26.0794153 0.251251657,26.2285137 C0.0925849906,26.3783907 -0.00191500941,26.5960043 2.94350307e-05,26.816343 C-0.00191500941,27.1032504 0.152862768,27.3656324 0.367918324,27.5369204 C4.8031961,31.3928466 9.66430721,34.9766585 16.2019183,34.9797728 C16.3283072,34.9797728 16.4589739,34.9766585 16.5876961,34.9735441 C20.7476405,34.8801143 25.450085,33.4739957 29.0998072,31.1767902 L29.1219739,31.1623864 C29.5999183,30.8770362 30.0782517,30.551589 30.528585,30.1907164 C30.8078072,29.9824457 31.001085,29.6573878 31.001085,29.3190941 C30.9886405,28.7184182 30.4803628,28.3116093 29.9316405,28.3116093 C29.7570294,28.3100521 29.5781405,28.3509276 29.4113072,28.4295644 C29.2246405,28.5050868 29.0313628,28.5915094 28.8505294,28.6678104 L28.5853072,28.7787583 L28.239585,28.9177352 L28.239585,28.9216281 C24.4836961,30.4460912 20.5388072,31.3410709 16.889085,31.4193184 C16.7545294,31.4232113 16.6199739,31.4232113 16.4893072,31.4232113 C10.7477517,31.4263256 6.06514055,28.7596831 1.33858499,26.1319696 C1.1736961,26.045547 1.00491832,26 0.840029435,26" id="Fill-173"></path>
                        <path d="M34.4323013,26.50967 C34.4163569,26.1433473 34.3397457,25.8665615 34.1869124,25.6341548 L34.170968,25.6131331 L34.1526902,25.590165 C33.9979124,25.4208234 33.8493569,25.357369 33.6883569,25.2861288 C33.2104124,25.1016049 32.5127457,25.0031143 31.6727457,25 C31.069968,25 30.4045791,25.0576151 29.7356902,25.2035991 L29.7337457,25.15922 L29.0605791,25.3846194 L29.0485235,25.3896802 L28.6685791,25.5134747 L28.6685791,25.5306035 C28.2221346,25.7155166 27.8165235,25.9471447 27.4385235,26.2196483 C27.2055791,26.3959971 27.0103569,26.6284038 27.0002457,26.9846049 C26.9944124,27.1780825 27.0928013,27.4015355 27.2557457,27.5331158 C27.4186902,27.665864 27.6073013,27.7102431 27.7741346,27.7102431 C27.8141902,27.7102431 27.8503569,27.7082967 27.8845791,27.7032359 L27.9168569,27.7001216 L27.940968,27.6950608 C28.2707457,27.625767 28.7510235,27.5794414 29.3118013,27.4996368 C29.7940235,27.4463039 30.3042457,27.4073748 30.7464124,27.4073748 C31.0598569,27.4050391 31.3414124,27.4276179 31.5343013,27.4696614 C31.6303569,27.4899045 31.7030791,27.5148191 31.7431346,27.5350622 C31.7575235,27.540123 31.7672457,27.5463517 31.773468,27.5502446 C31.7816346,27.5774949 31.7933013,27.6456208 31.7913569,27.7433329 C31.7952457,28.1147164 31.6385235,28.8029826 31.423468,29.4741201 C31.2126902,30.1464255 30.9575791,30.8198987 30.7888013,31.2675832 C30.7483569,31.3711346 30.7223013,31.4836397 30.7223013,31.6078234 C30.7184124,31.7876758 30.7926902,32.0052894 30.947468,32.1501056 C31.1003013,32.2949219 31.2970791,32.3525369 31.461968,32.3525369 L31.4701346,32.3525369 C31.7170791,32.3494226 31.9282457,32.2517106 32.1090791,32.1088408 C33.8170791,30.5703632 34.4120791,28.1147164 34.4361902,26.7319551 L34.4323013,26.5116165 L34.4323013,26.50967 Z" id="Fill-174"></path>
                    </g>
                </g>
            </g>
        </g>
    </g>
</svg>