<?xml version="1.0" encoding="UTF-8"?>
<svg width="70px" height="70px" viewBox="0 0 70 70" version="1.1" xmlns="http://www.w3.org/2000/svg" xmlns:xlink="http://www.w3.org/1999/xlink">
    <!-- Generator: Sketch 46.2 (44496) - http://www.bohemiancoding.com/sketch -->
    <title>American Express</title>
    <desc>Created with Sketch.</desc>
    <defs></defs>
    <g id="Icons" stroke="none" stroke-width="1" fill="none" fill-rule="evenodd">
        <g transform="translate(-729.000000, -835.000000)" id="Icon-Set">
            <g transform="translate(69.000000, 66.000000)">
                <g id="American-Express" transform="translate(660.000000, 769.000000)">
                    <circle id="Oval-1-Copy-59" fill="#002663" cx="35" cy="35" r="35"></circle>
                    <path d="M59,40.5034932 C59,41.6995808 58.2398696,42.2585002 56.8872846,42.2585002 L54.2938985,42.2585002 L54.2938985,41.0624127 L56.8872846,41.0624127 C57.1220307,41.0624127 57.3232417,41.0176991 57.4126688,40.9394504 C57.4909176,40.8612017 57.5803447,40.7382394 57.5803447,40.581742 C57.5803447,40.4252445 57.5020959,40.2687471 57.4126688,40.17932 C57.3344201,40.1010713 57.1779227,40.0563577 56.9319981,40.0563577 C55.691197,40.0116442 54.137401,40.1010713 54.137401,38.3348859 C54.137401,37.5412203 54.6627853,36.6581276 56.0600838,36.6581276 L58.7317187,36.6581276 L58.7317187,37.8542152 L56.2501164,37.8542152 C56.0153703,37.8542152 55.8476945,37.8542152 55.7247322,37.9324639 C55.6017699,38.0554262 55.5235212,38.1672101 55.5235212,38.3684211 C55.5235212,38.569632 55.6464835,38.6814159 55.8029809,38.770843 C55.9706567,38.8155566 56.1159758,38.8490918 56.3283652,38.8490918 L57.043782,38.8490918 C57.8039124,38.8490918 58.2845831,39.0167676 58.6087564,39.2850489 C58.8323242,39.575687 59,39.9333954 59,40.5034932 L59,40.5034932 L59,40.5034932 L59,40.5034932 Z M53.3549138,39.3074057 C53.041919,39.027946 52.5612483,38.8714485 51.7899395,38.8714485 L51.0745226,38.8714485 C50.8733116,38.8714485 50.7168142,38.826735 50.5491383,38.7931998 C50.3814625,38.7149511 50.2696786,38.5919888 50.2696786,38.3907778 C50.2696786,38.1783884 50.3143922,38.077783 50.4708896,37.9548207 C50.5938519,37.876572 50.7503493,37.876572 50.9962739,37.876572 L53.4778761,37.876572 L53.4778761,36.6804844 L50.8174197,36.6804844 C49.3754075,36.6804844 48.8947368,37.5635771 48.8947368,38.3572427 C48.8947368,40.1122497 50.4597112,40.0340009 51.7005123,40.0787145 C51.9352585,40.0787145 52.1029343,40.123428 52.181183,40.2016768 C52.2594318,40.2799255 52.3488589,40.4364229 52.3488589,40.6040987 C52.3488589,40.7717746 52.2706102,40.8835585 52.181183,40.9618072 C52.0582208,41.0400559 51.9017233,41.0847694 51.6557988,41.0847694 L49.0624127,41.0847694 L49.0624127,42.280857 L51.6557988,42.280857 C53.0195622,42.280857 53.7685142,41.7219376 53.7685142,40.52585 C53.7573358,39.9333954 53.6008384,39.575687 53.3549138,39.3074057 L53.3549138,39.3074057 L53.3549138,39.3074057 L53.3549138,39.3074057 Z M48.2352119,41.1071262 L45.0829064,41.1071262 L45.0829064,39.978109 L48.1569632,39.978109 L48.1569632,38.8490918 L45.0829064,38.8490918 L45.0829064,37.8095016 L48.2352119,37.8095016 L48.2352119,36.6469492 L43.7638565,36.6469492 L43.7638565,42.2473218 L48.2352119,42.2473218 L48.2352119,41.1071262 L48.2352119,41.1071262 L48.2352119,41.1071262 Z M42.3218444,36.9487657 C41.8858873,36.7140196 41.360503,36.669306 40.6897997,36.669306 L37.6045645,36.669306 L37.6045645,42.2696786 L38.9683279,42.2696786 L38.9683279,40.2240335 L40.41034,40.2240335 C40.8910107,40.2240335 41.1704704,40.2687471 41.3716814,40.4587797 C41.6064276,40.7382394 41.6064276,41.2189101 41.6064276,41.5877969 L41.6064276,42.2696786 L42.9254774,42.2696786 L42.9254774,41.1853749 C42.9254774,40.6599907 42.8807639,40.4252445 42.7242664,40.1457848 C42.6013041,39.978109 42.366558,39.7880764 42.0423847,39.6651141 C42.4000932,39.5421518 43.0037261,39.0614811 43.0037261,38.1783884 C42.9925477,37.5300419 42.7578016,37.1723335 42.3218444,36.9487657 L42.3218444,36.9487657 L42.3218444,36.9487657 L42.3218444,36.9487657 Z M34.7205403,36.6581276 L30.4392175,36.6581276 L28.7177457,38.5025617 L27.085701,36.6581276 L21.6865394,36.6581276 L21.6865394,42.2585002 L27.0074523,42.2585002 L28.7289241,40.4140661 L30.3609688,42.2585002 L32.9543549,42.2585002 L32.9543549,40.380531 L34.6311132,40.380531 C35.7936656,40.380531 36.956218,40.0675361 36.956218,38.5025617 C36.956218,36.9823009 35.7601304,36.6581276 34.7205403,36.6581276 L34.7205403,36.6581276 L34.7205403,36.6581276 L34.7205403,36.6581276 Z M41.2375408,38.972054 C41.0363298,39.0503027 40.8351188,39.0503027 40.5891942,39.0503027 L38.9571495,39.0950163 L38.9571495,37.82068 L40.5891942,37.82068 C40.8239404,37.82068 41.0698649,37.82068 41.2375408,37.9436423 C41.4052166,38.021891 41.5170005,38.1783884 41.5170005,38.424313 C41.5281789,38.6590592 41.4052166,38.8602701 41.2375408,38.972054 L41.2375408,38.972054 L41.2375408,38.972054 L41.2375408,38.972054 Z M34.7205403,39.2626921 L32.9655333,39.2626921 L32.9655333,37.82068 L34.7205403,37.82068 C35.201211,37.82068 35.5142059,38.021891 35.5142059,38.5025617 C35.5142059,38.9832324 35.201211,39.2626921 34.7205403,39.2626921 L34.7205403,39.2626921 L34.7205403,39.2626921 L34.7205403,39.2626921 Z M29.5561248,39.4527247 L31.6464835,37.2617606 L31.6464835,41.7778295 L29.5561248,39.4527247 L29.5561248,39.4527247 L29.5561248,39.4527247 Z M26.3143922,41.1071262 L22.9944108,41.1071262 L22.9944108,39.978109 L25.9566837,39.978109 L25.9566837,38.8490918 L22.9944108,38.8490918 L22.9944108,37.8095016 L26.3591057,37.8095016 L27.8458314,39.4415463 L26.3143922,41.1071262 L26.3143922,41.1071262 L26.3143922,41.1071262 Z M55.2775966,32.6227294 L53.3549138,32.6227294 L50.828598,28.4196553 L50.828598,32.6227294 L48.1122497,32.6227294 L47.5980438,31.3819283 L44.7922683,31.3819283 L44.266884,32.6227294 L42.713088,32.6227294 C42.0647415,32.6227294 41.2263624,32.4550536 40.7456917,31.9743829 C40.3097345,31.4937122 40.06381,30.8453656 40.06381,29.8616674 C40.06381,29.0232883 40.1867722,28.2519795 40.7792268,27.6595249 C41.1816488,27.2235678 41.9082441,27.0111784 42.8248719,27.0111784 L44.0992082,27.0111784 L44.0992082,28.207266 L42.8248719,28.207266 C42.3442012,28.207266 42.0647415,28.2855147 41.7852818,28.5202608 C41.5505356,28.755007 41.4275734,29.2021425 41.4275734,29.7945971 C41.4275734,30.3870517 41.5505356,30.8341872 41.7852818,31.1136469 C41.9864928,31.3148579 42.3442012,31.3931067 42.7019096,31.3931067 L43.3055426,31.3931067 L45.2282254,27 L47.229157,27 L49.4648347,32.2873777 L49.4648347,27 L51.5551933,27 L53.9138333,30.8789008 L53.9138333,27 L55.2775966,27 L55.2775966,32.6227294 L55.2775966,32.6227294 L55.2775966,32.6227294 Z M39.404285,27.0223568 L38.0405217,27.0223568 L38.0405217,32.6227294 L39.404285,32.6227294 L39.404285,27.0223568 L39.404285,27.0223568 L39.404285,27.0223568 Z M36.553796,27.2571029 C36.1178388,27.0223568 35.6371681,27.0223568 34.9441081,27.0223568 L31.8700512,27.0223568 L31.8700512,32.6227294 L33.1891011,32.6227294 L33.1891011,30.5770843 L34.6311132,30.5770843 C35.1117839,30.5770843 35.4247788,30.6217979 35.6371681,30.8118305 C35.8719143,31.0912902 35.8383791,31.5719609 35.8383791,31.8961341 L35.8383791,32.611551 L37.2021425,32.611551 L37.2021425,31.4825338 C37.2021425,31.0018631 37.157429,30.7671169 36.9673964,30.4764788 C36.8444341,30.308803 36.6096879,30.1187704 36.3190498,29.9958081 C36.6767583,29.8281323 37.2803912,29.3921751 37.2803912,28.5090824 C37.2803912,27.8942711 37.0009315,27.5365626 36.553796,27.2571029 L36.553796,27.2571029 L36.553796,27.2571029 L36.553796,27.2571029 Z M30.9198882,31.460177 L27.8011178,31.460177 L27.8011178,30.3311598 L30.8751747,30.3311598 L30.8751747,29.1686074 L27.8011178,29.1686074 L27.8011178,28.1625524 L30.9198882,28.1625524 L30.9198882,27 L26.4485328,27 L26.4485328,32.6227294 L30.9198882,32.6227294 L30.9198882,31.460177 L30.9198882,31.460177 L30.9198882,31.460177 Z M25.4424779,27.0223568 L23.2403354,27.0223568 L21.6082906,30.8230088 L19.8532837,27.0223568 L17.6846763,27.0223568 L17.6846763,32.3097345 L15.404285,27.0223568 L13.4033535,27.0223568 L11,32.6227294 L12.4420121,32.6227294 L12.9673964,31.3819283 L15.7619935,31.3819283 L16.2873777,32.6227294 L19.0037261,32.6227294 L19.0037261,28.2184443 L20.9711225,32.6227294 L22.1336749,32.6227294 L24.1010713,28.2184443 L24.1010713,32.6227294 L25.4648347,32.6227294 L25.4424779,27.0223568 L25.4424779,27.0223568 L25.4424779,27.0223568 Z M47.1285515,30.1746623 L46.2119236,27.9725198 L45.2841174,30.1746623 L47.1285515,30.1746623 L47.1285515,30.1746623 L47.1285515,30.1746623 Z M35.5142059,29.302748 C35.3129949,29.4257103 35.1117839,29.4257103 34.8323242,29.4257103 L33.2002795,29.4257103 L33.2002795,28.1849092 L34.8323242,28.1849092 C35.0670703,28.1849092 35.3577084,28.1849092 35.5142059,28.2631579 C35.6818817,28.3861202 35.748952,28.5426176 35.748952,28.7885422 C35.748952,29.0344667 35.6818817,29.2133209 35.5142059,29.302748 L35.5142059,29.302748 L35.5142059,29.302748 L35.5142059,29.302748 Z M13.4480671,30.1746623 L14.3646949,27.9725198 L15.2813228,30.1746623 L13.4480671,30.1746623 L13.4480671,30.1746623 L13.4480671,30.1746623 Z" id="Shape" fill="#FFFFFF"></path>
                </g>
            </g>
        </g>
    </g>
</svg>