<?xml version="1.0" encoding="UTF-8"?>
<svg width="70px" height="70px" viewBox="0 0 70 70" version="1.1" xmlns="http://www.w3.org/2000/svg" xmlns:xlink="http://www.w3.org/1999/xlink">
    <!-- Generator: Sketch 46.2 (44496) - http://www.bohemiancoding.com/sketch -->
    <title>Android</title>
    <desc>Created with Sketch.</desc>
    <defs></defs>
    <g id="Icons" stroke="none" stroke-width="1" fill="none" fill-rule="evenodd">
        <g transform="translate(-1059.000000, -176.000000)" id="Icon-Set">
            <g transform="translate(69.000000, 66.000000)">
                <g id="Android" transform="translate(990.000000, 110.000000)">
                    <circle id="Oval-1-Copy-18" fill="#A4C639" cx="35" cy="35" r="35"></circle>
                    <g id="Group-5" transform="translate(19.000000, 18.000000)" fill="#FFFFFF">
                        <path d="M20.2488889,6.07612297 C21.1305,6.07612297 21.8452778,6.78735741 21.8452778,7.66404048 C21.8452778,8.54072355 21.1305,9.2515687 20.2488889,9.2515687 C19.3672778,9.2515687 18.6525,8.54072355 18.6525,7.66404048 C18.6525,6.78735741 19.3672778,6.07612297 20.2488889,6.07612297 M11.4425,9.2515687 C10.5612778,9.2515687 9.8465,8.54072355 9.8465,7.66404048 C9.8465,6.78735741 10.5612778,6.07612297 11.4425,6.07612297 C12.3241111,6.07612297 13.0388889,6.78735741 13.0388889,7.66404048 C13.0388889,8.54072355 12.3241111,9.2515687 11.4425,9.2515687 M15.8455,2.18983209 C14.5870556,2.18983209 13.3830556,2.42379591 12.2758889,2.84929084 L10.8611111,0.147222825 C10.7911111,0.0136960521 10.6246667,-0.0388582171 10.4889444,0.030824851 C10.3559444,0.100118628 10.3018889,0.265956544 10.3730556,0.399483317 L11.7660556,3.06223296 C8.64872222,4.46484801 6.39122222,7.42657304 6,10.9488769 L25.6913889,10.9488769 C25.3001667,7.42657304 23.0430556,4.46484801 19.9253333,3.06223296 L21.3183333,0.399483317 C21.3895,0.265956544 21.3358333,0.100118628 21.2024444,0.030824851 C21.0671111,-0.0388582171 20.9002778,0.0136960521 20.8302778,0.147222825 L19.4158889,2.84929084 C18.3083333,2.42379591 17.1047222,2.18983209 15.8455,2.18983209" id="Fill-175"></path>
                        <path d="M31.3858889,21.9523097 L31.3858889,13.1702967 C31.3858889,11.9631056 30.1799444,11 29.0914444,11 C28.0029444,11 27,11.9631056 27,13.1702967 L27,21.9523097 C27,23.1595007 28.0706111,24.1479103 29.1591111,24.1479103 C30.2476111,24.1479103 31.3858889,23.1595007 31.3858889,21.9523097" id="Fill-176"></path>
                        <path d="M16.2962222,32.7978654 C16.2962222,34.0291925 17.6398333,34.9864588 18.8302222,34.9864588 C20.0206111,34.9864588 20.9932222,33.9781954 20.9932222,32.746479 L20.9932222,28.3692923 L22.0747222,28.3692923 C23.8671111,28.3692923 25.7147222,26.7622996 25.7147222,24.9073285 L25.7147222,12 L6,12 L6,24.9073285 C6,26.7622996 7.25455556,28.3949855 9.04694444,28.3949855 L9.95538889,28.4206787 L9.97988889,32.7211751 C9.97988889,33.9525022 11.1504444,34.9864588 12.3408333,34.9864588 C13.5312222,34.9864588 14.6523889,33.9525022 14.6523889,32.7211751 L14.603,28.3692923 L16.2468333,28.4463719 L16.2962222,32.7978654 Z" id="Fill-177"></path>
                        <path d="M0,13.1897612 L0,21.9488061 C0,23.1528828 0.902611111,24.1385673 2.00705556,24.1385673 C3.1115,24.1385673 4.35788889,23.1528828 4.35788889,21.9488061 L4.35788889,13.1897612 C4.35788889,11.9856845 3.1115,11 2.00705556,11 C0.902611111,11 0,11.9856845 0,13.1897612" id="Fill-178"></path>
                    </g>
                </g>
            </g>
        </g>
    </g>
</svg>