<?xml version="1.0" encoding="UTF-8"?>
<svg width="70px" height="70px" viewBox="0 0 70 70" version="1.1" xmlns="http://www.w3.org/2000/svg" xmlns:xlink="http://www.w3.org/1999/xlink">
    <!-- Generator: Sketch 46.2 (44496) - http://www.bohemiancoding.com/sketch -->
    <title>Aol</title>
    <desc>Created with Sketch.</desc>
    <defs></defs>
    <g id="Icons" stroke="none" stroke-width="1" fill="none" fill-rule="evenodd">
        <g transform="translate(-509.000000, -290.000000)" id="Icon-Set">
            <g transform="translate(69.000000, 66.000000)">
                <g id="Aol" transform="translate(440.000000, 224.000000)">
                    <circle id="Oval-1-Copy-23" fill="#FF0B00" cx="35" cy="35" r="35"></circle>
                    <g id="Group-10" transform="translate(16.000000, 26.000000)" fill="#FFFFFF">
                        <path d="M9.79175556,12.184731 L5.86762222,12.184731 L7.78831111,6.18551383 L9.79175556,12.184731 Z M0,18.1213947 L3.6822,18.1213947 L4.81966667,15.146723 L10.8169111,15.146723 L12.0464222,18.1213947 L15.6218,18.1213947 L9.1086,1.08571429 L6.51235556,1.08571429 L0,18.1213947 Z" id="Fill-51"></path>
                        <path d="M23.4020889,11.741824 C23.4020889,13.3322886 22.4368889,15.0432109 20.8582,15.0432109 C19.2790889,15.0432109 18.3143111,13.3322886 18.3143111,11.741824 C18.3143111,10.103599 19.2790889,8.41676824 20.8582,8.41676824 C22.4368889,8.41676824 23.4020889,10.103599 23.4020889,11.741824 M15.2,11.741824 C15.2,15.4045841 17.4808444,18.0309851 20.8582,18.0309851 C24.2351333,18.0309851 26.5159778,15.4045841 26.5159778,11.741824 C26.5159778,8.05539508 24.2136,5.42857143 20.8582,5.42857143 C17.5028,5.42857143 15.2,8.05539508 15.2,11.741824" id="Fill-53"></path>
                        <polygon id="Fill-55" points="28.2285714 17.7888582 31.2939048 17.7888582 31.2939048 0 28.2285714 0"></polygon>
                        <path d="M35.7142095,13.0467458 C35.4710095,13.0467458 35.9523429,13.0285714 35.7091429,13.0285714 C34.5792762,13.0285714 33.6571429,13.9377102 33.6571429,15.0805793 C33.6571429,16.2230257 34.5792762,17.1790796 35.7091429,17.1790796 C35.9523429,17.1790796 35.4710095,17.1976766 35.7142095,17.1976766 C36.8440762,17.1976766 37.7666317,16.2881151 37.7666317,15.1456687 C37.7666317,14.0027997 36.8440762,13.0467458 35.7142095,13.0467458" id="Fill-57"></path>
                    </g>
                </g>
            </g>
        </g>
    </g>
</svg>