<?xml version="1.0" encoding="UTF-8"?>
<svg width="70px" height="70px" viewBox="0 0 70 70" version="1.1" xmlns="http://www.w3.org/2000/svg" xmlns:xlink="http://www.w3.org/1999/xlink">
    <!-- Generator: Sketch 46.2 (44496) - http://www.bohemiancoding.com/sketch -->
    <title>Apple</title>
    <desc>Created with Sketch.</desc>
    <defs></defs>
    <g id="Icons" stroke="none" stroke-width="1" fill="none" fill-rule="evenodd">
        <g transform="translate(-839.000000, -726.000000)" id="Icon-Set">
            <g transform="translate(69.000000, 66.000000)">
                <g id="Apple" transform="translate(770.000000, 660.000000)">
                    <circle id="Oval-1-Copy-58" fill="#000000" cx="35" cy="35" r="35"></circle>
                    <path d="M49.4819393,40.6529724 C49.2866214,41.2186571 49.0820905,41.7585451 48.8646612,42.2763217 C48.3339863,43.4998222 47.707495,44.6256637 46.9815023,45.6593742 C45.9938573,47.0708221 45.183104,48.0474113 44.5584554,48.5891419 C43.5910793,49.479128 42.5536835,49.936098 41.442583,49.9600521 C40.644728,49.9600521 39.6847223,49.7334097 38.5644086,49.274597 C37.4422523,48.8157843 36.4103844,48.5891419 35.4669624,48.5891419 C34.4774748,48.5891419 33.416125,48.8157843 32.2810703,49.274597 C31.144173,49.7334097 30.2283903,49.9747931 29.5281942,49.9969045 C28.4631592,50.0429701 27.4018094,49.5749443 26.3423022,48.5891419 C25.6660602,47.9995031 24.8202971,46.9879041 23.8068554,45.5561874 C22.7197089,44.0268118 21.8260376,42.2523676 21.1258416,40.2291695 C20.3758947,38.0456634 20,35.9303343 20,33.8831821 C20,31.5375253 20.5067208,29.5143272 21.5220051,27.8191157 C22.3198601,26.4574186 23.3812099,25.3831705 24.7097398,24.5945286 C26.0382697,23.8058867 27.4736716,23.4041953 29.0196308,23.3783986 C29.8653939,23.3783986 30.9746519,23.6400508 32.3529326,24.1541421 C33.727528,24.6700761 34.6101435,24.9317283 34.997094,24.9317283 C35.2863855,24.9317283 36.26666,24.6258532 37.9287043,24.0159456 C39.5004602,23.4502608 40.8271475,23.2162479 41.914294,23.308379 C44.8588027,23.5460771 47.0699481,24.7069285 48.5422025,26.7983036 C45.9090968,28.3940135 44.6063636,30.6291131 44.6321603,33.4962316 C44.6561143,35.7294885 45.465025,37.5886933 47.0570498,39.0646329 C47.7793573,39.7482454 48.5864254,40.2770777 49.4819393,40.6529724 L49.4819393,40.6529724 Z M42.074602,15 C42.0985561,15.2340129 42.1096118,15.4680258 42.1096118,15.7001961 C42.1096118,17.4506862 41.4702223,19.0850912 40.196971,20.5978832 C38.6583823,22.3962815 36.7973349,23.4355199 34.7796647,23.2715266 C34.753868,23.0614678 34.739127,22.8403532 34.739127,22.608183 C34.739127,20.9277124 35.4706476,19.1293141 36.7696956,17.6589024 C37.4182982,16.9144834 38.2437925,16.2953627 39.2424932,15.8015402 C40.2411939,15.3150882 41.1864586,15.0460655 42.074602,15 L42.074602,15 Z" fill="#FFFFFF"></path>
                </g>
            </g>
        </g>
    </g>
</svg>