<?xml version="1.0" encoding="UTF-8"?>
<svg width="70px" height="70px" viewBox="0 0 70 70" version="1.1" xmlns="http://www.w3.org/2000/svg" xmlns:xlink="http://www.w3.org/1999/xlink">
    <!-- Generator: Sketch 46.2 (44496) - http://www.bohemiancoding.com/sketch -->
    <title>Behance</title>
    <desc>Created with Sketch.</desc>
    <defs></defs>
    <g id="Icons" stroke="none" stroke-width="1" fill="none" fill-rule="evenodd">
        <g transform="translate(-619.000000, -176.000000)" id="Icon-Set">
            <g transform="translate(69.000000, 66.000000)">
                <g id="Behance" transform="translate(550.000000, 110.000000)">
                    <circle id="Oval-1-Copy-14" fill="#1769FF" cx="35" cy="35" r="35"></circle>
                    <g id="Group-2" transform="translate(18.000000, 24.000000)" fill="#FFFFFF">
                        <polygon id="Fill-169" points="23 5.17263242 31.7107222 5.17263242 31.7107222 3 23 3"></polygon>
                        <path d="M26.9041667,9.19491027 C29.0018333,9.19491027 29.9460556,10.0933936 30.3423333,12.2411114 L23.3182222,12.2411114 C23.3781111,11.0487135 24.1687222,9.19491027 26.9041667,9.19491027 M19,14.1494153 C19,18.9232894 22.0706667,22.2661302 27.0266667,22.2661302 C30.5857778,22.2661302 32.8292778,21.2173806 34.0433889,17.5759537 L30.5857778,17.5759537 C30.3123889,18.5320521 28.912,19.0731664 27.1775556,19.0731664 C24.7761667,19.0731664 23.4387778,18.083589 23.3182222,15.3959247 L34.6586111,15.3959247 C34.9623333,10.6512475 32.377,6 27.0266667,6 C22.2546111,6 19,9.52191462 19,14.1494153" id="Fill-170"></path>
                        <path d="M4.36527778,17.6344877 L4.36527778,11.7834457 L9.56277778,11.7834457 C11.6009444,11.7834457 12.9978333,12.6507858 12.9978333,14.828479 C12.9978333,17.0388726 11.3575,17.6344877 9.47216667,17.6344877 L4.36527778,17.6344877 Z M4.36527778,3.60716932 L8.83438889,3.60716932 C10.5357778,3.60716932 12.1177778,4.0264356 12.1177778,6.05658755 C12.1177778,7.84537916 10.8702222,8.5908712 9.19877778,8.5908712 L4.36527778,8.5908712 L4.36527778,3.60716932 Z M18.1840556,15.2648741 C18.1840556,12.6099103 16.8466667,10.6112909 14.1987222,9.86463097 C16.086,8.96809407 17.15,7.50747467 17.15,5.41581476 C17.15,1.4473835 14.3523333,0 10.2188333,0 L0,0 L0,21.4456454 L10.5198333,21.4456454 C14.4421667,21.4456454 18.1840556,19.5933994 18.1840556,15.2648741 L18.1840556,15.2648741 Z" id="Fill-171"></path>
                    </g>
                </g>
            </g>
        </g>
    </g>
</svg>