<?xml version="1.0" encoding="UTF-8"?>
<svg width="70px" height="70px" viewBox="0 0 70 70" version="1.1" xmlns="http://www.w3.org/2000/svg" xmlns:xlink="http://www.w3.org/1999/xlink">
    <!-- Generator: Sketch 46.2 (44496) - http://www.bohemiancoding.com/sketch -->
    <title>Bitly</title>
    <desc>Created with Sketch.</desc>
    <defs></defs>
    <g id="Icons" stroke="none" stroke-width="1" fill="none" fill-rule="evenodd">
        <g transform="translate(-839.000000, -290.000000)" id="Icon-Set">
            <g transform="translate(69.000000, 66.000000)">
                <g id="Bitly" transform="translate(770.000000, 224.000000)">
                    <circle id="Oval-1-Copy-26" fill="#EE6123" cx="35" cy="35" r="35"></circle>
                    <path d="M41.3942778,43.8169707 C39.8064444,47.4782514 34.8733889,48.2720155 32.5396667,45.5921371 C32.5396667,42.9601414 32.4416667,40.5885814 32.5637778,38.2283107 C32.7290556,35.0361255 36.6202778,32.7338592 39.5528889,33.9943831 C40.7487222,34.5082471 41.4327778,35.4873136 41.7831667,36.6812688 C42.4921111,39.0952615 42.3945,41.5104222 41.3942778,43.8169707 M47.5227778,34.7608968 C45.2621667,27.6742456 38.9983333,27.0922557 34.3308889,29.6958332 C33.7382222,30.0263411 33.193,30.4428824 32.6127778,30.8282803 C32.6127778,29.4603122 32.6197778,28.1005191 32.6112222,26.7407261 C32.5999444,24.8947087 32.7173889,23.0338983 32.5233333,21.2065669 C32.2744444,18.8649822 30.7678889,17.4588636 28.5928333,17.1777955 C28.4112222,17.1447058 28.2976667,17.100716 28.0806667,17.0656798 C27.7026667,16.9605712 27.2923889,16.9940502 26.8902778,17.0789157 C26.6732778,17.1186233 26.4558889,17.158331 26.2388889,17.1976494 C24.0615,17.6531197 22.8209444,19.1386537 22,21.0854974 L22,21.8609649 C22.8559444,23.3562311 23.8833889,23.4660112 25.1231667,22.2315698 C25.311,22.0447102 25.64,21.9224728 25.9025,21.9248086 C26.0187778,21.9259764 26.2272222,22.3098173 26.2322778,22.5235379 C26.3800556,28.9604627 26.5142222,35.3977767 26.6297222,41.8350908 C26.6441111,42.6292442 26.5632222,43.4272905 26.4916667,44.220276 C26.263,46.7596204 27.5237778,48.5503585 29.4168889,49.973606 C31.492,51.5338838 33.9167222,52.0263368 36.4511111,52.0360691 C40.683,52.0524193 44.0966667,49.8424149 46.6928889,45.638852 L46.7749444,45.4512138 C48.6365556,42.0017073 48.6789444,38.3867521 47.5227778,34.7608968" id="Fill-63" fill="#FFFFFF"></path>
                </g>
            </g>
        </g>
    </g>
</svg>