<?xml version="1.0" encoding="UTF-8"?>
<svg width="70px" height="70px" viewBox="0 0 70 70" version="1.1" xmlns="http://www.w3.org/2000/svg" xmlns:xlink="http://www.w3.org/1999/xlink">
    <!-- Generator: Sketch 46.2 (44496) - http://www.bohemiancoding.com/sketch -->
    <title>Blackberry</title>
    <desc>Created with Sketch.</desc>
    <defs></defs>
    <g id="Icons" stroke="none" stroke-width="1" fill="none" fill-rule="evenodd">
        <g transform="translate(-1180.000000, -835.000000)" id="Icon-Set">
            <g transform="translate(69.000000, 66.000000)">
                <g id="Blackberry" transform="translate(1111.000000, 769.000000)">
                    <circle id="Oval-1-Copy-59" fill="#000000" cx="35" cy="35" r="35"></circle>
                    <g id="Blackberry-Messenger" transform="translate(16.000000, 22.000000)" fill="#FFFFFF">
                        <g id="Layer_1">
                            <path d="M33.3600811,12.5562162 L28.1177027,12.5562162 L29.5466351,5.94389189 L34.5821351,5.94389189 C37.8487703,5.94389189 38.6224054,7.55014865 38.6224054,8.82145946 C38.6224054,10.6198784 37.4594595,12.5562162 33.3600811,12.5562162 L33.3600811,12.5562162 Z M36.6712297,18.2421486 C36.6712297,20.0404459 35.5082838,21.9769054 31.4089054,21.9769054 L26.166527,21.9769054 L27.5953378,15.3598378 L32.6260946,15.3598378 C35.8927297,15.3598378 36.6712297,16.9758243 36.6712297,18.2421486 L36.6712297,18.2421486 Z M21.155473,6.63871622 L15.9179595,6.63871622 L17.3468919,0.0263918919 L22.3726622,0.0263918919 C25.6441622,0.0263918919 26.4226622,1.63264865 26.4226622,2.90383784 C26.4227838,4.70225676 25.2548514,6.63871622 21.155473,6.63871622 L21.155473,6.63871622 Z M24.5995541,12.8567432 C24.5995541,14.6551622 23.4367297,16.5915 19.3372297,16.5915 L14.0998378,16.5915 L15.5262162,9.98416216 L20.5592838,9.98416216 C23.8260405,9.98416216 24.5995541,11.5855541 24.5995541,12.8567432 L24.5995541,12.8567432 Z M22.6534865,23.223527 C22.6534865,25.0268108 21.4905405,26.9582838 17.4008919,26.9582838 L12.150973,26.9582838 L13.5797838,20.3410946 L18.6154054,20.3410946 C21.8797297,20.3410946 22.6534865,21.9523378 22.6534865,23.223527 L22.6534865,23.223527 Z M7.12787838,6.63871622 L1.8927973,6.63871622 L3.31431081,0.0263918919 L8.34993243,0.0263918919 C11.6166892,0.0263918919 12.3976216,1.63264865 12.3976216,2.90383784 C12.3975,4.70225676 11.2272568,6.63871622 7.12787838,6.63871622 L7.12787838,6.63871622 Z M10.5793784,12.8567432 C10.5793784,14.6551622 9.40913514,16.5915 5.31960811,16.5915 L0.0696891892,16.5915 L1.5012973,9.98416216 L6.53181081,9.98416216 C9.80087838,9.98416216 10.5793784,11.5855541 10.5793784,12.8567432 L10.5793784,12.8567432 Z" id="Shape"></path>
                        </g>
                    </g>
                </g>
            </g>
        </g>
    </g>
</svg>