<?xml version="1.0" encoding="UTF-8"?>
<svg width="70px" height="70px" viewBox="0 0 70 70" version="1.1" xmlns="http://www.w3.org/2000/svg" xmlns:xlink="http://www.w3.org/1999/xlink">
    <!-- Generator: Sketch 46.2 (44496) - http://www.bohemiancoding.com/sketch -->
    <title>Blogger</title>
    <desc>Created with Sketch.</desc>
    <defs></defs>
    <g id="Icons" stroke="none" stroke-width="1" fill="none" fill-rule="evenodd">
        <g transform="translate(-949.000000, -290.000000)" id="Icon-Set">
            <g transform="translate(69.000000, 66.000000)">
                <g id="Blogger" transform="translate(880.000000, 224.000000)">
                    <circle id="Oval-1-Copy-27" fill="#F57D00" cx="35" cy="35" r="35"></circle>
                    <path d="M42.2985556,42.407848 L28.5525,42.407848 C27.4511667,42.407848 26.6951667,41.738657 26.6951667,40.631903 C26.6951667,39.5243705 27.4511667,38.8555687 28.5525,38.8555687 L42.2985556,38.8555687 C43.3998889,38.8555687 44.1558889,39.5243705 44.1558889,40.631903 C44.1558889,41.738657 43.3998889,42.407848 42.2985556,42.407848 M28.5521111,26.6112026 L36.1455556,26.6112026 C37.1823333,26.6112026 38.0223333,27.3189334 38.0223333,28.3606758 C38.0223333,29.4028075 37.1823333,30.128835 36.1455556,30.128835 L28.5521111,30.128835 C27.5153333,30.128835 26.6753333,29.4028075 26.6753333,28.3606758 C26.6753333,27.3189334 27.5153333,26.6112026 28.5521111,26.6112026 M50.3656667,30.1214385 C50.1226111,30.1214385 49.3701111,30.1338958 48.2007222,30.1338958 C46.5833333,30.1338958 46.7602778,28.6203329 46.7602778,28.6203329 C46.7602778,22.2881274 41.6036111,17 35.3771111,17 L29.2738889,17 C23.0473889,17 18,22.1331896 18,28.4653951 L18,40.5536556 C18,46.8858611 23.0473889,52.0190507 29.2738889,52.0190507 L41.6168333,52.0190507 C47.8433333,52.0190507 52.8907222,46.8858611 52.8907222,40.5536556 C52.8907222,40.5536556 53,36.1402648 53,32.8873502 C53,31.3052721 51.7878333,30.1214385 50.3656667,30.1214385" id="Fill-64" fill="#FFFFFF"></path>
                </g>
            </g>
        </g>
    </g>
</svg>