<?xml version="1.0" encoding="UTF-8"?>
<svg width="70px" height="70px" viewBox="0 0 70 70" version="1.1" xmlns="http://www.w3.org/2000/svg" xmlns:xlink="http://www.w3.org/1999/xlink">
    <!-- Generator: Sketch 46.2 (44496) - http://www.bohemiancoding.com/sketch -->
    <title>Booking</title>
    <desc>Created with Sketch.</desc>
    <defs></defs>
    <g id="Icons" stroke="none" stroke-width="1" fill="none" fill-rule="evenodd">
        <g transform="translate(-69.000000, -508.000000)" id="Icon-Set">
            <g transform="translate(69.000000, 66.000000)">
                <g id="Booking" transform="translate(0.000000, 442.000000)">
                    <circle id="Oval-1-Copy-39" fill="#003580" cx="35" cy="35" r="35"></circle>
                    <g id="Group-20" transform="translate(23.000000, 17.000000)" fill="#FFFFFF">
                        <path d="M6.26696605,27.5688593 C5.71310185,27.5824628 5.47767284,27.4743697 5.51403395,26.8600038 C5.57206481,25.8823863 5.52945988,24.8988861 5.52945988,23.9179596 L5.54562037,23.9179596 C5.54562037,22.9123996 5.51623765,21.9057367 5.55223148,20.9016473 C5.60622222,19.4089331 6.29524691,18.7515505 7.78862346,18.772875 C9.1516142,18.7919935 10.5208488,18.6463987 11.8772284,18.859276 C13.9916821,19.1912762 15.1754383,20.4534654 15.4171111,22.5998855 C15.680821,24.9415351 14.5514228,26.7967657 12.5038148,27.364806 C11.8544568,27.5449611 11.1856327,27.5662856 10.5124012,27.560403 C9.09725617,27.5479024 7.68137654,27.5339312 6.26696605,27.5688593 M5.52174691,12.636937 C5.55039506,11.792046 5.53019444,10.9456844 5.53019444,10.0996904 L5.55333333,10.0996904 C5.55333333,9.27832991 5.53827469,8.45660174 5.55700617,7.6356089 C5.58491975,6.40136215 6.15861728,5.71603718 7.42207407,5.59544352 C8.81591667,5.46234929 10.2321636,5.41933265 11.6124167,5.69618335 C13.7353179,6.12193781 14.834966,8.27387293 14.1646728,10.5725058 C13.6769198,12.2439046 12.4545988,13.1788732 10.6637222,13.2038743 C9.13618827,13.2248311 7.60755247,13.1862264 6.08075309,13.2211545 C5.58014506,13.2325521 5.50779012,13.0501909 5.52174691,12.636937 M13.7918796,32.5051109 C18.8842716,31.7105898 22.8909722,28.3056571 22.3866914,22.2053825 C22.1622809,19.4890837 20.9432654,17.3235451 18.5386574,15.9286293 C18.269071,15.7720046 17.9484321,15.6845007 17.7552407,15.3947818 C18.0534753,15.1274903 18.3484043,14.8693905 18.6370895,14.604305 C22.4013827,11.148267 21.9683549,4.7226101 17.7647901,1.84453935 C16.3628673,0.884201998 14.7872191,0.354398734 13.1102006,0.188950109 C9.78701543,-0.138638169 6.45244444,0.0584295268 3.12338272,0.0621061629 C1.52386111,0.063944481 0.204209877,1.44158003 0.0260771605,3.07143282 C0.02975,12.7898851 0.0337901235,22.5090726 0.0356265432,32.2286279 C0.0356265432,32.3506922 0.0124876543,32.4727565 0,32.5951885 C0.25195679,32.7404156 0.527787037,32.6735008 0.792231481,32.6738685 C4.19768827,32.6790158 7.60314506,32.6742362 11.0089691,32.6804864 C11.9411358,32.6819571 12.8688951,32.6488674 13.7918796,32.5051109" id="Fill-85"></path>
                        <path d="M27.5432642,25.5000002 C25.3983259,25.4992649 23.6166315,27.2975076 23.6111222,29.4685612 C23.6059803,31.6385119 25.3832673,33.4415342 27.5271037,33.4407989 C29.6841624,33.4400636 31.4706315,31.6425562 31.457042,29.4865768 C31.4430852,27.2908897 29.6859988,25.5007356 27.5432642,25.5000002" id="Fill-86"></path>
                    </g>
                </g>
            </g>
        </g>
    </g>
</svg>