<?xml version="1.0" encoding="UTF-8"?>
<svg width="70px" height="70px" viewBox="0 0 70 70" version="1.1" xmlns="http://www.w3.org/2000/svg" xmlns:xlink="http://www.w3.org/1999/xlink">
    <!-- Generator: Sketch 46.2 (44496) - http://www.bohemiancoding.com/sketch -->
    <title>Dailymotion</title>
    <desc>Created with Sketch.</desc>
    <defs></defs>
    <g id="Icons" stroke="none" stroke-width="1" fill="none" fill-rule="evenodd">
        <g transform="translate(-69.000000, -726.000000)" id="Icon-Set">
            <g transform="translate(69.000000, 66.000000)">
                <g id="Dailymotion" transform="translate(0.000000, 660.000000)">
                    <circle id="Oval-1-Copy-58" fill="#0066DC" cx="35" cy="35" r="35"></circle>
                    <path d="M45.903644,49.8593765 L38.7324999,49.8593765 L38.7324999,47.0471399 C36.5296471,49.2031958 34.2798113,50 31.2801083,50 C28.2335144,50 25.6087445,49.015729 23.4057986,47.0471399 C20.4997813,44.4693073 19,41.0946234 19,37.1574923 C19,33.5484044 20.4061889,30.3143911 23.0308646,27.7833548 C25.3744342,25.4867223 28.2335144,24.3149845 31.4207311,24.3149845 C34.467325,24.3149845 36.8108475,25.3460986 38.4981895,27.5021075 L38.4981895,16.5344085 L45.903644,15 L45.903644,49.8593765 Z M32.6394063,30.8768385 C29.1240524,30.8768385 26.4055958,33.7359182 26.4055958,37.1106021 C26.4055958,40.6259565 29.1240524,43.2975225 32.9206066,43.2975225 C36.1078242,43.2975225 38.7793898,40.6727997 38.7793898,37.2043356 C38.7793898,33.5953416 36.1078242,30.8768385 32.6394063,30.8768385 Z" id="Combined-Shape" fill="#FFFFFF"></path>
                </g>
            </g>
        </g>
    </g>
</svg>