<?xml version="1.0" encoding="UTF-8"?>
<svg width="70px" height="70px" viewBox="0 0 70 70" version="1.1" xmlns="http://www.w3.org/2000/svg" xmlns:xlink="http://www.w3.org/1999/xlink">
    <!-- Generator: Sketch 46.2 (44496) - http://www.bohemiancoding.com/sketch -->
    <title>Deezer</title>
    <desc>Created with Sketch.</desc>
    <defs></defs>
    <g id="Icons" stroke="none" stroke-width="1" fill="none" fill-rule="evenodd">
        <g transform="translate(-1059.000000, -508.000000)" id="Icon-Set">
            <g transform="translate(69.000000, 66.000000)">
                <g id="Deezer" transform="translate(990.000000, 442.000000)">
                    <circle id="Oval-1-Copy-48" fill="#EC008B" cx="35" cy="35" r="35"></circle>
                    <g id="Group-26" transform="translate(17.000000, 23.000000)" fill="#FFFFFF">
                        <polygon id="Fill-101" points="0 23.0620738 6.19888889 23.0620738 6.19888889 21 0 21"></polygon>
                        <polygon id="Fill-102" points="0 20.0624631 6.19888889 20.0624631 6.19888889 18 0 18"></polygon>
                        <polygon id="Fill-103" points="0 17.0624631 6.19888889 17.0624631 6.19888889 15 0 15"></polygon>
                        <polygon id="Fill-104" points="0 14.0620738 6.19888889 14.0620738 6.19888889 12 0 12"></polygon>
                        <polygon id="Fill-105" points="0 11.0624631 6.19888889 11.0624631 6.19888889 9 0 9"></polygon>
                        <polygon id="Fill-106" points="7 23.0620738 13.1988889 23.0620738 13.1988889 21 7 21"></polygon>
                        <polygon id="Fill-107" points="7 20.0624631 13.1988889 20.0624631 13.1988889 18 7 18"></polygon>
                        <polygon id="Fill-108" points="7 17.0624631 13.1988889 17.0624631 13.1988889 15 7 15"></polygon>
                        <polygon id="Fill-109" points="15 23.0620738 21.1985 23.0620738 21.1985 21 15 21"></polygon>
                        <polygon id="Fill-110" points="15 20.0624631 21.1985 20.0624631 21.1985 18 15 18"></polygon>
                        <polygon id="Fill-111" points="15 17.0624631 21.1985 17.0624631 21.1985 15 15 15"></polygon>
                        <polygon id="Fill-112" points="15 14.0620738 21.1985 14.0620738 21.1985 12 15 12"></polygon>
                        <polygon id="Fill-113" points="15 11.0624631 21.1985 11.0624631 21.1985 9 15 9"></polygon>
                        <polygon id="Fill-114" points="15 8.0624631 21.1985 8.0624631 21.1985 6 15 6"></polygon>
                        <polygon id="Fill-115" points="15 5.06207381 21.1985 5.06207381 21.1985 3 15 3"></polygon>
                        <polygon id="Fill-116" points="22 23.0620738 28.1988889 23.0620738 28.1988889 21 22 21"></polygon>
                        <polygon id="Fill-117" points="22 20.0624631 28.1988889 20.0624631 28.1988889 18 22 18"></polygon>
                        <polygon id="Fill-118" points="22 17.0624631 28.1988889 17.0624631 28.1988889 15 22 15"></polygon>
                        <polygon id="Fill-119" points="22 14.0620738 28.1988889 14.0620738 28.1988889 12 22 12"></polygon>
                        <polygon id="Fill-120" points="22 11.0624631 28.1988889 11.0624631 28.1988889 9 22 9"></polygon>
                        <polygon id="Fill-121" points="29 23.0620738 35.1988889 23.0620738 35.1988889 21 29 21"></polygon>
                        <polygon id="Fill-122" points="29 20.0624631 35.1988889 20.0624631 35.1988889 18 29 18"></polygon>
                        <polygon id="Fill-123" points="29 17.0624631 35.1988889 17.0624631 35.1988889 15 29 15"></polygon>
                        <polygon id="Fill-124" points="29 14.0620738 35.1988889 14.0620738 35.1988889 12 29 12"></polygon>
                        <polygon id="Fill-125" points="29 11.0624631 35.1988889 11.0624631 35.1988889 9 29 9"></polygon>
                        <polygon id="Fill-126" points="29 8.0624631 35.1988889 8.0624631 35.1988889 6 29 6"></polygon>
                        <polygon id="Fill-127" points="29 5.06207381 35.1988889 5.06207381 35.1988889 3 29 3"></polygon>
                        <polygon id="Fill-128" points="29 2.06207381 35.1988889 2.06207381 35.1988889 0 29 0"></polygon>
                    </g>
                </g>
            </g>
        </g>
    </g>
</svg>