<?xml version="1.0" encoding="UTF-8"?>
<svg width="70px" height="70px" viewBox="0 0 70 70" version="1.1" xmlns="http://www.w3.org/2000/svg" xmlns:xlink="http://www.w3.org/1999/xlink">
    <!-- Generator: Sketch 46.2 (44496) - http://www.bohemiancoding.com/sketch -->
    <title>Digg</title>
    <desc>Created with Sketch.</desc>
    <defs></defs>
    <g id="Icons" stroke="none" stroke-width="1" fill="none" fill-rule="evenodd">
        <g transform="translate(-949.000000, -508.000000)" id="Icon-Set">
            <g transform="translate(69.000000, 66.000000)">
                <g id="Digg" transform="translate(880.000000, 442.000000)">
                    <circle id="Oval-1-Copy-47" fill="#000000" cx="35" cy="35" r="35"></circle>
                    <g id="Group-25" transform="translate(18.000000, 19.000000)" fill="#FFFFFF">
                        <path d="M19.1987778,0 C17.9842778,0 17,0.980623734 17,2.1905398 L17,8.7617699 C17,9.97168596 17.9842778,10.9523097 19.1987778,10.9523097 L26.7117222,10.9523097 C27.9262222,10.9523097 28.9105,9.97168596 28.9105,8.7617699 L28.9105,2.1905398 C28.9105,0.980623734 27.9262222,0 26.7117222,0 L19.1987778,0 Z" id="Fill-98"></path>
                        <path d="M0.000457576578,8.28959624 L0.000457576578,15.9559016 C0.000457576578,17.7812865 2.19962424,18.1464414 2.19962424,18.1464414 L5.4946798,18.1464414 L5.4946798,24.8741664 C2.98712424,25.1750883 1.09984647,26.4823271 1.09984647,28.0492229 C1.09984647,29.8384038 3.56112424,31.2892909 6.5971798,31.2892909 C9.63323535,31.2892909 12.0945131,29.8384038 12.0945131,28.0492229 C12.0945131,26.5037381 10.1671798,25.210903 7.71056869,24.887013 L7.69656869,18.1464414 L10.9033465,18.1464414 C13.0107354,18.1464414 13.193902,15.9559016 13.193902,15.9559016 L13.193902,8.19850217 C13.193902,4 6.78034647,4 6.78034647,4 C-0.18270909,4 0.000457576578,8.28959624 0.000457576578,8.28959624" id="Fill-99"></path>
                        <path d="M32.5076111,7 L30.492,7 L30.492,11.4721737 C30.492,12.8413097 29.3926111,12.4761548 29.3926111,12.4761548 L17.115,12.4761548 C16.1073889,12.4761548 16.1073889,11.4721737 16.1073889,11.4721737 L16.0156111,7.18257742 L14,7.18257742 L14,15.852864 L16.1987778,15.852864 L16.1987778,29.0871968 C16.1987778,31.3688307 18.3061667,31.0947699 18.3061667,31.0947699 L20.6885,31.0947699 C22.8872778,31.0947699 22.7955,28.9957135 22.7955,28.9957135 L22.7955,22.4244834 C22.7955,21.2379247 23.3453889,21.3290188 23.3453889,21.3290188 C23.9866667,21.3290188 23.8035,22.333 23.8035,22.333 L23.8035,28.9046194 C23.8035,31.1862533 26.8271111,31.1862533 26.8271111,31.1862533 L28.1096667,31.1862533 C30.3088333,31.1862533 30.492,29.0871968 30.492,29.0871968 L30.492,15.852864 L32.4158333,15.852864 C34.6146111,15.852864 34.7063889,13.480136 34.7063889,13.480136 L34.7063889,9.1905398 C34.7063889,7 32.5076111,7 32.5076111,7" id="Fill-100"></path>
                    </g>
                </g>
            </g>
        </g>
    </g>
</svg>