<?xml version="1.0" encoding="UTF-8"?>
<svg width="70px" height="70px" viewBox="0 0 70 70" version="1.1" xmlns="http://www.w3.org/2000/svg" xmlns:xlink="http://www.w3.org/1999/xlink">
    <!-- Generator: Sketch 46.2 (44496) - http://www.bohemiancoding.com/sketch -->
    <title>Dribbble</title>
    <desc>Created with Sketch.</desc>
    <defs></defs>
    <g id="Icons" stroke="none" stroke-width="1" fill="none" fill-rule="evenodd">
        <g transform="translate(-69.000000, -290.000000)" id="Icon-Set">
            <g transform="translate(69.000000, 66.000000)">
                <g id="Dribbble" transform="translate(0.000000, 224.000000)">
                    <circle id="Oval-1-Copy-19" fill="#EA4C89" cx="35" cy="35" r="35"></circle>
                    <path d="M49.6065556,34.2101606 C49.5579444,34.2015962 49.5073889,34.1938104 49.4548889,34.1848567 C49.2713333,34.1537135 49.0656111,34.121013 48.8377222,34.0867554 C48.7638333,34.075466 48.6977222,34.0657337 48.6191667,34.054055 C48.3146667,34.0104544 47.9860556,33.9664645 47.6224444,33.9236425 C47.6002778,33.9213068 47.5761667,33.9189711 47.554,33.9166353 C47.2152778,33.8777062 46.8505,33.8422808 46.4701667,33.8095803 C46.3776111,33.8014052 46.2862222,33.794398 46.1917222,33.7870014 C45.8008889,33.7562475 45.3956667,33.730165 44.9721667,33.7110897 C44.9371667,33.7095326 44.9048889,33.7071968 44.8698889,33.7056397 C44.4012778,33.6861751 43.9159444,33.6772214 43.4181667,33.678 C43.3442778,33.678 43.27,33.6799465 43.1957222,33.680725 C42.7617222,33.6842287 42.3211111,33.6982431 41.8735,33.7219899 C41.7848333,33.7270507 41.6981111,33.7305543 41.6090556,33.7360043 C41.0836667,33.7690941 40.5543889,33.8146411 40.0223889,33.8815991 C39.9158333,33.6211635 39.8221111,33.3677352 39.7101111,33.1041852 C39.3958889,32.3660897 39.056,31.6342229 38.7036667,30.9132562 C39.3021667,30.6676136 39.8543889,30.4153531 40.3817222,30.1529711 C40.4217778,30.1335065 40.4606667,30.114042 40.4999444,30.0941881 C44.2387222,28.2092417 46.2142778,26.0611346 46.8151111,25.3090246 C47.0908333,25.648097 47.4031111,25.9587511 47.6473333,26.3196237 C48.1746667,27.1052127 48.6300556,27.9414096 48.9975556,28.8103068 C49.3724444,29.6967221 49.6578889,30.6208987 49.8515556,31.5618148 C50.0327778,32.4610767 50.1245556,33.3844747 50.1377778,34.3074834 C50.0024444,34.2810116 49.8239444,34.2483111 49.6065556,34.2101606 M49.8515556,37.4720289 C49.6578889,38.41567 49.3724444,39.3402359 48.9975556,40.2258726 C48.6300556,41.0947699 48.1746667,41.931356 47.6473333,42.716945 C47.1227222,43.4924124 46.5222778,44.221165 45.8588333,44.8849059 C45.2261111,45.5198394 44.5288333,46.0932648 43.7930556,46.6009001 C43.55,45.2457786 42.7205,41.1636744 40.9374444,36.2504342 C43.5702222,35.8280535 46.0093333,36.0258133 47.7332778,36.3096064 C47.7363889,36.3103849 47.7395,36.3107742 47.7422222,36.3111635 C48.4134444,36.4221114 48.9715,36.5455166 49.3934444,36.6506252 C49.4237778,36.658411 49.4525556,36.6654182 49.4813333,36.6728148 C49.6664444,36.719919 49.8317222,36.7646874 49.9530556,36.7997236 C49.9184444,37.0235658 49.8962778,37.2505224 49.8515556,37.4720289 M41.2018889,48.0295977 C40.3198889,48.4033169 39.3935556,48.6906136 38.4505,48.8844805 C37.488,49.0799045 36.4951667,49.1818987 35.5,49.1818987 C34.5048333,49.1818987 33.5123889,49.0799045 32.5467778,48.8844805 C31.6064444,48.6906136 30.6832222,48.4033169 29.7981111,48.0295977 C28.9301111,47.6617178 28.0943889,47.2058582 27.31,46.6779797 C27.0156111,46.4786628 26.7348333,46.2579349 26.4552222,46.0368177 C26.5287222,45.9005658 26.6457778,45.7004703 26.7822778,45.4789638 C26.8052222,45.4415919 26.8250556,45.4077236 26.8499444,45.3684052 C26.9957778,45.1375557 27.1812778,44.8650521 27.3936111,44.5707482 C27.4344444,44.5146903 27.4768333,44.4570753 27.52,44.3990709 C27.7498333,44.0895847 28.0142778,43.7547945 28.3195556,43.3993719 C28.3646667,43.3472069 28.4156111,43.2923169 28.4622778,43.2389841 C28.7971111,42.8582576 29.1653889,42.4615702 29.592,42.0512576 C29.592,42.0508683 29.5923889,42.0508683 29.5923889,42.0508683 C30.0092778,41.6495094 30.4868333,41.2380289 30.9974444,40.8269378 C31.0748333,40.7646512 31.1479444,40.7023647 31.2276667,40.6400781 C31.7316667,40.2461158 32.2885556,39.8548784 32.8847222,39.4710376 C32.9971111,39.3986295 33.1118333,39.3266107 33.2277222,39.2553705 C33.8464444,38.8726975 34.5098889,38.5005355 35.2289444,38.1474486 C35.3366667,38.0948944 35.4521667,38.0450651 35.5622222,37.9929001 C36.3361111,37.6277453 37.1523889,37.2777728 38.0448889,36.9667294 C38.0767778,36.9558292 38.1082778,36.9484327 38.1401667,36.9375326 C40.1021111,42.0423039 40.9938333,46.3739436 41.2827778,47.9906686 C41.2551667,48.0027366 41.2295,48.0183082 41.2018889,48.0295977 M25.7466667,42.5234674 C25.4888333,42.8578683 25.2644444,43.1619045 25.0805,43.4266223 C25.0466667,43.4745051 25.0248889,43.5072055 24.9937778,43.5527525 C24.8183889,43.8081274 24.6698333,44.0335268 24.5706667,44.1911896 C24.1479444,43.7131404 23.7112222,43.2444342 23.3526667,42.716945 C22.8253333,41.931356 22.3703333,41.0947699 22.0024444,40.2258726 C21.6279444,39.3402359 21.3409444,38.41567 21.1484444,37.4720289 C20.9536111,36.5081447 20.8517222,35.5146744 20.8517222,34.518479 C20.8517222,34.3608162 20.8703889,34.2043213 20.8754444,34.047437 C21.0593889,34.0486049 21.3300556,34.047437 21.6652778,34.0427656 L21.6660556,34.0427656 C24.0219444,34.0077294 29.8583889,33.718097 35.9048333,31.9078944 C36.3365,32.7538234 36.7339444,33.6129884 37.1127222,34.4698177 C36.9206111,34.5243184 36.7257778,34.5714226 36.5363889,34.6329305 C35.7243889,34.8957019 34.9637222,35.215699 34.2322222,35.5606107 C34.128,35.6100507 34.0210556,35.6548191 33.918,35.7054269 C33.2347222,36.0421635 32.5922778,36.4092648 31.9817222,36.7958307 C31.867,36.8686281 31.755,36.9402576 31.6426111,37.0142229 C31.0495556,37.4054602 30.4887778,37.8095441 29.9680556,38.2249175 C29.8848333,38.291097 29.8093889,38.3564978 29.7281111,38.4230666 C29.1976667,38.8582938 28.6944444,39.2978032 28.2425556,39.7334197 L28.2421667,39.7341983 C27.7797778,40.1799363 27.3698889,40.6151635 26.9899444,41.0367656 C26.9362778,41.0967164 26.8810556,41.15511 26.8289444,41.2142822 C26.4793333,41.6094124 26.1725,41.9811852 25.8975556,42.3303792 C25.8442778,42.3977265 25.7968333,42.4584559 25.7466667,42.5234674 M22.0024444,28.8103068 C22.3703333,27.9414096 22.8253333,27.1052127 23.3526667,26.3196237 C23.88,25.5414313 24.4781111,24.8122894 25.1438889,24.1485485 C25.8069444,23.4848075 26.5349444,22.8833531 27.31,22.3581997 C27.9423333,21.9311476 28.6182222,21.5663821 29.3108333,21.2421027 C29.9832222,22.1678365 32.3877222,25.5445456 34.6705,29.6060174 C34.2081111,29.728644 33.7492222,29.8430955 33.2957778,29.9501505 L33.2957778,29.9501505 C33.2946111,29.9501505 33.2934444,29.9505398 33.2922778,29.9509291 C29.6297222,30.8143763 26.3144444,31.1775847 24.0308889,31.3290188 C24.0289444,31.3294081 24.0266111,31.3294081 24.0246667,31.3294081 C23.1166111,31.3893589 22.3730556,31.4158307 21.8352222,31.4271201 C21.829,31.4271201 21.8227778,31.4275094 21.8165556,31.4275094 C21.5532778,31.4329595 21.3378333,31.4349059 21.1811111,31.4349059 C21.3728333,30.5379797 21.6450556,29.6562359 22.0024444,28.8103068 M32.5467778,20.151699 C33.5123889,19.9539392 34.5048333,19.85467 35.5,19.85467 C36.4951667,19.85467 37.488,19.9539392 38.4505,20.151699 C39.3935556,20.3459551 40.3167778,20.6316946 41.2018889,21.0065818 C42.0698889,21.3748509 42.9083333,21.8303213 43.69,22.3581997 C44.2146111,22.7140116 44.6816667,23.1492388 45.1584444,23.5704515 C44.6031111,24.2789609 42.8091667,26.2982127 39.2216667,27.9807279 C39.2119444,27.9853994 39.2018333,27.9900709 39.1917222,27.9947424 C38.6815,28.2329884 38.1358889,28.4650058 37.5513889,28.6849551 C35.3160556,24.5779363 32.8952222,21.2164096 32.1777222,20.2470753 C32.3013889,20.2182677 32.4223333,20.1777815 32.5467778,20.151699 M51.6245,27.6981027 C51.1846667,26.6606425 50.6417778,25.6586078 50.0113889,24.7204168 C49.3837222,23.7950724 48.6638889,22.9230608 47.8752222,22.1304645 C47.0834444,21.3394255 46.2123333,20.6204052 45.2879444,19.9920897 C44.3503333,19.359492 43.3493333,18.8172098 42.3133333,18.3773111 C41.254,17.9300159 40.1499444,17.5874399 39.0245,17.3554226 C37.8710556,17.119123 36.6865,17 35.5,17 C34.3138889,17 33.1289444,17.119123 31.9755,17.3554226 C30.8500556,17.5874399 29.7444444,17.9300159 28.6870556,18.3773111 C27.6506667,18.8172098 26.6496667,19.359492 25.7124444,19.9920897 C24.7876667,20.6204052 23.9169444,21.3394255 23.1251667,22.1304645 C22.3361111,22.9230608 21.6166667,23.7950724 20.989,24.7204168 C20.3582222,25.6586078 19.8153333,26.6606425 19.3755,27.6981027 C18.9290556,28.7565847 18.5868333,29.8633386 18.3562222,30.9899465 C18.119,32.1449725 18,33.3307525 18,34.518479 C18,35.7054269 18.119,36.8915962 18.3562222,38.0466223 C18.5868333,39.1732301 18.9290556,40.2799841 19.3755,41.335741 C19.8153333,42.3759262 20.3582222,43.3775716 20.989,44.316152 C21.6166667,45.2414964 22.3361111,46.113508 23.1251667,46.9061042 C23.9169444,47.6955861 24.7876667,48.4161635 25.7124444,49.041754 C26.6496667,49.6759088 27.6506667,50.2193589 28.6870556,50.6592576 C29.7444444,51.1065528 30.8500556,51.4491288 31.9755,51.679589 C33.1289444,51.9174457 34.3138889,52.0361795 35.5,52.0361795 C36.6865,52.0361795 37.8710556,51.9174457 39.0245,51.679589 C40.1499444,51.4491288 41.254,51.1065528 42.3133333,50.6592576 C43.3493333,50.2193589 44.3503333,49.6759088 45.2879444,49.041754 C46.2123333,48.4161635 47.0834444,47.6955861 47.8752222,46.9061042 C48.6638889,46.113508 49.3837222,45.2414964 50.0113889,44.316152 C50.6417778,43.3775716 51.1846667,42.3759262 51.6245,41.335741 C52.0697778,40.2799841 52.4131667,39.1732301 52.6437778,38.0466223 C52.8813889,36.8915962 53,35.7054269 53,34.518479 C53,33.3307525 52.8813889,32.1449725 52.6437778,30.9899465 C52.4131667,29.8633386 52.0697778,28.7565847 51.6245,27.6981027" id="Fill-30" fill="#FFFFFF"></path>
                </g>
            </g>
        </g>
    </g>
</svg>