<?xml version="1.0" encoding="UTF-8"?>
<svg width="70px" height="70px" viewBox="0 0 70 70" version="1.1" xmlns="http://www.w3.org/2000/svg" xmlns:xlink="http://www.w3.org/1999/xlink">
    <!-- Generator: Sketch 46.2 (44496) - http://www.bohemiancoding.com/sketch -->
    <title>Dropbox</title>
    <desc>Created with Sketch.</desc>
    <defs></defs>
    <g id="Icons" stroke="none" stroke-width="1" fill="none" fill-rule="evenodd">
        <g transform="translate(-289.000000, -176.000000)" id="Icon-Set">
            <g transform="translate(69.000000, 66.000000)">
                <g id="Dropbox" transform="translate(220.000000, 110.000000)">
                    <circle id="Oval-1-Copy-11" fill="#007EE5" cx="35" cy="35" r="35"></circle>
                    <path d="M35.4916978,37.8547658 L29.0712778,43.1586136 L18.7871111,36.4682605 L25.1295,31.3993039 L18,25.4513285 L28.4066667,19 L35.25,24.4957242 L42.0933333,19 L52.5,25.4513285 L45.6127386,31.1938263 L51.7148333,36.0685673 L41.4291111,42.7593097 L35.4916978,37.8547658 Z M35.4327441,37.8060677 L35,37.4486035 L45.055483,31.19565 L35.2500119,24.8580836 L25.1322222,31.398136 L35.4327441,37.8060677 Z M46.0266667,44.6823025 L35.0133333,51.5844298 L24,44.6834703 L24,43.0398842 L28.2754444,45.8248712 C28.4111667,45.9132402 28.5651667,45.9556729 28.7211111,45.9556729 C28.9046667,45.9556729 29.0909444,45.8898828 29.2402778,45.7664776 L35.0133333,41 L40.7863889,45.7641418 C40.9361111,45.8898828 41.1196667,45.9537265 41.3055556,45.9537265 C41.4615,45.9537265 41.6155,45.9112938 41.7508333,45.8229247 L46.0266667,43.0379378 L46.0266667,44.6823025 Z" id="Combined-Shape" fill="#FFFFFF"></path>
                </g>
            </g>
        </g>
    </g>
</svg>