<?xml version="1.0" encoding="UTF-8"?>
<svg width="70px" height="70px" viewBox="0 0 70 70" version="1.1" xmlns="http://www.w3.org/2000/svg" xmlns:xlink="http://www.w3.org/1999/xlink">
    <!-- Generator: Sketch 46.2 (44496) - http://www.bohemiancoding.com/sketch -->
    <title>Drupal</title>
    <desc>Created with Sketch.</desc>
    <defs></defs>
    <g id="Icons" stroke="none" stroke-width="1" fill="none" fill-rule="evenodd">
        <g transform="translate(-1059.000000, -835.000000)" id="Icon-Set">
            <g transform="translate(69.000000, 66.000000)">
                <g id="Drupal" transform="translate(990.000000, 769.000000)">
                    <circle id="Oval-1-Copy-59" fill="#0077C0" cx="35" cy="35" r="35"></circle>
                    <path d="M34.0556931,18.01609 C33.9543009,19.7414573 33.2408235,21.5209834 31.6875948,22.4212796 C29.4351126,23.9995972 26.7091351,24.8749289 24.76875,26.8997038 C20.523673,30.7395024 18.9294727,37.1023697 20.7360367,42.5120261 C22.7850296,49.0218602 29.6259953,53.4444668 36.3829858,52.9571209 C42.3101777,52.7232346 48.0393128,48.7660782 49.8349704,43.0238389 C51.7344254,37.2821801 50.0564159,30.49641 45.4931457,26.4683827 C43.499846,24.4889336 40.849218,23.4865818 38.393122,22.2443306 C36.6146742,21.2421445 35.3834538,19.5169017 34.0556517,18.0160486 L34.0556931,18.01609 Z M32.2295142,38.0223637 C35.251955,37.9609893 37.4246505,40.3107583 39.899532,41.6514159 C41.4698874,42.425231 42.9165403,40.9651007 44.1760427,40.2162915 C45.454372,39.4297867 47.115628,37.8253436 48.6354325,38.9995853 C50.1300652,40.5412855 49.5013092,42.9703851 48.8055806,44.7397512 C48.2734479,46.1827547 46.4306398,47.9876185 45.0382287,46.3679562 C43.6877014,45.2798874 42.7101481,43.5342002 40.9545912,43.0755095 C38.9271623,43.3606931 37.3477666,44.8644905 35.5548874,45.7529265 C33.5121149,46.9960486 30.9231931,47.6688863 28.6354206,46.7111552 C26.1570557,45.5877547 26.1146327,42.0291173 27.7595912,40.1751955 C28.8325652,38.8393898 30.5170438,38.0320675 32.2294727,38.0223223 L32.2295142,38.0223637 Z M39.8120735,45.4322867 C41.0732346,45.0291232 43.1461967,46.3795261 42.2011137,47.6233531 C41.5044313,46.8279739 40.1359479,45.7980865 38.7902725,46.638045 C38.278128,47.0022275 36.6382287,48.520622 36.9937026,46.9885427 C37.7384064,46.2192891 38.6709656,45.3979917 39.8121149,45.4322038 L39.8120735,45.4322867 Z M43.0110071,49.0312322 C43.7407405,50.346096 40.9047867,50.9099526 39.9111019,51.1861374 C37.8658412,51.3911197 35.4913152,51.5766943 33.8128495,50.1499467 C33.5271268,48.2068661 35.7369372,50.2063448 36.7176836,50.1329443 C38.8519372,50.4222749 41.1698164,50.2348756 43.0110486,49.0312322 L43.0110071,49.0312322 Z" id="Shape" fill="#FFFFFF"></path>
                </g>
            </g>
        </g>
    </g>
</svg>