<?xml version="1.0" encoding="UTF-8"?>
<svg width="70px" height="70px" viewBox="0 0 70 70" version="1.1" xmlns="http://www.w3.org/2000/svg" xmlns:xlink="http://www.w3.org/1999/xlink">
    <!-- Generator: Sketch 46.2 (44496) - http://www.bohemiancoding.com/sketch -->
    <title>Ebay</title>
    <desc>Created with Sketch.</desc>
    <defs></defs>
    <g id="Icons" stroke="none" stroke-width="1" fill="none" fill-rule="evenodd">
        <g transform="translate(-69.000000, -176.000000)" id="Icon-Set">
            <g transform="translate(69.000000, 66.000000)">
                <g id="Ebay" transform="translate(0.000000, 110.000000)">
                    <circle id="Oval-1-Copy-9" fill="#0067B2" cx="35" cy="35" r="35"></circle>
                    <g id="Group" transform="translate(14.000000, 27.000000)" fill="#FFFFFF">
                        <path d="M29.7254322,8.78127957 C29.7254322,8.78127957 30.1140711,12.1673039 26.3051266,12.1186147 C26.3051266,12.1186147 24.1820155,12.1209782 24.0573489,10.4546742 C23.9246544,8.67681058 27.3241822,8.78364312 27.3241822,8.78364312 L29.7254322,8.78127957 Z M21.9059044,9.84015077 C21.47571,12.5965249 23.9803766,13.456385 25.9400989,13.4455127 C27.8998211,13.4346403 29.0175711,12.8584064 29.84821,11.8250616 L29.9369877,13.1079975 L31.8858489,13.0971251 C31.8858489,13.0971251 31.8353211,12.3795508 31.84146,10.9604743 C31.8466544,9.54139782 31.8891544,8.27406135 31.84146,7.38063878 C31.7857377,6.34398496 31.8858489,3.84287446 27.3241822,3.65804471 C27.3241822,3.65804471 22.95046,3.26616782 22.4966544,6.46358068 L24.7330989,6.46358068 C24.7330989,6.46358068 24.9068766,4.99865128 27.1763766,5.04072251 C29.3245155,5.08090289 29.7155155,6.11566586 29.7046544,7.38820214 C29.7046544,7.38820214 27.86346,7.39292925 27.2490989,7.39623822 C26.14221,7.40143803 22.2676266,7.52197917 21.9059044,9.84015077 L21.9059044,9.84015077 Z" id="Fill-164"></path>
                        <path d="M5.38281911,5.01655361 C8.39465245,5.01560819 8.39465245,7.64813217 8.39465245,7.64813217 L2.20948578,7.64813217 C2.20948578,7.64813217 2.35965245,5.01749903 5.38281911,5.01655361 M5.30584689,13.4010172 C10.0847358,13.4010172 10.3199024,10.4531954 10.3199024,10.4531954 L8.12123578,10.4579225 C8.12123578,10.4579225 7.69340245,12.0816826 5.31481911,12.0381933 C2.25765245,11.9824134 2.13912467,9.07288119 2.13912467,9.07288119 L10.6089024,9.07288119 C10.6089024,9.07288119 10.6169302,9.0005565 10.6230691,8.8771791 L10.6211802,8.28676386 C10.5456247,6.78259951 9.85901356,3.64380273 5.43476356,3.64285731 C0.179402447,3.64191189 -0.0250697754,7.65994993 0.00184689122,8.70322169 C0.00184689122,8.70322169 -0.25551422,13.4010172 5.30584689,13.4010172" id="Fill-161"></path>
                        <path d="M16.3926548,5.06036438 C19.7917103,4.97338567 19.6807381,8.60569206 19.6807381,8.60569206 C19.6807381,8.60569206 19.7350437,11.9680808 16.3978492,12.0096793 C13.061127,12.0508051 13.1154325,8.53336738 13.1154325,8.53336738 C13.1154325,8.53336738 12.9935992,5.14734308 16.3926548,5.06036438 M11.0149881,8.88837286 L11.0215992,10.970662 C11.0215992,10.970662 11.0088492,12.2488708 10.9285714,13.0931315 L12.9860437,13.0931315 L13.0748214,11.8607756 C13.0748214,11.8607756 14.034377,13.412211 16.8389048,13.412211 C19.6439048,13.412211 21.858627,11.7156535 21.9176548,8.56929336 C21.9766825,5.42293322 19.5263214,3.66823238 16.8832937,3.65405106 C14.2407381,3.63939704 13.1040992,5.19083244 13.1040992,5.19083244 L13.1040992,0 L10.9857103,0 L11.0130992,8.29795762 C11.025377,8.54707598 11.0215992,8.75081414 11.0149881,8.88837286" id="Fill-162"></path>
                        <polygon id="Fill-165" points="36.4771429 10.7741656 32.8424484 3.64285714 30.3571429 3.64285714 35.2904484 12.8228923 33.3873929 16.3554568 35.7905317 16.3554568 42.3662262 3.64285714 40.1193929 3.64285714"></polygon>
                    </g>
                </g>
            </g>
        </g>
    </g>
</svg>