<?xml version="1.0" encoding="UTF-8"?>
<svg width="70px" height="70px" viewBox="0 0 70 70" version="1.1" xmlns="http://www.w3.org/2000/svg" xmlns:xlink="http://www.w3.org/1999/xlink">
    <!-- Generator: Sketch 46.2 (44496) - http://www.bohemiancoding.com/sketch -->
    <title>Ello</title>
    <desc>Created with Sketch.</desc>
    <defs></defs>
    <g id="Icons" stroke="none" stroke-width="1" fill="none" fill-rule="evenodd">
        <g transform="translate(-1301.000000, -290.000000)" id="Icon-Set">
            <g transform="translate(69.000000, 66.000000)">
                <g id="Ello" transform="translate(1232.000000, 224.000000)">
                    <circle id="Oval-1-Copy-59" fill="#000000" cx="35" cy="35" r="35"></circle>
                    <path d="M53,35.5 C53,45.1649219 45.1646484,53 35.5,53 C25.8348047,53 18,45.1649219 18,35.5 C18,25.8350098 25.8348047,18 35.5,18 C45.1646484,18 53,25.8350098 53,35.5 L53,35.5 Z M35.5,46.0000684 C30.7158691,46.0000684 26.5389062,42.7618848 25.3431641,38.1245898 C25.2053516,37.5902246 25.5271875,37.0444434 26.0615527,36.9064941 C26.5970117,36.7681348 27.1416309,37.0905859 27.2795117,37.625498 C28.247959,41.3787012 31.6278516,44.0004883 35.5,44.0004883 C39.3715332,44.0004883 42.752041,41.3787012 43.7199414,37.625498 C43.8577539,37.0905859 44.4018262,36.7675195 44.9379004,36.9064941 C45.4728125,37.0444434 45.7946484,37.5902246 45.6562207,38.1245898 C44.4604785,42.7618848 40.2841992,46.0000684 35.5,46.0000684 L35.5,46.0000684 Z" id="Shape" fill="#FFFFFF"></path>
                </g>
            </g>
        </g>
    </g>
</svg>