<?xml version="1.0" encoding="UTF-8"?>
<svg width="70px" height="70px" viewBox="0 0 70 70" version="1.1" xmlns="http://www.w3.org/2000/svg" xmlns:xlink="http://www.w3.org/1999/xlink">
    <!-- Generator: Sketch 46.2 (44496) - http://www.bohemiancoding.com/sketch -->
    <title>Envato</title>
    <desc>Created with Sketch.</desc>
    <defs></defs>
    <g id="Icons" stroke="none" stroke-width="1" fill="none" fill-rule="evenodd">
        <g transform="translate(-1301.000000, -508.000000)" id="Icon-Set">
            <g transform="translate(69.000000, 66.000000)">
                <g id="Envato" transform="translate(1232.000000, 442.000000)">
                    <circle id="Oval-1-Copy-59" fill="#82B541" cx="35" cy="35" r="35"></circle>
                    <path d="M46.1359645,18.2694306 C45.1102076,17.7000896 42.1698232,18.05212 38.6383031,19.1453007 C32.457633,23.3700479 27.2412866,29.5941801 26.8772755,39.5890653 C26.8109989,39.8280432 26.2013822,39.5565643 26.0808099,39.4826405 C24.411788,36.2836501 23.7505521,32.9151448 25.1441439,28.0557996 C25.4038969,27.6233451 24.554665,27.0909661 24.401974,27.2430197 C24.0960823,27.5494213 22.8208961,28.9078355 21.9739583,30.3768806 C17.7758491,37.6593982 20.5212275,46.9906258 27.8660705,51.0742805 C35.2093841,55.1643079 44.4823648,52.5259917 48.5711177,45.1805114 C53.3013511,36.7024669 48.9091281,19.8182625 46.136092,18.2696855 L46.1359645,18.2694306 L46.1359645,18.2694306 Z" id="Shape" fill="#FFFFFF"></path>
                </g>
            </g>
        </g>
    </g>
</svg>