<?xml version="1.0" encoding="UTF-8"?>
<svg width="70px" height="70px" viewBox="0 0 70 70" version="1.1" xmlns="http://www.w3.org/2000/svg" xmlns:xlink="http://www.w3.org/1999/xlink">
    <!-- Generator: Sketch 46.2 (44496) - http://www.bohemiancoding.com/sketch -->
    <title>Etsy</title>
    <desc>Created with Sketch.</desc>
    <defs></defs>
    <g id="Icons" stroke="none" stroke-width="1" fill="none" fill-rule="evenodd">
        <g transform="translate(-1059.000000, -399.000000)" id="Icon-Set">
            <g transform="translate(69.000000, 66.000000)">
                <g id="Etsy" transform="translate(990.000000, 333.000000)">
                    <circle id="Oval-1-Copy-38" fill="#D5641C" cx="35" cy="35" r="35"></circle>
                    <g id="Group-33" transform="translate(15.000000, 25.000000)" fill="#FFFFFF">
                        <path d="M21.3973736,15.23662 C21.6752131,15.23662 21.8437316,14.8689564 22.2801514,14.8689564 C22.7165711,14.8689564 23.7082378,15.1873099 24.7694724,15.1873099 C26.0290403,15.1873099 28.171386,14.5012928 28.25046,12.3346728 C28.25046,10.0292057 25.8505835,9.42277697 24.5512625,8.85614247 C23.3150279,8.31719087 23.0436699,7.83273999 23.0436699,7.32579675 C23.0436699,6.81885351 23.4900279,6.04373211 24.6502131,6.04373211 C26.2571884,6.04373211 26.6637934,7.14672295 26.762744,7.60392346 C26.8621267,8.06112397 26.951139,8.16060942 27.1892255,8.16060942 C27.4273119,8.16060942 27.6653983,7.98153562 27.65546,7.68351182 C27.6157069,6.81885351 27.6753366,6.04373211 27.7643489,5.71586268 C27.8537934,5.3875607 27.7742872,5 27.4372502,5 C27.1002131,5 26.9809539,5.3875607 26.6737316,5.3875607 C26.3660773,5.3875607 25.6423119,5.05969127 24.7098428,5.05969127 C22.6271267,5.05969127 21.4172502,6.32185882 21.4172502,7.68351182 C21.4172502,9.04516482 22.2503366,9.84018331 24.4026205,10.6948931 C26.5544724,11.5496028 26.6439168,12.1754961 26.6439168,12.613232 C26.6439168,12.9709471 26.4356452,14.2227336 24.6407069,14.2227336 C22.4188551,14.2227336 22.1414477,12.4640039 22.151386,11.8476266 C22.1613242,11.2316819 21.3083613,11.3207863 21.1990403,11.9570606 C21.0901514,12.5929024 21.2785465,13.3585078 21.2785465,13.6863772 C21.2785465,14.0142467 21.1394107,14.2625277 21.0305218,14.5908297 C20.9212008,14.9186991 21.1199662,15.23662 21.3973736,15.23662" id="Fill-83"></path>
                        <path d="M39.679321,5.02032963 C39.4265432,5.02032963 38.5230247,5.07093745 37.745679,5.07093745 C36.9679012,5.07093745 35.9187654,5 35.7437654,5 C35.5687654,5 35.5298765,5.12154526 35.5298765,5.34387361 C35.5298765,5.77901431 35.7048765,5.75868468 36.0544444,5.82962213 C36.4044444,5.90012703 36.822284,6.18344428 36.822284,6.60820389 C36.822284,7.0329635 36.5889506,7.98369834 36.21,8.74195047 C35.8310494,9.50063515 34.5680247,12.2005837 34.5680247,12.2005837 C34.5680247,12.2005837 32.955,8.34790159 32.7311728,7.71032963 C32.5285185,7.13158386 32.3911111,6.98235568 32.3911111,6.4464319 C32.3911111,5.91050812 32.9740123,5.79934395 33.2851235,5.79934395 C33.5962346,5.79934395 33.5767901,5.54630487 33.5767901,5.39491397 C33.5767901,5.24309053 33.6256173,5.02032963 33.4501852,5.02032963 C33.2077778,5.02032963 32.0121605,5.0609889 31.3609877,5.0609889 C30.7102469,5.0609889 29.4757407,5.02032963 29.2428395,5.02032963 C29.0095062,5.02032963 29,5.12154526 29,5.33392507 C29,5.67779868 29.0384568,5.74873613 29.2329012,5.78896286 C29.6412346,5.83957067 30.282037,6.12202283 30.5253086,6.66876025 C31.2378395,8.27004342 32.2225926,10.9669641 32.5466667,11.8973694 C32.7644444,12.52283 33.3240123,13.9100032 33.265679,14.4762052 C32.8772222,16.9438768 31.4970988,18.3193713 30.9530864,18.3193713 C30.6908025,18.3193713 30.5447531,18.0460026 30.0007407,18.0460026 C29.1845062,18.0460026 29.0095062,18.5719778 29.0095062,18.8955218 C29.0095062,19.2194983 29.2912346,19.8665863 30.0102469,19.8566377 C31.3903704,19.8566377 32.7117284,18.2890931 33.4117284,16.8530423 C34.762037,14.122383 36.6278395,9.92539476 37.570679,7.84182344 C38.5135185,5.75868468 39.417037,5.79934395 39.6209877,5.76863322 C39.8249383,5.73835504 39.8443827,5.56663451 39.8443827,5.39491397 C39.8443827,5.22276089 39.9126543,5.02032963 39.679321,5.02032963" id="Fill-84"></path>
                        <path d="M0.44117284,13.9249349 C0.131358025,13.9249349 0,14.1022785 0,14.3388808 C0,14.5754832 0.0747530864,14.6836196 0.44117284,14.6836196 C1.42722222,14.6836196 7.32493827,14.6442579 9.03432099,14.6442579 C10.7437037,14.6442579 10.5795062,14.8523123 10.9688272,14.8523123 C11.4294444,14.8523123 11.3158025,14.1533189 11.3158025,13.630804 C11.3158025,13.0062084 11.7297531,12.0329812 11.7578395,11.5796736 C11.7954321,10.6038511 10.9217284,10.5939026 10.8469753,11.0177971 C10.6870988,11.9343608 10.5462346,12.4958048 10.0765432,12.8998022 C8.98722222,13.7969014 6.60203704,13.6489709 5.28716049,13.6489709 C3.97228395,13.6489709 3.77524691,12.9196993 3.77524691,12.2397379 L3.77524691,8.30746744 C3.77524691,7.75597202 3.93469136,7.56867985 4.25401235,7.56867985 L7.18407407,7.56867985 C8.63030864,7.56867985 8.80876543,8.46534652 8.93104938,8.99737739 C9.05290123,9.52984081 9.67296296,9.41132336 9.67296296,8.91865412 C9.67296296,8.42598489 9.54117284,7.75597202 9.54117284,7.07557807 C9.54117284,6.39561666 9.63537037,5.89343142 9.67296296,5.42022672 C9.71055556,4.94702203 9.49450617,4.74978132 9.25987654,4.74978132 C9.02481481,4.74978132 8.89345679,4.7696784 8.86537037,5.27229619 C8.79018519,6.21827303 8.14203704,6.58290883 7.50339506,6.58290883 L4.20734568,6.58290883 C3.90660494,6.58290883 3.79382716,6.46482393 3.79382716,6.0703425 C3.79382716,5.67629362 3.77524691,3.13379161 3.77524691,2.36515839 C3.77524691,1.59652516 3.83141975,1.32056118 6.13234568,1.32056118 C10.6495062,1.32056118 10.189321,2.27648657 10.2083333,2.93655089 C10.2178395,3.2812896 10.3301852,3.35049686 10.508642,3.35049686 C10.6870988,3.35049686 11.0159259,3.21251487 11.0159259,2.80851745 C11.0159259,2.40452002 10.9126543,1.91185078 10.9126543,1.44859463 C10.9126543,0.985338479 11.0816049,0.63065123 11.0816049,0.463256151 C11.0816049,0.295428525 11.0064198,0.00994854478 10.6495062,0 C10.0108642,0 9.11858025,0.315325615 5.39993827,0.315325615 C3.6062963,0.315325615 0.938950617,0.226653803 0.675802469,0.226653803 C0.41308642,0.226653803 0.338765432,0.394481428 0.347407407,0.601238141 C0.356481481,0.827891944 0.328395062,1.02470011 0.760493827,1.06449429 C1.86882716,1.18257919 2.0658642,2.12855604 2.0658642,3.07453288 L2.0658642,12.1904277 C2.0658642,13.9443994 0.751419753,13.9249349 0.44117284,13.9249349" id="Fill-81"></path>
                        <path d="M15.5653704,3.34115827 C14.9241358,5.05101034 14.1658025,5.7733612 13.5051235,6.02034464 C13.1555556,6.13410409 13,6.25478426 13,6.53939915 C13,6.71674277 13.087284,6.95118239 13.5440123,6.96069839 C14.097963,6.96069839 14.5935802,7.48321327 14.5935802,7.8539047 C14.5935802,8.22416358 14.5257407,10.9033499 14.5062963,12.5089586 C14.4868519,14.1145672 15.4391975,15.0739529 16.7605556,15.0739529 C18.0823457,15.0739529 19.0053086,14.0955352 19.2675926,13.7629078 C19.5303086,13.4302803 19.0053086,13.0219574 18.7719753,13.1928129 C18.4224074,13.4302803 18.0434568,13.6110843 17.5767901,13.6110843 C16.7704938,13.6110843 16.167716,13.2118449 16.167716,11.4924768 L16.167716,6.72323096 L18.9958025,6.72323096 C19.238642,6.72323096 19.3164198,6.50479552 19.3164198,6.23878008 C19.3164198,5.97276464 19.2675926,5.64013721 18.9858642,5.64013721 L16.167716,5.64013721 C16.167716,5.06052634 16.294321,4.04404459 16.3816049,3.49298172 C16.4688889,2.94191885 15.769321,2.7996114 15.5653704,3.34115827" id="Fill-82"></path>
                    </g>
                </g>
            </g>
        </g>
    </g>
</svg>