<?xml version="1.0" encoding="UTF-8"?>
<svg width="70px" height="70px" viewBox="0 0 70 70" version="1.1" xmlns="http://www.w3.org/2000/svg" xmlns:xlink="http://www.w3.org/1999/xlink">
    <!-- Generator: Sketch 46.2 (44496) - http://www.bohemiancoding.com/sketch -->
    <title>Evernote</title>
    <desc>Created with Sketch.</desc>
    <defs></defs>
    <g id="Icons" stroke="none" stroke-width="1" fill="none" fill-rule="evenodd">
        <g transform="translate(-69.000000, -399.000000)" id="Icon-Set">
            <g transform="translate(69.000000, 66.000000)">
                <g id="Evernote" transform="translate(0.000000, 333.000000)">
                    <circle id="Oval-1-Copy-29" fill="#7AC142" cx="35" cy="35" r="35"></circle>
                    <g id="Group-14" transform="translate(20.000000, 17.000000)" fill="#FFFFFF">
                        <polygon id="Fill-150" points="8.01244444 6.77357308 8.0105 1 1 8.15867004 6.59533333 8.1648987"></polygon>
                        <path d="M21.7019444,14.633055 C22.9802222,14.633055 24.7364444,17.6212518 24.7364444,17.6212518 C24.7364444,17.6212518 20.7308889,16.870699 20.0938889,16.870699 C20.0938889,16.870699 20.4236667,14.633055 21.7019444,14.633055 M6.36144444,26.0061881 C12.9126667,27.0362518 14.0346111,23.9464501 14.0346111,23.5746773 C14.0346111,22.0097279 14.0735,19.6385572 14.0735,19.6385572 C14.0735,19.6385572 15.9918889,23.3586208 18.8891111,23.3586208 C21.7859444,23.3586208 23.4706111,25.047754 23.4706111,26.7871056 L23.4706111,30.0053734 C23.4706111,30.0053734 23.3625,32.0199537 21.6599444,32.0199537 L18.0246111,32.0199537 C18.0246111,32.0199537 16.8311111,31.0767019 16.8311111,29.7721881 C16.8311111,28.4680637 17.4144444,28.113809 18.0953889,28.113809 C18.7767222,28.113809 19.3355556,28.1940029 19.3355556,28.1940029 L19.3355556,25.4502808 C19.3355556,25.4502808 13.8495,25.4140767 13.8495,29.6779797 C13.8495,33.9407149 16.7183333,35.0361795 19.019,35.0361795 L22.7667222,35.0361795 C22.7667222,35.0361795 29.5341667,34.1528784 29.5341667,20.5837554 C29.5341667,7.01346454 27.4205556,5.75099421 26.824,4.70691606 C26.2270556,3.6636165 23.1073889,2.46148625 21.4876667,2.46148625 L17.3145,2.46148625 C17.3145,2.46148625 15.9755556,0 12.8251667,0 C9.67283333,0 9.88438889,1.4259725 9.88438889,2.64367438 L9.88438889,7.5662576 L8.456,9.09694935 L1.85888889,9.09694935 C1.85888889,9.09694935 0,10.3446266 0,13.0416339 C0,15.7390304 0.824833333,25.1369016 6.36144444,26.0061881" id="Fill-151"></path>
                    </g>
                </g>
            </g>
        </g>
    </g>
</svg>