<?xml version="1.0" encoding="UTF-8"?>
<svg width="70px" height="70px" viewBox="0 0 70 70" version="1.1" xmlns="http://www.w3.org/2000/svg" xmlns:xlink="http://www.w3.org/1999/xlink">
    <!-- Generator: Sketch 46.2 (44496) - http://www.bohemiancoding.com/sketch -->
    <title>Fitbit</title>
    <desc>Created with Sketch.</desc>
    <defs></defs>
    <g id="Icons" stroke="none" stroke-width="1" fill="none" fill-rule="evenodd">
        <g transform="translate(-1180.000000, -399.000000)" id="Icon-Set">
            <g transform="translate(69.000000, 66.000000)">
                <g id="Fitbit" transform="translate(1111.000000, 333.000000)">
                    <circle id="Oval-1-Copy-59" fill="#14B2BD" cx="35" cy="35" r="35"></circle>
                    <path d="M33.7276303,52.2428712 C33.245821,51.7610619 32.9705015,51.107178 32.9705015,50.453294 C32.9705015,49.79941 33.245821,49.1455261 33.7276303,48.6637168 C34.2094395,48.1819076 34.8633235,47.906588 35.5172075,47.906588 C36.1710914,47.906588 36.8249754,48.1819076 37.3067847,48.6637168 C37.7885939,49.1455261 38.0639135,49.79941 38.0639135,50.453294 C38.0639135,51.107178 37.7885939,51.7610619 37.3067847,52.2428712 C36.8249754,52.7246804 36.1710914,53 35.5172075,53 C34.8289086,53 34.1750246,52.7246804 33.7276303,52.2428712 Z M33.7276303,37.2723697 C33.245821,36.7905605 32.9705015,36.1366765 32.9705015,35.4827925 C32.9705015,34.8289086 33.245821,34.1750246 33.7276303,33.6932153 C34.2094395,33.2114061 34.8633235,32.9360865 35.5172075,32.9360865 C36.1710914,32.9360865 36.8249754,33.2114061 37.3067847,33.6932153 C37.7885939,34.1750246 38.0639135,34.8289086 38.0639135,35.4827925 C38.0639135,36.1366765 37.7885939,36.7905605 37.3067847,37.2723697 C36.8249754,37.754179 36.1710914,38.0294985 35.5172075,38.0294985 C34.8289086,37.9950836 34.1750246,37.754179 33.7276303,37.2723697 Z M33.7276303,22.3018682 C33.245821,21.820059 32.9705015,21.166175 32.9705015,20.5122911 C32.9705015,19.8584071 33.245821,19.2045231 33.7276303,18.7227139 C34.2094395,18.2409046 34.8633235,18 35.5172075,18 C36.1710914,18 36.8249754,18.2753196 37.3067847,18.7227139 C37.7885939,19.2045231 38.0639135,19.8584071 38.0639135,20.5122911 C38.0639135,21.166175 37.7885939,21.820059 37.3067847,22.3018682 C36.8249754,22.7836775 36.1710914,23.0589971 35.5172075,23.0589971 C34.8289086,23.0245821 34.1750246,22.7492625 33.7276303,22.3018682 Z M33.6588004,29.7010816 C33.2114061,29.2192724 32.9705015,28.5653884 32.9705015,27.8770895 C33.0049164,27.1887906 33.280236,26.5693215 33.7964602,26.1219272 C34.2782694,25.6745329 34.9321534,25.4336283 35.6204523,25.4680433 C36.2743363,25.5024582 36.9282203,25.7777778 37.3756146,26.259587 C37.8230088,26.7413963 38.0639135,27.3952802 38.0639135,28.0835792 C38.0294985,28.7374631 37.754179,29.3913471 37.2379548,29.8387414 C36.7561455,30.2861357 36.1022616,30.5270403 35.4139626,30.5270403 C34.7256637,30.4926254 34.1061947,30.1828909 33.6588004,29.7010816 Z M33.7276303,44.740413 C33.245821,44.2586037 32.9705015,43.6047198 32.9705015,42.9508358 C32.9705015,42.2969518 33.245821,41.6430678 33.7276303,41.1612586 C34.2094395,40.6794494 34.8633235,40.4041298 35.5172075,40.4041298 C36.1710914,40.4041298 36.8249754,40.6794494 37.3067847,41.1612586 C37.7885939,41.6430678 38.0639135,42.2969518 38.0639135,42.9508358 C38.0639135,43.6047198 37.7885939,44.2586037 37.3067847,44.740413 C36.8249754,45.2222222 36.1710914,45.4975418 35.5172075,45.4975418 C34.8289086,45.4975418 34.1750246,45.2222222 33.7276303,44.740413 Z M41.1956735,37.2723697 C40.7138643,36.7905605 40.4385447,36.1366765 40.4385447,35.4827925 C40.4385447,34.8289086 40.7138643,34.1750246 41.1956735,33.6932153 C41.6774828,33.2114061 42.3313668,32.9360865 42.9852507,32.9360865 C43.6391347,32.9360865 44.2930187,33.2114061 44.7748279,33.6932153 C45.2566372,34.1750246 45.5319567,34.8289086 45.5319567,35.4827925 C45.5319567,36.1366765 45.2566372,36.7905605 44.7748279,37.2723697 C44.2930187,37.754179 43.6391347,38.0294985 42.9852507,38.0294985 C42.3313668,37.9950836 41.6774828,37.754179 41.1956735,37.2723697 Z M41.1956735,29.7699115 C40.7138643,29.2881023 40.4385447,28.6342183 40.4385447,27.9803343 C40.4385447,27.3264503 40.7138643,26.6725664 41.1956735,26.1907571 C41.6774828,25.7089479 42.3313668,25.4680433 42.9852507,25.4680433 C43.6391347,25.4680433 44.2930187,25.7433628 44.7748279,26.1907571 C45.2566372,26.6725664 45.5319567,27.3264503 45.5319567,27.9803343 C45.5319567,28.6342183 45.2566372,29.2881023 44.7748279,29.7699115 C44.2930187,30.2517207 43.6391347,30.5270403 42.9852507,30.5270403 C42.3313668,30.5270403 41.6774828,30.2517207 41.1956735,29.7699115 Z M41.1956735,44.740413 C40.7138643,44.2586037 40.4385447,43.6047198 40.4385447,42.9508358 C40.4385447,42.2969518 40.7138643,41.6430678 41.1956735,41.1612586 C41.6774828,40.6794494 42.3313668,40.4041298 42.9852507,40.4041298 C43.6391347,40.4041298 44.2930187,40.6794494 44.7748279,41.1612586 C45.2566372,41.6430678 45.5319567,42.2969518 45.5319567,42.9508358 C45.5319567,43.6047198 45.2566372,44.2586037 44.7748279,44.740413 C44.2930187,45.2222222 43.6391347,45.4975418 42.9852507,45.4975418 C42.3313668,45.4975418 41.6774828,45.2222222 41.1956735,44.740413 Z M48.6981318,37.2723697 C48.2163225,36.7905605 47.9410029,36.1366765 47.9410029,35.4827925 C47.9410029,34.8289086 48.2163225,34.1750246 48.6981318,33.6932153 C49.179941,33.2114061 49.833825,32.9360865 50.4877089,32.9360865 C51.1415929,32.9360865 51.7954769,33.2114061 52.2772861,33.6932153 C52.7590954,34.1750246 53,34.8289086 53,35.4827925 C53,36.1366765 52.7246804,36.7905605 52.2772861,37.2723697 C51.7954769,37.754179 51.1415929,38.0294985 50.4877089,38.0294985 C49.79941,37.9950836 49.1455261,37.754179 48.6981318,37.2723697 Z M26.2251721,37.2723697 C25.7433628,36.7905605 25.4680433,36.1366765 25.4680433,35.4827925 C25.4680433,34.8289086 25.7433628,34.1750246 26.2251721,33.6932153 C26.7069813,33.2114061 27.3608653,32.9360865 28.0147493,32.9360865 C28.6686332,32.9360865 29.3225172,33.2114061 29.8043265,33.6932153 C30.2861357,34.1750246 30.5614553,34.8289086 30.5614553,35.4827925 C30.5614553,36.1366765 30.2861357,36.7905605 29.8043265,37.2723697 C29.3225172,37.754179 28.6686332,38.0294985 28.0147493,38.0294985 C27.3608653,37.9950836 26.7069813,37.754179 26.2251721,37.2723697 Z M26.2251721,29.7699115 C25.7433628,29.2881023 25.4680433,28.6342183 25.4680433,27.9803343 C25.4680433,27.3264503 25.7433628,26.6725664 26.2251721,26.1907571 C26.7069813,25.7089479 27.3608653,25.4680433 28.0147493,25.4680433 C28.6686332,25.4680433 29.3225172,25.7433628 29.8043265,26.1907571 C30.2861357,26.6725664 30.5614553,27.3264503 30.5614553,27.9803343 C30.5614553,28.6342183 30.2861357,29.2881023 29.8043265,29.7699115 C29.3225172,30.2517207 28.6686332,30.5270403 28.0147493,30.5270403 C27.3608653,30.5270403 26.7069813,30.2517207 26.2251721,29.7699115 Z M26.2251721,44.740413 C25.7433628,44.2586037 25.5024582,43.6047198 25.5024582,42.9508358 C25.5024582,42.2969518 25.7777778,41.6430678 26.2251721,41.1612586 C26.7069813,40.6794494 27.3608653,40.4041298 28.0147493,40.4041298 C28.6686332,40.4041298 29.3225172,40.6794494 29.8043265,41.1612586 C30.2861357,41.6430678 30.5614553,42.2969518 30.5614553,42.9508358 C30.5614553,43.6047198 30.2861357,44.2586037 29.8043265,44.740413 C29.3225172,45.2222222 28.6686332,45.4975418 28.0147493,45.4975418 C27.3608653,45.4975418 26.7069813,45.2222222 26.2251721,44.740413 Z M18.7571288,37.2723697 C18.2753196,36.7905605 18,36.1366765 18,35.4827925 C18,34.8289086 18.2753196,34.1750246 18.7571288,33.6932153 C19.2389381,33.2114061 19.892822,32.9360865 20.546706,32.9360865 C21.20059,32.9360865 21.8544739,33.2114061 22.3362832,33.6932153 C22.8180924,34.1750246 23.093412,34.8289086 23.093412,35.4827925 C23.093412,36.1366765 22.8180924,36.7905605 22.3362832,37.2723697 C21.8544739,37.754179 21.20059,38.0294985 20.546706,38.0294985 C19.8584071,37.9950836 19.2045231,37.754179 18.7571288,37.2723697 Z" id="Combined-Shape" fill="#FFFFFF"></path>
                </g>
            </g>
        </g>
    </g>
</svg>