<?xml version="1.0" encoding="UTF-8"?>
<svg width="70px" height="70px" viewBox="0 0 70 70" version="1.1" xmlns="http://www.w3.org/2000/svg" xmlns:xlink="http://www.w3.org/1999/xlink">
    <!-- Generator: Sketch 46.2 (44496) - http://www.bohemiancoding.com/sketch -->
    <title>Flickr</title>
    <desc>Created with Sketch.</desc>
    <defs></defs>
    <g id="Icons" stroke="none" stroke-width="1" fill="none" fill-rule="evenodd">
        <g transform="translate(-399.000000, -617.000000)" id="Icon-Set">
            <g transform="translate(69.000000, 66.000000)">
                <g id="Flickr" transform="translate(330.000000, 551.000000)">
                    <circle id="Oval-1-Copy-52" fill="#FF0084" cx="35" cy="35" r="35"></circle>
                    <g id="Group-29" transform="translate(18.000000, 27.000000)" fill="#FFFFFF">
                        <path d="M27.4666667,0 C23.3428889,0 20,3.39850941 20,7.59117221 C20,11.7834457 23.3428889,15.1823444 27.4666667,15.1823444 C31.5904444,15.1823444 34.9333333,11.7834457 34.9333333,7.59117221 C34.9333333,3.39850941 31.5904444,0 27.4666667,0" id="Fill-140"></path>
                        <path d="M7.46705556,0 C3.34327778,0 0,3.39850941 0,7.59117221 C0,11.7834457 3.34327778,15.1823444 7.46705556,15.1823444 C11.5904444,15.1823444 14.9333333,11.7834457 14.9333333,7.59117221 C14.9333333,3.39850941 11.5904444,0 7.46705556,0" id="Fill-141"></path>
                    </g>
                </g>
            </g>
        </g>
    </g>
</svg>