<?xml version="1.0" encoding="UTF-8"?>
<svg width="70px" height="70px" viewBox="0 0 70 70" version="1.1" xmlns="http://www.w3.org/2000/svg" xmlns:xlink="http://www.w3.org/1999/xlink">
    <!-- Generator: Sketch 46.2 (44496) - http://www.bohemiancoding.com/sketch -->
    <title>Foursquare</title>
    <desc>Created with Sketch.</desc>
    <defs></defs>
    <g id="Icons" stroke="none" stroke-width="1" fill="none" fill-rule="evenodd">
        <g transform="translate(-509.000000, -399.000000)" id="Icon-Set">
            <g transform="translate(69.000000, 66.000000)">
                <g id="Foursquare" transform="translate(440.000000, 333.000000)">
                    <circle id="Oval-1-Copy-33" fill="#0072B1" cx="35" cy="35" r="35"></circle>
                    <g id="Group-16" transform="translate(18.000000, 19.000000)" fill="#FFFFFF">
                        <path d="M25.22775,20.8800058 C25.22775,21.1373271 25.1285834,21.3790767 24.9485278,21.5608755 L15.8710834,30.7426903 C15.6918056,30.9244891 15.4530278,31.0245369 15.1986945,31.0245369 C14.94475,31.0245369 14.7055834,30.9244891 14.5259167,30.7419117 L5.54102782,21.6550839 C6.58675004,21.7971751 7.66475004,21.6788307 8.6708056,21.2914863 L14.6981945,26.1953835 C14.6981945,26.1953835 15.0279723,26.505259 15.3919723,26.2058944 L23.7954723,19.0328205 L24.9485278,20.1995253 C25.1285834,20.3813242 25.22775,20.6230738 25.22775,20.8800058 L25.22775,20.8800058 Z M12.4395278,13.1272779 L14.5255278,11.016932 C14.7055834,10.8351331 14.9439723,10.7346961 15.1986945,10.7346961 C15.4530278,10.7346961 15.6921945,10.8351331 15.8714723,11.016932 L19.7860278,14.9764096 L15.5311945,20.8854559 C15.1111945,21.3592229 14.7409723,21.1096874 14.59475,20.9337279 C14.5449723,20.8741664 13.5463056,19.5517453 12.2555834,17.839644 C12.8968612,16.3552779 12.9656945,14.6669233 12.4395278,13.1272779 L12.4395278,13.1272779 Z M30.2455834,0.0253039074 L20.8694723,13.4725789 L17.1571389,9.71631114 C16.6336945,9.18765412 15.9391389,8.89646454 15.1986945,8.89646454 C14.4594167,8.89646454 13.7640834,9.18765412 13.24025,9.71631114 L11.5548056,11.4217945 C11.4603056,11.2917713 11.3623056,11.1629161 11.2561389,11.0379537 C8.95975004,8.32264978 4.9223056,8.00343126 2.23819449,10.3274978 C-0.446305511,12.6500072 -0.760138845,16.7340579 1.53625004,19.4497511 C2.06319449,20.0730058 2.6823056,20.5681838 3.35508338,20.9360637 C3.36869449,21.6344515 3.63741671,22.3289465 4.16319449,22.8614964 L13.24025,32.0425326 C13.7636945,32.5715789 14.4590278,32.8631577 15.1986945,32.8631577 C15.9391389,32.8631577 16.6340834,32.5715789 17.1571389,32.0425326 L26.2334167,22.8614964 C26.75725,22.3320608 27.0454167,21.6286122 27.0454167,20.8800058 C27.0454167,20.1317887 26.75725,19.4283401 26.2341945,18.8989045 L25.18925,17.8427583 L35.0001389,9.87124891 L35.0001389,0 L34.5276389,0.0253039074 L30.2455834,0.0253039074 Z" id="Fill-73"></path>
                    </g>
                </g>
            </g>
        </g>
    </g>
</svg>