<?xml version="1.0" encoding="UTF-8"?>
<svg width="70px" height="70px" viewBox="0 0 70 70" version="1.1" xmlns="http://www.w3.org/2000/svg" xmlns:xlink="http://www.w3.org/1999/xlink">
    <!-- Generator: Sketch 46.2 (44496) - http://www.bohemiancoding.com/sketch -->
    <title>FriendFeed</title>
    <desc>Created with Sketch.</desc>
    <defs></defs>
    <g id="Icons" stroke="none" stroke-width="1" fill="none" fill-rule="evenodd">
        <g transform="translate(-949.000000, -399.000000)" id="Icon-Set">
            <g transform="translate(69.000000, 66.000000)">
                <g id="FriendFeed" transform="translate(880.000000, 333.000000)">
                    <circle id="Oval-1-Copy-37" fill="#0F99D6" cx="35" cy="35" r="35"></circle>
                    <path d="M33.2290163,22.6684534 C34.5673449,22.7987302 35.2806021,22.8621186 36.2413239,23.2720043 C36.2413239,21.7977378 36.2506475,21.023077 36.2506475,18.6823726 C35.4216219,18.4949296 34.3622251,18.1857653 32.6886345,18.0609329 C25.4348548,17.521937 22.375929,20.498081 22.4730501,29.416402 L19,29.416402 L19.0023309,34.6418621 L22.4559568,34.6399177 L22.4578992,52.982889 L29.351554,52.982889 L29.3461152,34.6418621 L37.9374466,34.6406955 L37.9405545,53 L44.8641225,53 L44.866065,34.6651953 L50.0698128,34.6651953 L50.0698128,29.4381796 L44.8839352,29.4381796 C44.8839352,29.4346796 44.8858777,28.1851891 44.8858777,26.4425913 C45.0156314,23.3933367 46.467009,22.3557891 48.6922473,22.6140093 C50.2252066,22.7917302 50.8731985,22.935618 51.77759,23.307393 C51.77759,21.5154066 51.7946833,20.9456887 51.7946833,18.7243723 C50.9031117,18.44593 49.7807805,18.1624322 48.116902,18.0609329 C40.8584604,17.6191585 37.8752891,20.5241364 37.9712447,29.4381796 L29.3414534,29.4385685 C29.3414534,29.4385685 29.3433958,28.2967994 29.3433958,26.5518682 C29.4731496,23.5026137 30.9995046,22.4506773 33.2290163,22.6684534" id="Fill-80" fill="#FFFFFF"></path>
                </g>
            </g>
        </g>
    </g>
</svg>