<?xml version="1.0" encoding="UTF-8"?>
<svg width="70px" height="70px" viewBox="0 0 70 70" version="1.1" xmlns="http://www.w3.org/2000/svg" xmlns:xlink="http://www.w3.org/1999/xlink">
    <!-- Generator: Sketch 46.2 (44496) - http://www.bohemiancoding.com/sketch -->
    <title>Github</title>
    <desc>Created with Sketch.</desc>
    <defs></defs>
    <g id="Icons" stroke="none" stroke-width="1" fill="none" fill-rule="evenodd">
        <g transform="translate(-619.000000, -508.000000)" id="Icon-Set">
            <g transform="translate(69.000000, 66.000000)">
                <g id="Github" transform="translate(550.000000, 442.000000)">
                    <circle id="Oval-1-Copy-44" fill="#4183C4" cx="35" cy="35" r="35"></circle>
                    <g id="Group-24" transform="translate(18.000000, 20.000000)" fill="#FFFFFF">
                        <path d="M18.2089167,24.201458 C17.7908611,24.6183886 17.4564167,24.8219877 17.1873056,24.8219877 C16.9181944,24.8219877 16.58375,24.6183886 16.1656944,24.201458 C15.8985278,23.9328473 15.4676389,23.9328473 15.20125,24.201458 C14.9329167,24.4689009 14.9329167,24.9021816 15.20125,25.1680673 C15.8775278,25.8481585 16.5320278,26.1864522 17.1873056,26.1864522 C17.8425833,26.1864522 18.4963056,25.8481585 19.1733611,25.1692352 C19.4413056,24.9021816 19.4413056,24.4689009 19.1733611,24.201458 C18.9065833,23.9340152 18.4753056,23.9340152 18.2089167,24.201458" id="Fill-93"></path>
                        <path d="M29.9498889,22.7992511 C29.7072222,23.7086346 29.4011667,24.4732019 29.0301667,25.0886708 C28.6595556,25.7049182 28.1411667,26.2250108 27.4718889,26.6501165 C26.8033889,27.0744436 26.1558889,27.4018372 25.5301667,27.6354117 C24.9048333,27.868597 24.0963333,28.0492279 23.1054444,28.1792511 C22.1153333,28.3084957 21.2275,28.3886896 20.4431111,28.4159399 C19.6602778,28.4431903 18.6725,28.4564262 17.4813333,28.4564262 C16.2913333,28.4564262 15.3058889,28.4431903 14.5285,28.4159399 C13.7503333,28.3886896 12.8671667,28.3084957 11.8758889,28.1792511 C10.8861667,28.0492279 10.0776667,27.868597 9.45233333,27.6354117 C8.82505556,27.4018372 8.18027778,27.0744436 7.511,26.6501165 C6.8425,26.2250108 6.32255556,25.7049182 5.95116667,25.0886708 C5.5825,24.4732019 5.27372222,23.7086346 5.03144444,22.7992511 C4.78838889,21.8883104 4.66705556,20.8512395 4.66705556,19.6872598 C4.66705556,17.7022656 5.39661111,15.9014059 6.85455556,14.2866273 C7.29205556,13.7937851 7.79955556,13.4204551 8.37627778,13.1674161 C8.95338889,12.9132091 9.60983333,12.7699501 10.3456111,12.7364711 C11.0806111,12.7022135 11.7817778,12.7084421 12.4498889,12.7555463 C13.1183889,12.8038184 13.9451667,12.8692192 14.9294444,12.9517489 C15.9148889,13.0335 16.765,13.0739862 17.4813333,13.0739862 C18.1992222,13.0739862 19.0497222,13.0335 20.0328333,12.9517489 C21.0182778,12.8692192 21.8454444,12.8038184 22.5135556,12.7555463 C23.1816667,12.7084421 23.8828333,12.7022135 24.6178333,12.7364711 C25.3543889,12.7699501 26.0127778,12.9132091 26.5953333,13.1674161 C27.1798333,13.4204551 27.6892778,13.7937851 28.1275556,14.2866273 C29.5866667,15.9014059 30.3150556,17.7022656 30.3150556,19.6872598 C30.3150556,20.8512395 30.1929444,21.8883104 29.9498889,22.7992511 M32.4387778,6.87375036 C32.5173333,6.49341316 32.5935556,5.95541316 32.6670556,5.26247539 C32.7405556,4.56875904 32.7121667,3.76681982 32.5838333,2.85782561 C32.4566667,1.94922069 32.2163333,1.02192981 31.864,0.0755636708 L31.5906111,0.0210629472 C31.409,-0.0163089776 31.1103333,-0.00385166931 30.6969444,0.0576562902 C30.2847222,0.118385668 29.8017222,0.229333569 29.2491111,0.388942831 C28.6953333,0.548941384 27.9825,0.865434872 27.1067222,1.33842329 C26.2313333,1.80985455 25.3085,2.40936251 24.3358889,3.13383285 C22.6819444,2.63009044 20.4046111,2.10337988 17.5,2.10337988 C14.5957778,2.10337988 12.3110556,2.63009044 10.6454444,3.13383285 C9.674,2.40936251 8.74766667,1.81296888 7.86488889,1.34698769 C6.98561111,0.881006507 6.28055556,0.561009402 5.7505,0.388942831 C5.22238889,0.217265552 4.73394444,0.106706941 4.28283333,0.0576562902 C3.83483333,0.00821634806 3.54588889,-0.00696599637 3.41794444,0.011719966 C3.28961111,0.0296273466 3.19588889,0.0506490543 3.136,0.0755636708 C2.78366667,1.02192981 2.53944444,1.94922069 2.40644444,2.85782561 C2.27305556,3.76681982 2.24194444,4.56486613 2.31583333,5.25274312 C2.38894444,5.94023082 2.4675,6.48095586 2.55266667,6.87375036 C2.63705556,7.26732344 2.73427778,7.60406005 2.84394444,7.88668523 C0.9485,10.0854001 0,12.7197315 0,15.7892902 C0,17.4963307 0.145444444,19.0445405 0.4375,20.4319732 C0.728388889,21.8205738 1.13866667,23.0234826 1.66794444,24.0426462 C2.19605556,25.062199 2.86455556,25.9556216 3.67266667,26.7233032 C4.48233333,27.4905955 5.35927778,28.1235825 6.30777778,28.6214855 C7.25472222,29.1189993 8.33972222,29.5203582 9.56161111,29.8282873 C10.7823333,30.1346592 12.0248333,30.3495478 13.2887222,30.472953 C14.5537778,30.5955796 15.9448333,30.6570875 17.4638333,30.6570875 C18.9820556,30.6570875 20.3773889,30.5955796 21.6463333,30.472953 C22.9172222,30.3495478 24.1628333,30.1346592 25.3835556,29.8282873 C26.6046667,29.5203582 27.6923889,29.1189993 28.6463333,28.6214855 C29.6010556,28.1235825 30.485,27.4905955 31.3001111,26.7244711 C32.1132778,25.9567894 32.7852778,25.062199 33.3133889,24.0426462 C33.8415,23.0234826 34.2548889,21.8205738 34.5535556,20.4331411 C34.8498889,19.0445405 35,17.4963307 35,15.7892902 C35,12.7314103 34.0515,10.0974682 32.1560556,7.88668523 C32.2653333,7.59238133 32.3594444,7.25408755 32.4387778,6.87375036" id="Fill-94"></path>
                        <path d="M10.1875,16 C8.98,16 8,17.470741 8,19.2848365 C8,21.098932 8.98,22.5692836 10.1875,22.5692836 C11.395,22.5692836 12.375,21.098932 12.375,19.2848365 C12.375,17.470741 11.395,16 10.1875,16" id="Fill-95"></path>
                        <path d="M23.1875,16 C21.98,16 21,17.470741 21,19.2848365 C21,21.098932 21.98,22.5692836 23.1875,22.5692836 C24.395,22.5692836 25.375,21.098932 25.375,19.2848365 C25.375,17.470741 24.395,16 23.1875,16" id="Fill-96"></path>
                    </g>
                </g>
            </g>
        </g>
    </g>
</svg>