<?xml version="1.0" encoding="UTF-8"?>
<svg width="70px" height="70px" viewBox="0 0 70 70" version="1.1" xmlns="http://www.w3.org/2000/svg" xmlns:xlink="http://www.w3.org/1999/xlink">
    <!-- Generator: Sketch 46.2 (44496) - http://www.bohemiancoding.com/sketch -->
    <title>Gowalla</title>
    <desc>Created with Sketch.</desc>
    <defs></defs>
    <g id="Icons" stroke="none" stroke-width="1" fill="none" fill-rule="evenodd">
        <g transform="translate(-839.000000, -508.000000)" id="Icon-Set">
            <g transform="translate(69.000000, 66.000000)">
                <g id="Gowalla" transform="translate(770.000000, 442.000000)">
                    <circle id="Oval-1-Copy-46" fill="#EF5830" cx="35" cy="35" r="35"></circle>
                    <path d="M37.6359093,41.9226506 C37.9816315,41.8747678 38.1659648,41.9888301 38.231687,42.2185117 C38.4922426,45.0323062 37.7027981,46.8074726 35.5514648,47.2325783 C32.7810204,45.6360964 35.4044648,42.1527215 37.6359093,41.9226506 M44.7821315,22.7496854 C44.9221315,19.1456304 40.8135204,17.4724582 38.529187,17.1466217 C31.6944648,16.1710587 23.1217981,20.0592961 22.156187,28.9448605 C21.1967981,37.7685276 24.704187,40.5504003 31.3841315,43.6919777 C27.9735759,53.3611846 40.7435204,53.9061919 45.0780759,49.001516 C48.3268537,45.3269994 46.3769648,38.6701253 47.1621315,32.7789864 L38.231687,32.7789864 C38.0349093,34.9457794 38.6248537,37.8888185 37.9345759,39.5619907 C27.8141315,40.7411528 29.1826315,19.2596926 37.9345759,20.9807476 C36.432687,27.8965001 44.5923537,27.5547027 44.7821315,22.7496854" id="Fill-97" fill="#FFFFFF"></path>
                </g>
            </g>
        </g>
    </g>
</svg>