<?xml version="1.0" encoding="UTF-8"?>
<svg width="70px" height="70px" viewBox="0 0 70 70" version="1.1" xmlns="http://www.w3.org/2000/svg" xmlns:xlink="http://www.w3.org/1999/xlink">
    <!-- Generator: Sketch 46.2 (44496) - http://www.bohemiancoding.com/sketch -->
    <title>Grooveshark</title>
    <desc>Created with Sketch.</desc>
    <defs></defs>
    <g id="Icons" stroke="none" stroke-width="1" fill="none" fill-rule="evenodd">
        <g transform="translate(-729.000000, -617.000000)" id="Icon-Set">
            <g transform="translate(69.000000, 66.000000)">
                <g id="Grooveshark" transform="translate(660.000000, 551.000000)">
                    <circle id="Oval-1-Copy-55" fill="#F86F09" cx="35" cy="35" r="35"></circle>
                    <path d="M43.9247222,39.9082113 C42.578,39.9082113 41.2312778,37.2143184 41.2312778,37.2143184 C41.2312778,37.2143184 39.3183333,30.4729682 30.4629444,29.1275789 C31.2422778,41.2536006 26.7611111,39.7964848 25.0748889,39.9082113 C23.3925556,40.0191592 22.4164444,37.5740232 22.4164444,34.5180897 C22.4164444,27.8382475 27.8274444,22.4220434 34.5003889,22.4220434 C41.1737222,22.4220434 46.4237222,27.8382475 46.5835556,34.5180897 C46.6162222,35.8662041 45.2691111,39.9082113 43.9247222,39.9082113 M34.5003889,17 C24.8357222,17 17,24.8430434 17,34.5180897 C17,44.1927467 24.8357222,52.0361795 34.5003889,52.0361795 C44.1646667,52.0361795 52.0003889,44.1927467 52.0003889,34.5180897 C52.0003889,24.8430434 44.1646667,17 34.5003889,17" id="Fill-144" fill="#FFFFFF"></path>
                </g>
            </g>
        </g>
    </g>
</svg>