<?xml version="1.0" encoding="UTF-8"?>
<svg width="70px" height="70px" viewBox="0 0 70 70" version="1.1" xmlns="http://www.w3.org/2000/svg" xmlns:xlink="http://www.w3.org/1999/xlink">
    <!-- Generator: Sketch 46.2 (44496) - http://www.bohemiancoding.com/sketch -->
    <title>Hulu</title>
    <desc>Created with Sketch.</desc>
    <defs></defs>
    <g id="Icons" stroke="none" stroke-width="1" fill="none" fill-rule="evenodd">
        <g transform="translate(-1180.000000, -290.000000)" id="Icon-Set">
            <g transform="translate(69.000000, 66.000000)">
                <g id="Hulu" transform="translate(1111.000000, 224.000000)">
                    <circle id="Oval-1-Copy-59" fill="#6BB03E" cx="35" cy="35" r="35"></circle>
                    <path d="M54.99485,32.1122699 L51.809579,32.1122699 L51.809579,37.4270632 C51.809579,37.6665379 51.7168791,37.8699627 51.5701043,38.0373375 C51.4207545,38.1866873 51.2173297,38.2587872 50.977855,38.2768122 L49.1264323,38.2768122 C48.8663577,38.2587872 48.6629329,38.1841123 48.5161581,38.0373375 C48.3668083,37.8699627 48.2766834,37.6665379 48.2766834,37.4270632 L48.2766834,32.1122699 L45.0914124,32.1122699 L45.0914124,37.7051629 C45.1094374,38.4467619 45.2407622,39.0930861 45.5549118,39.6106605 C45.8690614,40.1282348 46.2759109,40.5170594 46.8140852,40.777134 C47.3702845,41.0372087 47.9985838,41.1839835 48.7221578,41.1839835 L51.814729,41.1839835 L51.814729,41.1479336 C52.4816531,41.1479336 53.0558774,40.9985838 53.5374018,40.7204841 C54.0009012,40.4243595 54.3717008,40.01751 54.6111755,39.4973606 C54.8712502,38.9797863 55,38.366937 55,37.7000129 L54.99485,32.1122699 L54.99485,32.1122699 Z M23.1292648,32.4444444 C22.5730655,32.2049697 21.9627913,32.0916699 21.2958671,32.1122699 L19.2410197,32.1122699 L18.4453457,32.2049697 C18.2599459,32.2616197 18.167246,32.2976696 18.167246,32.2976696 L18.167246,28 L15,28 L15,41.1839835 L18.167246,41.1839835 L18.167246,35.8511652 C18.185271,35.6297155 18.2599459,35.4056907 18.4273207,35.2589159 C18.5946955,35.1121411 18.7800953,35.0194412 19.037595,35.0194412 L20.8890176,35.0194412 C21.1104674,35.0194412 21.3138921,35.1121411 21.4812669,35.2589159 C21.6486417,35.4082657 21.7207416,35.6297155 21.7413416,35.8511652 L21.7413416,41.1839835 L24.9085876,41.1839835 L24.9085876,35.4443157 C24.9085876,34.6486417 24.7412128,33.9997425 24.4270632,33.5001931 C24.0923136,33.0186687 23.6648642,32.6658942 23.1292648,32.4444444 L23.1292648,32.4444444 Z M33.9056264,37.4270632 C33.8876014,37.6665379 33.8129265,37.8699627 33.6661517,38.0373375 C33.4987769,38.1866873 33.2953521,38.2587872 33.0558774,38.2768122 L31.2044547,38.2768122 C30.96498,38.2587872 30.7589803,38.1841123 30.6122055,38.0373375 C30.4448307,37.8699627 30.3727308,37.6665379 30.3521308,37.4270632 L30.3521308,32.1122699 L27.1848848,32.1122699 L27.1848848,37.7051629 C27.1848848,38.4467619 27.3342346,39.0930861 27.6303592,39.6106605 C27.9264838,40.1282348 28.3513583,40.5170594 28.8895326,40.777134 C29.4457319,41.0372087 30.0560062,41.1839835 30.7976053,41.1839835 L33.9082014,41.1839835 L33.9082014,41.1479336 C34.5751255,41.1479336 35.1493498,40.9985838 35.6128492,40.7204841 C36.0763487,40.4243595 36.4471482,40.01751 36.7046479,39.4973606 C36.9441226,38.9797863 37.0754474,38.366937 37.0934724,37.7000129 L37.0934724,32.1122699 L33.9056264,32.1122699 L33.9056264,37.4270632 L33.9056264,37.4270632 L33.9056264,37.4270632 Z M39.4985194,41.1839835 L42.6657654,41.1839835 L42.6657654,28 L39.4985194,28 L39.4985194,41.1839835 L39.4985194,41.1839835 Z" id="Shape" fill="#FFFFFF"></path>
                </g>
            </g>
        </g>
    </g>
</svg>