<?xml version="1.0" encoding="UTF-8"?>
<svg width="70px" height="70px" viewBox="0 0 70 70" version="1.1" xmlns="http://www.w3.org/2000/svg" xmlns:xlink="http://www.w3.org/1999/xlink">
    <!-- Generator: Sketch 46.2 (44496) - http://www.bohemiancoding.com/sketch -->
    <title>Icq</title>
    <desc>Created with Sketch.</desc>
    <defs></defs>
    <g id="Icons" stroke="none" stroke-width="1" fill="none" fill-rule="evenodd">
        <g transform="translate(-619.000000, -617.000000)" id="Icon-Set">
            <g transform="translate(69.000000, 66.000000)">
                <g id="Icq" transform="translate(550.000000, 551.000000)">
                    <circle id="Oval-1-Copy-54" fill="#01CC01" cx="35" cy="35" r="35"></circle>
                    <path d="M50.7252643,39.9348229 C50.4728754,40.9251789 49.8704866,41.6656102 49.014931,42.058794 C48.1130977,42.553972 47.2062088,42.6528519 46.2036532,42.3067723 C45.6004866,42.1603989 45.1983754,41.9096956 44.8483754,41.5161225 L39.5727088,37.219519 L39.9246532,36.4790877 L40.0763199,35.8850299 L45.7521532,35.3906304 L47.7599866,35.3423584 L48.2647643,35.3906304 C49.014931,35.6378301 49.7207643,36.0827896 50.120931,36.8232209 C50.6225977,37.3686174 50.8749866,38.1090487 50.8749866,38.949917 L50.7252643,39.9348229 Z M42.0853199,45.7142354 C41.9857643,46.6057115 41.6832088,47.2480414 41.0788754,47.4952411 C40.7288754,47.7404944 40.3267643,47.7404944 39.9246532,47.6930009 C38.9714866,47.4450226 38.2162643,46.7045914 37.6652088,45.5172542 L37.0612643,43.8884611 L36.3087643,39.5914684 L37.1608199,39.2932715 L37.814931,38.949917 L39.9246532,41.0715523 L41.2305421,42.6528519 L41.4809866,43.1460834 C41.9332643,43.9861731 42.1856532,44.7779908 42.0853199,45.7142354 L42.0853199,45.7142354 Z M35.4827643,46.9498446 L34.9177088,47.4450226 C34.5645977,48.3333844 33.7043754,49.0749835 32.8002088,49.4681673 C31.8952643,49.9633453 30.8094866,50.0614466 29.9076532,49.816972 C28.9000421,49.5689937 28.0833754,48.9757144 27.6812643,48.1850646 C27.4319866,47.6930009 27.2005977,47.098943 27.2005977,46.5048851 L27.4319866,45.3708808 C27.5334866,44.8760921 27.7780977,44.3805248 28.179431,43.9861731 L32.3945977,39.0452932 C32.8962643,39.2932715 33.9120421,39.5404712 34.4658199,39.5914684 C34.5657643,41.2681442 35.4827643,43.0499286 35.4827643,44.9738041 L35.4827643,46.9498446 Z M22.8952088,33.7606695 L22.3943199,33.6629575 C21.4905421,33.5138591 20.8862088,33.120286 20.4860421,32.3771297 C20.083931,31.6366985 20.083931,30.8970458 20.3864866,30.1558359 C20.7372643,29.2149199 21.3898199,28.4756565 22.3429866,28.0805262 C23.2487088,27.5861268 24.150931,27.4385856 25.1565977,27.6850067 L26.5126532,28.2284568 L30.9335421,31.3894987 C30.5318199,31.8846767 30.2802088,32.3771297 30.1285421,32.8723077 L22.8952088,33.7606695 Z M27.8710421,21.9044264 C27.9192643,21.0160646 28.2692643,20.4239532 28.8735977,20.0778736 C29.1761532,19.8306739 29.6276532,19.8306739 30.0278199,20.0284336 C30.9335421,20.2764119 31.6879866,20.9179633 32.288431,22.152794 C32.5408199,22.6468041 32.7908754,23.1408142 32.8923754,23.7329257 L33.8957088,29.5629459 L33.1439866,29.8089778 L28.6725421,25.0171963 L28.420931,24.5239647 C28.0192088,23.6344351 27.7695421,22.7939561 27.8710421,21.9044264 L27.8710421,21.9044264 Z M35.1525977,31.5385972 C36.0567643,31.5385972 36.9103754,31.8846767 37.4641532,32.4273482 C38.164931,33.120286 38.4686532,33.8595494 38.4686532,34.7494684 C38.4686532,35.6378301 38.164931,36.4790877 37.4641532,37.0731456 C36.810431,37.7154756 36.0567643,38.0576623 35.1525977,38.0576623 C34.1986532,38.0576623 33.3940421,37.7154756 32.7908754,37.0731456 C32.1383199,36.4790877 31.7883199,35.6378301 31.7883199,34.7494684 C31.7883199,33.8595494 32.1383199,33.120286 32.7908754,32.4273482 C33.3940421,31.8846767 34.1986532,31.5385972 35.1525977,31.5385972 L35.1525977,31.5385972 Z M36.4577088,21.7572744 C36.7093199,20.7696435 37.4128199,20.0284336 38.3169866,19.5344235 C39.2215421,19.0408027 40.2252643,18.9411442 41.1792088,19.2868345 C42.2362088,19.5344235 42.9883199,20.0778736 43.4417643,20.9179633 C43.6922088,21.4123627 43.841931,22.0052527 43.841931,22.6468041 L43.6922088,23.7329257 C43.491931,24.2755972 43.2395421,24.7711644 42.938931,25.2157346 L38.4184866,30.6490675 C37.9669866,30.3033772 37.4641532,30.0550096 36.9605421,29.8089778 L36.4577088,24.228493 L36.4087088,22.2512846 L36.4577088,21.7572744 Z M44.9980977,27.9812571 L45.6004866,27.7340574 C46.5062088,27.3408736 47.3578754,27.2400472 48.2647643,27.3408736 C49.1156532,27.4385856 49.7207643,27.8321587 50.0202088,28.4262165 L50.2204866,29.0677679 L50.120931,29.5629459 C49.7701532,30.4524756 49.014931,31.1434669 47.7599866,31.6861384 C47.2583199,31.9321702 46.7064866,32.032218 46.1040977,32.1291514 L39.9246532,32.8723077 L39.8231532,32.5262281 L39.7235977,32.3771297 L39.9246532,32.1291514 L44.9980977,27.9812571 Z M52.0295977,35.8355899 C51.6270977,35.2426999 51.226931,34.6505885 50.6225977,34.2550689 C50.120931,33.9089893 49.5177643,33.6629575 48.9667088,33.4149792 C50.5230421,32.6733801 51.1993199,31.6366985 51.7021532,30.3033772 C52.0548754,29.2149199 51.0231532,28.3273367 51.0231532,27.4385856 L51.0231532,27.3408736 C51.0231532,26.3505176 50.0458754,25.7101341 48.7901532,25.3640545 C48.0353199,25.2157346 47.3959866,25.2157346 46.6427088,25.2632281 L45.0910421,25.6100863 L45.6992643,24.3756449 C46.1997643,22.7939561 46.0764866,21.2640429 45.2228754,19.8306739 L45.0852088,19.5854206 C44.3315421,18.3490328 43.232931,17.6086015 41.7255977,17.2134712 C40.1692643,16.8179517 39.2339866,16.9662715 37.8281532,17.7067028 C36.4188199,18.4486912 35.4827643,19.5854206 35.4827643,21.0655045 L35.4827643,21.1643844 L34.9177088,21.5100747 L34.4576532,21.1643844 L33.824931,20.2764119 C33.0203199,19.0408027 31.952431,18.2995928 30.6955421,17.9527346 C29.5895421,17.7067028 28.6562088,17.8055827 27.7010977,18.2995928 C26.6475977,18.9411442 26.0273199,19.9315002 25.7745421,21.3130935 C25.5233199,22.745684 25.7671532,24.1292238 26.5212088,25.5112064 L26.8673199,26.0063844 L25.6617643,25.6100863 C24.1540421,25.2632281 22.7470421,25.4621558 21.3415977,26.2029763 C19.8824866,26.9434076 18.9787088,27.9812571 18.3747643,29.4134582 C17.8217643,30.7966087 17.8738754,32.1291514 18.5769866,33.3655393 C18.8779866,33.9089893 19.3298754,34.3539488 19.7308199,34.6505885 C20.3343754,35.2426999 21.0880421,35.5883902 21.9922088,35.73671 L22.3429866,35.8355899 L21.5908754,36.4790877 C20.8862088,37.0731456 20.4860421,37.812409 20.2348199,38.5536189 C19.9843754,39.4423699 20.083931,40.3318996 20.5855977,41.1731572 C20.8379866,41.5667303 21.0880421,41.9096956 21.4905421,42.1603989 C21.8926532,42.5037534 22.3943199,42.7517317 22.9967088,42.8019503 C24.1027088,43.0499286 25.2580977,43.0499286 26.5126532,42.6528519 L25.6077088,44.1356608 L25.358431,44.7779908 C24.8555977,46.3557867 25.004931,47.7404944 25.7597643,49.1715277 C26.1117088,49.7180921 26.5126532,50.2113236 26.9151532,50.6555045 C27.5171532,51.1977867 28.2692643,51.5450342 29.1761532,51.7930125 C30.6803754,52.1865856 32.1877088,52.1351992 33.646431,51.3955465 C35.0530421,50.6555045 35.9552643,49.4681673 36.4087088,47.9876941 L36.4577088,47.6930009 C37.4128199,48.7277361 38.3169866,49.4198953 39.3230421,49.6678736 C40.3267643,49.9633453 41.3312643,49.9150733 42.2362088,49.321794 C43.0898199,48.826616 43.6922088,47.9876941 43.9935977,46.9498446 C44.2440421,45.8633338 44.2440421,44.7779908 43.9935977,43.5454959 C44.4944866,43.8884611 44.9980977,44.1356608 45.6004866,44.2828128 C47.2062088,44.7779908 48.6147643,44.7266044 50.0202088,43.9861731 C51.3766532,43.2469097 52.2815977,42.058794 52.7330977,40.5288808 C53.1355977,39.0452932 53.0348754,37.6138707 52.2815977,36.2311095 L52.0295977,35.8355899 Z" id="Fill-143" fill="#FFFFFF"></path>
                </g>
            </g>
        </g>
    </g>
</svg>