<?xml version="1.0" encoding="UTF-8"?>
<svg width="70px" height="70px" viewBox="0 0 70 70" version="1.1" xmlns="http://www.w3.org/2000/svg" xmlns:xlink="http://www.w3.org/1999/xlink">
    <!-- Generator: Sketch 46.2 (44496) - http://www.bohemiancoding.com/sketch -->
    <title>Instagram</title>
    <desc>Created with Sketch.</desc>
    <defs></defs>
    <g id="Icons" stroke="none" stroke-width="1" fill="none" fill-rule="evenodd">
        <g transform="translate(-179.000000, -290.000000)" id="Icon-Set">
            <g transform="translate(69.000000, 66.000000)">
                <g id="Instagram" transform="translate(110.000000, 224.000000)">
                    <circle id="Oval-1-Copy-20" fill="#3F729B" cx="35" cy="35" r="35"></circle>
                    <g id="Group-6" transform="translate(18.000000, 17.000000)" fill="#FFFFFF">
                        <path d="M31.7185556,6.56928365 C31.7185556,7.77881042 30.7393333,8.75904486 29.5310556,8.75904486 L27.3435556,8.75904486 C26.1356667,8.75904486 25.1560556,7.77881042 25.1560556,6.56928365 L25.1560556,5.47420839 C25.1560556,4.26507091 26.1356667,3.28483647 27.3435556,3.28483647 L29.5310556,3.28483647 C30.7393333,3.28483647 31.7185556,4.26507091 31.7185556,5.47420839 L31.7185556,6.56928365 Z M28.4371111,0 L8.74961111,0 L8.74961111,10.9488061 L11.4628889,10.9488061 C13.0526667,9.48390449 15.1686111,8.58191751 17.4996111,8.58191751 C19.831,8.58191751 21.9469444,9.48390449 23.5371111,10.9488061 L32.8125,10.9488061 L32.8125,28.4668958 C32.8125,30.8859493 30.8536667,32.8464182 28.4371111,32.8464182 L6.56211111,32.8464182 C4.14594444,32.8464182 2.1875,30.8859493 2.1875,28.4668958 L2.1875,12.0438813 L2.1875,10.9488061 L2.1875,1.6825152 C0.847777778,2.88542402 0,4.62594356 0,6.56928365 L0,28.4668958 C0,32.0950868 2.93805556,35.0361795 6.56211111,35.0361795 L28.4371111,35.0361795 C32.0615556,35.0361795 35,32.0950868 35,28.4668958 L35,10.9488061 L35,7.6643589 L35,6.56928365 C35,2.94109262 32.0615556,0 28.4371111,0 L28.4371111,0 Z" id="Fill-33"></path>
                        <path d="M6.1875,10.9488061 L6.1875,0 C5.41944444,0 4.68522222,0.138976845 4,0.381505065 L4,10.9488061 L6.1875,10.9488061 Z" id="Fill-35"></path>
                        <path d="M13.219,18.6689421 C13.219,16.2129059 15.2081667,14.2216831 17.6616667,14.2216831 C20.1151667,14.2216831 22.1043333,16.2129059 22.1043333,18.6689421 C22.1043333,21.1249783 20.1151667,23.1162012 17.6616667,23.1162012 C15.2081667,23.1162012 13.219,21.1249783 13.219,18.6689421 M24.3233333,18.6689421 C24.3233333,14.9858611 21.3409444,12 17.6616667,12 C13.9823889,12 11,14.9858611 11,18.6689421 C11,22.3520232 13.9823889,25.3374949 17.6616667,25.3374949 C21.3409444,25.3374949 24.3233333,22.3520232 24.3233333,18.6689421" id="Fill-37"></path>
                    </g>
                </g>
            </g>
        </g>
    </g>
</svg>