<?xml version="1.0" encoding="UTF-8"?>
<svg width="70px" height="70px" viewBox="0 0 70 70" version="1.1" xmlns="http://www.w3.org/2000/svg" xmlns:xlink="http://www.w3.org/1999/xlink">
    <!-- Generator: Sketch 46.2 (44496) - http://www.bohemiancoding.com/sketch -->
    <title>Invision</title>
    <desc>Created with Sketch.</desc>
    <defs></defs>
    <g id="Icons" stroke="none" stroke-width="1" fill="none" fill-rule="evenodd">
        <g transform="translate(-1059.000000, -726.000000)" id="Icon-Set">
            <g transform="translate(69.000000, 66.000000)">
                <g id="Invision" transform="translate(990.000000, 660.000000)">
                    <circle id="Oval-1-Copy-58" fill="#FF3366" cx="35" cy="35" r="35"></circle>
                    <path d="M25.2224786,23.3127982 C23.2032903,23.3127982 21.5117742,21.7301227 21.5117742,19.6554786 C21.5117742,17.5824453 23.2032903,16 25.2224786,16 C27.2421271,16 28.9336431,17.5824453 28.9336431,19.6554786 C28.9336431,21.7301227 27.2421271,23.3127982 25.2224786,23.3127982 Z M17.52791,42.8947136 L20.3110533,31.5246701 L16,31.5246701 L17.3097686,26.6924246 L27.6786169,26.6924246 L23.5852448,42.9294597 C23.3123379,43.9670119 23.2032673,44.8276118 23.2032673,45.4270403 C23.2032673,46.4652828 23.7143347,46.7687938 24.5134961,46.9489675 C24.9999421,47.0580382 28.8781643,46.9818728 30.9898556,42.2886119 L33.6779647,31.5246701 L29.312146,31.5246701 L30.6219146,26.6924246 L39.953901,26.6924246 L38.7534332,32.178634 C40.3904139,29.1221237 43.6648355,26.2179441 46.8844916,26.2179441 C50.3227493,26.2179441 53.160658,28.6672023 53.160658,33.3604632 C53.160658,34.5607009 52.9968219,35.867248 52.5603091,37.3401625 L50.8135674,43.6140278 C50.6504216,44.2702928 50.5406606,44.8154161 50.5406606,45.3064643 C50.5406606,46.3974012 50.9776336,46.9429848 51.7963541,46.9429848 C52.6148444,46.9429848 53.6517062,46.3412551 54.8524042,43.013909 L57.2533398,43.9410098 C55.8345005,48.9074076 53.2697287,50.9802108 50.0496124,50.9802108 C46.2841426,50.9802108 44.483786,48.7440317 44.483786,45.686831 C44.483786,44.8147258 44.5923965,43.8860142 44.8653033,42.9582231 L46.6665803,36.5189108 C46.8844916,35.809031 46.9394871,35.154837 46.9394871,34.5540278 C46.9394871,32.4809945 45.6842538,31.2255311 43.6648355,31.2255311 C41.0998335,31.2255311 39.4080874,33.0663865 38.5350617,36.613945 L35.0420386,50.6235451 L28.9301685,50.6235451 L30.0270882,46.2209092 C28.2308735,49.1720306 25.7358241,51 22.6576837,51 C18.9467493,51 17.2004678,48.8620765 17.2004678,45.6417301 C17.2004678,44.8243903 17.3097686,43.8225047 17.52791,42.8947136 Z" id="Combined-Shape" fill="#FFFFFF"></path>
                </g>
            </g>
        </g>
    </g>
</svg>