<?xml version="1.0" encoding="UTF-8"?>
<svg width="70px" height="70px" viewBox="0 0 70 70" version="1.1" xmlns="http://www.w3.org/2000/svg" xmlns:xlink="http://www.w3.org/1999/xlink">
    <!-- Generator: Sketch 46.2 (44496) - http://www.bohemiancoding.com/sketch -->
    <title>Kickstarter</title>
    <desc>Created with Sketch.</desc>
    <defs></defs>
    <g id="Icons" stroke="none" stroke-width="1" fill="none" fill-rule="evenodd">
        <g transform="translate(-1301.000000, -617.000000)" id="Icon-Set">
            <g transform="translate(69.000000, 66.000000)">
                <g id="Kickstarter" transform="translate(1232.000000, 551.000000)">
                    <circle id="Oval-1-Copy-59" fill="#2CDF72" cx="35" cy="35" r="35"></circle>
                    <path d="M31.3715864,29.9277385 L37.7903498,20.6281068 C39.0039121,18.8760356 40.5703436,18 42.4911783,18 C44.0579933,18 45.4134705,18.5557686 46.5599111,19.6676895 C47.7052011,20.7796103 48.277846,22.11054 48.277846,23.6604786 C48.277846,24.8061522 47.9752224,25.8171985 47.3684412,26.6932341 L41.5810063,35.108392 L48.6571802,44.0797022 C49.3648358,44.9726142 49.7184718,46.0174132 49.7184718,47.2133323 C49.7184718,48.7974072 49.1630868,50.1571035 48.0507824,51.2943388 C46.9388617,52.4319576 45.5902885,53 44.0073642,53 C42.2717859,53 40.9496778,52.4361768 40.0395061,51.306996 L31.3715864,40.4911784 L31.3715864,46.455431 C31.3715864,48.1572567 31.0770176,49.4793648 30.4871126,50.4229058 C29.4089446,52.1408407 27.8421295,53 25.7870513,53 C23.9168457,53 22.467398,52.3682879 21.4402424,51.1048634 C20.4798251,49.9423136 20,48.4004295 20,46.4807456 L20,24.3681344 C20,22.5485578 20.4878797,21.0496318 21.4655569,19.8702056 C22.493096,18.6236576 23.9080239,18 25.7107242,18 C27.4294262,18 28.8612304,18.6236576 30.006904,19.8702056 C30.6470542,20.5606014 31.0513194,21.259819 31.2196993,21.9674747 C31.3209573,22.405876 31.3715864,23.2224609 31.3715864,24.4187634 L31.3715864,29.9277385" id="Shape" fill="#FFFFFF"></path>
                </g>
            </g>
        </g>
    </g>
</svg>