<?xml version="1.0" encoding="UTF-8"?>
<svg width="70px" height="70px" viewBox="0 0 70 70" version="1.1" xmlns="http://www.w3.org/2000/svg" xmlns:xlink="http://www.w3.org/1999/xlink">
    <!-- Generator: Sketch 46.2 (44496) - http://www.bohemiancoding.com/sketch -->
    <title>Kik</title>
    <desc>Created with Sketch.</desc>
    <defs></defs>
    <g id="Icons" stroke="none" stroke-width="1" fill="none" fill-rule="evenodd">
        <g transform="translate(-1180.000000, -176.000000)" id="Icon-Set">
            <g transform="translate(69.000000, 66.000000)">
                <g id="Kik" transform="translate(1111.000000, 110.000000)">
                    <circle id="Oval-1-Copy-59" fill="#82BC23" cx="35" cy="35" r="35"></circle>
                    <path d="M47.6978942,43.9497297 L44.2697136,39.3671008 L43.2190373,40.3416162 L43.2188945,43.0532554 L43.1920753,43.0522088 C43.1319866,44.1386607 42.2441841,45.0011431 41.1574085,45.0011431 C40.0312859,45.0011431 39.1192138,44.0757821 39.1192138,42.934656 C39.1192138,42.9208321 39.1193476,42.9070399 39.1196141,42.8932807 L39.0740603,42.891503 L39.0743461,27.1615095 L39.1212805,27.1620077 C39.1204764,27.137937 39.1200712,27.1137631 39.1200712,27.0894925 C39.1200712,25.9353633 40.0362871,25 41.1662678,25 C42.2962484,25 43.2124644,25.9353633 43.2124644,27.0894925 C43.2124644,27.128385 43.211424,27.1670292 43.2093701,27.2053979 L43.2343267,27.2056628 L43.2549029,34.8681832 L47.1060964,31.1021527 L47.1071638,31.103148 C47.4880304,30.6809464 48.0384411,30.4157051 48.6504605,30.4157051 C49.8000171,30.4157051 50.7318082,31.3506398 50.7318082,32.5041974 C50.7318082,33.0633931 50.5127925,33.5713363 50.1561282,33.9462853 L50.1773918,33.9661134 L47.4680389,36.6343138 L51.2549315,41.7393743 L51.2265181,41.7599928 C51.4376305,42.0889218 51.5602892,42.4816168 51.5602892,42.9033629 C51.5602892,44.0617788 50.6343567,45.0014289 49.4916587,45.0014289 C48.724743,45.0014289 48.0552729,44.578306 47.6978942,43.9497297 Z M25.6232619,43.9489747 L22.1955104,39.3671008 L21.1448341,40.3416162 L21.1446912,43.0532554 L21.1178721,43.0522088 C21.0577833,44.1386607 20.1699759,45.0011431 19.0830624,45.0011431 C17.9573685,45.0011431 17.0450106,44.0757821 17.0450106,42.934656 C17.0450106,42.9208303 17.0451445,42.9070363 17.045411,42.8932752 L17,42.891503 L17.0002858,27.1615095 L17.0469345,27.1620046 C17.0461304,27.137935 17.0457251,27.1137621 17.0457251,27.0894925 C17.0457251,25.9353633 17.9620839,25 19.0920646,25 C20.2221881,25 21.1382612,25.9353633 21.1382612,27.0894925 C21.1382612,27.1283844 21.1372206,27.1670282 21.1351665,27.2053964 L21.1602663,27.2056628 L21.1809855,34.8681832 L25.0318932,31.1021527 L25.0329495,31.1031375 C25.413827,30.680942 25.9643098,30.4157051 26.5764002,30.4157051 C27.7259568,30.4157051 28.6577479,31.3506398 28.6577479,32.5041974 C28.6577479,33.0633585 28.4387593,33.5712734 28.0821341,33.9462157 L28.1034744,33.9661134 L25.3938357,36.6343138 L29.1807283,41.7393743 L29.1523835,41.7599439 C29.3635391,42.0888829 29.4862289,42.4815959 29.4862289,42.9033629 C29.4862289,44.0617788 28.5601535,45.0014289 27.4174555,45.0014289 C26.6502328,45.0014289 25.9805337,44.5779672 25.6232619,43.9489747 Z M36.133034,32.5708408 L36.1578015,32.5709274 L36.1582302,42.9370852 L36.1337653,42.9370843 C36.1193032,44.0804288 35.2021316,45.0028578 34.0728815,45.0028578 C32.9435849,45.0028578 32.0259624,44.0803529 32.0115673,42.9369432 L31.9849607,42.9369423 L31.9893904,32.5563526 L32.0119321,32.5564314 C32.011575,32.5403975 32.0113955,32.5243192 32.0113955,32.5081984 C32.0113955,31.3517829 32.9344703,30.414562 34.0728815,30.414562 C35.2112927,30.414562 36.1339387,31.3517829 36.1339387,32.5081984 C36.1339387,32.5291526 36.1336357,32.5500349 36.133034,32.5708408 Z M54.6971715,34.7897362 C55.9691856,34.7897362 57,35.8161209 57,37.0824194 C57,38.348575 55.9691856,39.3749598 54.6971715,39.3749598 C53.4251574,39.3749598 52.3944858,38.348575 52.3944858,37.0824194 C52.394343,35.8164067 53.4250145,34.7897362 54.6971715,34.7897362 Z" id="Combined-Shape" fill="#FFFFFF"></path>
                </g>
            </g>
        </g>
    </g>
</svg>