<?xml version="1.0" encoding="UTF-8"?>
<svg width="70px" height="70px" viewBox="0 0 70 70" version="1.1" xmlns="http://www.w3.org/2000/svg" xmlns:xlink="http://www.w3.org/1999/xlink">
    <!-- Generator: Sketch 46.2 (44496) - http://www.bohemiancoding.com/sketch -->
    <title>LastFM</title>
    <desc>Created with Sketch.</desc>
    <defs></defs>
    <g id="Icons" stroke="none" stroke-width="1" fill="none" fill-rule="evenodd">
        <g transform="translate(-289.000000, -290.000000)" id="Icon-Set">
            <g transform="translate(69.000000, 66.000000)">
                <g id="LastFM" transform="translate(220.000000, 224.000000)">
                    <circle id="Oval-1-Copy-21" fill="#C3000D" cx="35" cy="35" r="35"></circle>
                    <path d="M44.4207222,25.0867468 C40.974,25.5947714 38.7639444,28.0881795 38.7639444,30.9802215 C38.7639444,34.8711838 42.4128889,35.9919523 45.1502778,36.8086845 C48.0319444,37.6682388 49.0555,38.1603025 49.0555,39.2164487 C49.0555,40.1071462 48.3395556,40.7518119 46.9329444,41.123974 C44.1356667,41.8597338 40.393,40.9114212 39.3741111,39.2078843 C38.7756111,38.2081853 38.2482778,36.822699 37.6875,35.3511795 C36.0211111,30.9887859 33.7363889,25.0170637 27.1684444,25.0170637 C23.7473889,25.0170637 18,26.4115037 18,35.753317 C18,39.619754 20.8077778,44.6867641 27.0490556,44.6867641 C32.2835,44.6867641 33.1958333,42.7761245 33.4031111,42.4370521 L31.6943333,39.0977149 C31.6515556,39.1576657 30.0598333,41.279301 27.0490556,41.279301 C22.1323333,41.279301 21.9133889,35.8120999 21.9133889,35.753317 C21.9133889,30.9031419 23.4856667,28.8332822 27.1684444,28.8332822 C30.7520556,28.8332822 32.2068889,31.9460521 34.0214444,36.6856686 C34.6397778,38.3140724 35.2297222,39.8506035 35.9954444,41.1325384 C37.6136111,43.8365529 41.3788333,44.8117265 44.8854444,44.8117265 C45.9556667,44.8117265 47.0013889,44.6867641 47.953,44.4352822 C51.0913333,43.6045355 52.9657778,41.8897091 52.9657778,39.2164487 C52.9657778,35.1460232 49.1118889,33.998783 46.2955556,33.1559682 C43.5492222,32.3392359 42.5719444,31.8861013 42.5719444,30.9802215 C42.5719444,29.4693835 44.7571111,28.9006296 45.0052222,28.8620898 C46.3947222,28.6569335 48.6794444,29.2256874 49.2627778,31.0689798 L53,29.9400362 C51.8259444,26.2320406 47.7908333,24.5896223 44.4207222,25.0867468" id="Fill-39" fill="#FFFFFF"></path>
                </g>
            </g>
        </g>
    </g>
</svg>