<?xml version="1.0" encoding="UTF-8"?>
<svg width="70px" height="70px" viewBox="0 0 70 70" version="1.1" xmlns="http://www.w3.org/2000/svg" xmlns:xlink="http://www.w3.org/1999/xlink">
    <!-- Generator: Sketch 46.2 (44496) - http://www.bohemiancoding.com/sketch -->
    <title>Line</title>
    <desc>Created with Sketch.</desc>
    <defs></defs>
    <g id="Icons" stroke="none" stroke-width="1" fill="none" fill-rule="evenodd">
        <g transform="translate(-619.000000, -726.000000)" id="Icon-Set">
            <g transform="translate(69.000000, 66.000000)">
                <g id="Line" transform="translate(550.000000, 660.000000)">
                    <circle id="Oval-1-Copy-58" fill="#3ACE01" cx="35" cy="35" r="35"></circle>
                    <g id="Group-74" transform="translate(17.000000, 18.000000)" fill="#FFFFFF">
                        <path d="M18.6566154,0 C28.9604808,0 37.3133654,6.68863462 37.3133654,14.9394808 C37.3133654,17.8214615 36.2935192,20.5122885 34.5280385,22.7944231 C34.4406731,22.9243269 34.3265192,23.0678269 34.1826154,23.2264038 L34.1717115,23.23825 C33.5686346,23.9597885 32.8895,24.6371731 32.1427885,25.2624615 C26.9835192,30.0312115 18.4914423,35.70875 17.3706346,34.8328077 C16.3962885,34.0714231 18.9753846,30.3472885 15.9998462,29.7275192 C15.7922692,29.7036923 15.5852308,29.6781154 15.3799423,29.6490385 L15.3760385,29.6487692 L15.3760385,29.6485 C6.63667308,28.4069423 -3.55271368e-15,22.2939231 -3.55271368e-15,14.9394808 C-0.000269230769,6.68863462 8.35275,0 18.6566154,0 Z M7.83192308,19.7047308 L7.89451923,19.7047308 L7.91309615,19.7047308 L11.5946923,19.7047308 C12.1299231,19.7047308 12.5676923,19.2668269 12.5676923,18.7315962 L12.5676923,18.6504231 C12.5676923,18.1151923 12.1299231,17.6774231 11.5946923,17.6774231 L8.88609615,17.6774231 L8.88609615,11.5148654 C8.88609615,10.9796346 8.44832692,10.5418654 7.91309615,10.5418654 L7.83192308,10.5418654 C7.29669231,10.5418654 6.85892308,10.9796346 6.85892308,11.5148654 L6.85892308,18.7314615 C6.85892308,19.2668269 7.29669231,19.7047308 7.83192308,19.7047308 Z M31.1479808,15.18125 L31.1479808,15.1000769 C31.1479808,14.5648462 30.7100769,14.1270769 30.1748462,14.1270769 L27.4663846,14.1270769 L27.4663846,12.5864038 L30.1748462,12.5864038 C30.7100769,12.5864038 31.1479808,12.1486346 31.1479808,11.6134038 L31.1479808,11.5322308 C31.1479808,10.997 30.7100769,10.5592308 30.1748462,10.5592308 L26.49325,10.5592308 L26.4746731,10.5592308 L26.4120769,10.5592308 C25.8768462,10.5592308 25.4390769,10.997 25.4390769,11.5322308 L25.4390769,18.7488269 C25.4390769,19.2840577 25.8768462,19.7219615 26.4120769,19.7219615 L26.4746731,19.7219615 L26.49325,19.7219615 L30.1748462,19.7219615 C30.7100769,19.7219615 31.1479808,19.2840577 31.1479808,18.7488269 L31.1479808,18.6676538 C31.1479808,18.1324231 30.7100769,17.6946538 30.1748462,17.6946538 L27.4663846,17.6946538 L27.4663846,16.1539808 L30.1748462,16.1539808 C30.7100769,16.15425 31.1479808,15.7163462 31.1479808,15.18125 Z M23.9117308,19.4146346 L23.912,19.4142308 C24.0856538,19.2381538 24.1933462,18.9969231 24.1933462,18.7317308 L24.1933462,11.5151346 C24.1933462,10.9799038 23.7555769,10.5421346 23.2202115,10.5421346 L23.1390385,10.5421346 C22.6038077,10.5421346 22.1660385,10.9799038 22.1660385,11.5151346 L22.1660385,15.7513462 L18.6490769,11.0341538 C18.4810769,10.7408269 18.1647308,10.5421346 17.8042308,10.5421346 L17.7230577,10.5421346 C17.1878269,10.5421346 16.7499231,10.9799038 16.7499231,11.5151346 L16.7499231,18.7317308 C16.7499231,19.2669615 17.1876923,19.7048654 17.7230577,19.7048654 L17.8042308,19.7048654 C18.3394615,19.7048654 18.7772308,19.2669615 18.7772308,18.7317308 L18.7772308,14.4162308 L22.3195,19.2544423 C22.3413077,19.2883654 22.3651346,19.3209423 22.3908462,19.3519038 L22.3909808,19.3521731 C22.4883077,19.4849038 22.6214423,19.5759038 22.7697885,19.6315 C22.8838077,19.6786154 23.0084615,19.7047308 23.1389038,19.7047308 L23.2200769,19.7047308 C23.3840385,19.7047308 23.5387115,19.6635385 23.6746731,19.5911154 C23.772,19.5448077 23.8539808,19.4850385 23.9117308,19.4146346 Z M14.3260385,19.7047308 L14.4072115,19.7047308 C14.9424423,19.7047308 15.3802115,19.2668269 15.3802115,18.7315962 L15.3802115,11.515 C15.3802115,10.9797692 14.9424423,10.542 14.4072115,10.542 L14.3260385,10.542 C13.7908077,10.542 13.3529038,10.9797692 13.3529038,11.515 L13.3529038,18.7315962 C13.3529038,19.2668269 13.7908077,19.7047308 14.3260385,19.7047308 Z" id="Combined-Shape"></path>
                    </g>
                </g>
            </g>
        </g>
    </g>
</svg>