<?xml version="1.0" encoding="UTF-8"?>
<svg width="70px" height="70px" viewBox="0 0 70 70" version="1.1" xmlns="http://www.w3.org/2000/svg" xmlns:xlink="http://www.w3.org/1999/xlink">
    <!-- Generator: Sketch 46.2 (44496) - http://www.bohemiancoding.com/sketch -->
    <title>Marvel</title>
    <desc>Created with Sketch.</desc>
    <defs></defs>
    <g id="Icons" stroke="none" stroke-width="1" fill="none" fill-rule="evenodd">
        <g transform="translate(-179.000000, -726.000000)" id="Icon-Set">
            <g transform="translate(69.000000, 66.000000)">
                <g id="Marvel" transform="translate(110.000000, 660.000000)">
                    <circle id="Oval-1-Copy-58" fill="#1FB6FF" cx="35" cy="35" r="35"></circle>
                    <path d="M31.959344,29.513404 C33.9639206,29.5350414 30.4348243,39.882485 30.8136622,44.3808633 C31.1958006,48.9192157 36.2457492,47.6125369 35.9252223,44.9999129 C35.3798865,40.5583786 38.3552121,26.6407644 41.3727122,26.6407644 C43.4898765,26.6407644 39.0278051,36.2352999 39.90577,42.3792206 C40.4866791,46.4441175 45.7592361,45.0340193 45.2234355,42.6238332 C43.4510026,34.647335 48.9425007,26.9814617 48.3271185,21.5501082 C48.0579346,19.1736618 46.6206979,18.0114769 45.1830946,18.0001081 C40.1496491,17.9616008 36.2615188,28.2261622 36.2615188,28.2261622 C36.2615188,28.2261622 36.6663948,22.392133 32.7544267,22.1779595 C26.7649017,21.8497312 20.8355213,36.7556977 21.0034862,50.0652643 C21.0570296,54.3113285 26.3713944,53.588126 26.0919419,50.2027901 C25.5722777,43.9070409 29.1021074,29.4829649 31.959344,29.513404 L31.959344,29.513404 Z" id="Shape" fill="#FFFFFF"></path>
                </g>
            </g>
        </g>
    </g>
</svg>