<?xml version="1.0" encoding="UTF-8"?>
<svg width="70px" height="70px" viewBox="0 0 70 70" version="1.1" xmlns="http://www.w3.org/2000/svg" xmlns:xlink="http://www.w3.org/1999/xlink">
    <!-- Generator: Sketch 46.2 (44496) - http://www.bohemiancoding.com/sketch -->
    <title>Mastercard</title>
    <desc>Created with Sketch.</desc>
    <defs></defs>
    <g id="Icons" stroke="none" stroke-width="1" fill="none" fill-rule="evenodd">
        <g transform="translate(-839.000000, -617.000000)" id="Icon-Set">
            <g transform="translate(69.000000, 66.000000)">
                <g id="Mastercard" transform="translate(770.000000, 551.000000)">
                    <circle id="Oval-1-Copy-56" fill="#FCB231" cx="35" cy="35" r="35"></circle>
                    <g id="Page-1" transform="translate(15.000000, 23.000000)" fill="#FFFFFF">
                        <path d="M19.2024606,2.43797618 L19.1233109,2.37578711 L18.6554118,2.0409972 L18.1713782,1.73040896 L17.6712101,1.44402241 L17.1589412,1.18183754 L16.6305378,0.939820728 L16.086,0.726039216 L15.533395,0.536459384 L14.9646555,0.375114846 L14.3878487,0.242005602 L13.7989412,0.137131653 L13.2019664,0.0604929972 L12.5928908,0.0161232493 L11.9797815,-1.12044818e-05 L11.3626387,0.0161232493 L10.753563,0.0604929972 L10.1565882,0.137131653 L9.56364706,0.242005602 L8.98684034,0.375114846 L8.41815686,0.536459384 L7.86146218,0.726039216 L7.31692437,0.939820728 L6.78448739,1.18183754 L6.26818487,1.44402241 L5.76801681,1.73040896 L5.27994958,2.0409972 L4.81205042,2.37578711 L4.36028571,2.7307451 L3.92465546,3.10587115 L3.50919328,3.50116527 L3.10986555,3.91662745 L2.7347395,4.3522577 L2.37978151,4.7999888 L2.0449916,5.26788796 L1.73440336,5.75595518 L1.44398319,6.25208964 L1.18179832,6.76839216 L0.939781513,7.29679552 L0.726,7.83729972 L0.53647619,8.39393838 L0.37507563,8.95864426 L0.241966387,9.53545098 L0.137092437,10.1203249 L0.0604537815,10.7172997 L0.0160840336,11.3223417 L5.60224089e-06,11.935451 L0.0160840336,12.5525938 L0.0604537815,13.1616695 L0.137092437,13.7586443 L0.241966387,14.3515854 L0.37507563,14.9283922 L0.53647619,15.4971317 L0.726,16.0537703 L0.939781513,16.5983081 L1.18179832,17.1307451 L1.44398319,17.6470476 L1.73440336,18.1472157 L2.0449916,18.6352829 L2.37978151,19.1031821 L2.7347395,19.5548908 L3.10986555,19.990577 L3.50919328,20.4060392 L3.92465546,20.8053669 L4.36028571,21.180493 L4.81205042,21.535451 L5.27994958,21.8702409 L5.76801681,22.1808291 L6.26818487,22.4712493 L6.78448739,22.7334342 L7.31692437,22.975451 L7.86146218,23.1892325 L8.41815686,23.3787563 L8.98684034,23.5401569 L9.56364706,23.6732661 L10.1565882,23.7781401 L10.753563,23.8547227 L11.3626387,23.8990364 L11.9797815,23.9151709 L12.5928908,23.8990364 L13.2019664,23.8547227 L13.7989412,23.7781401 L14.3878487,23.6732661 L14.9646555,23.5401569 L15.533395,23.3787563 L16.086,23.1892325 L16.6305378,22.975451 L17.1589412,22.7334342 L17.6712101,22.4712493 L18.1713782,22.1808291 L18.6554118,21.8702409 L19.1233109,21.535451 L19.2003098,21.4749519 L18.8275681,21.1166855 L18.3991363,20.666395 L17.9925633,20.194185 L17.6078491,19.7046094 L17.2493653,19.1974861 L16.9127404,18.668504 L16.602346,18.1264067 L16.3138103,17.5668223 L16.0558769,16.989751 L15.824174,16.3995644 L15.6230734,15.7962625 L15.4482032,15.1798454 L15.3039961,14.5546848 L15.1902698,13.9120371 L15.1072065,13.2650177 L15.0591173,12.6048831 L15.0416303,11.9360049 L15.0591173,11.2714985 L15.1072065,10.6157356 L15.1902698,9.96871622 L15.3039961,9.33481208 L15.4482032,8.70965145 L15.6230734,8.09760608 L15.824174,7.49430421 L16.0558769,6.90848936 L16.3138103,6.33578976 L16.602346,5.77620542 L16.9127404,5.23847984 L17.2493653,4.70949777 L17.6078491,4.20237446 L17.9925633,3.71710991 L18.3991363,3.24496063 L18.8275681,2.7946701 L19.2024606,2.43797618 Z" id="Combined-Shape"></path>
                        <polygon id="Fill-1-Copy" points="27.9770924 -1.12044818e-05 27.3639832 0.0161232493 26.7549076 0.0604929972 26.1579328 0.137131653 25.5690252 0.242005602 24.9922185 0.375114846 24.423479 0.536459384 23.8708739 0.726039216 23.3263361 0.939820728 22.7979328 1.18183754 22.2856639 1.44402241 21.7854958 1.73040896 21.3014622 2.0409972 20.833563 2.37578711 20.3817983 2.7307451 19.9502017 3.10587115 19.5347395 3.50116527 19.1394454 3.91662745 18.7643193 4.3522577 18.4093613 4.7999888 18.078605 5.26788796 17.7680168 5.75595518 17.4816303 6.25208964 17.2154118 6.76839216 16.9774286 7.29679552 16.7636471 7.83729972 16.5781008 8.39393838 16.4167563 8.95864426 16.2837031 9.53545098 16.1787731 10.1203249 16.1021345 10.7172997 16.0577647 11.3223417 16.0416303 11.935451 16.0577647 12.5525938 16.1021345 13.1616695 16.1787731 13.7586443 16.2837031 14.3515854 16.4167563 14.9283922 16.5781008 15.4971317 16.7636471 16.0537703 16.9774286 16.5983081 17.2154118 17.1307451 17.4816303 17.6470476 17.7680168 18.1472157 18.078605 18.6352829 18.4093613 19.1031821 18.7643193 19.5548908 19.1394454 19.990577 19.5347395 20.4060392 19.9502017 20.8053669 20.3817983 21.180493 20.833563 21.535451 21.3014622 21.8702409 21.7854958 22.1808291 22.2856639 22.4712493 22.7979328 22.7334342 23.3263361 22.975451 23.8708739 23.1892325 24.423479 23.3787563 24.9922185 23.5401569 25.5690252 23.6732661 26.1579328 23.7781401 26.7549076 23.8547227 27.3639832 23.8990364 27.9770924 23.9151709 28.5942353 23.8990364 29.2033109 23.8547227 29.8002857 23.7781401 30.3932829 23.6732661 30.9700336 23.5401569 31.5387731 23.3787563 32.0954118 23.1892325 32.6399496 22.975451 33.1723866 22.7334342 33.6886891 22.4712493 34.1888571 22.1808291 34.6769244 21.8702409 35.1448235 21.535451 35.5965882 21.180493 36.0322185 20.8053669 36.4477367 20.4060392 36.8470084 19.990577 37.2221345 19.5548908 37.5770924 19.1031821 37.9118824 18.6352829 38.2224706 18.1472157 38.5128908 17.6470476 38.7750756 17.1307451 39.0170924 16.5983081 39.2308739 16.0537703 39.4204538 15.4971317 39.5817983 14.9283922 39.7149076 14.3515854 39.8197815 13.7586443 39.8964202 13.1616695 39.9407899 12.5525938 39.9569244 11.935451 39.9407899 11.3223417 39.8964202 10.7172997 39.8197815 10.1203249 39.7149076 9.53545098 39.5817983 8.95864426 39.4204538 8.39393838 39.2308739 7.83729972 39.0170924 7.29679552 38.7750756 6.76839216 38.5128908 6.25208964 38.2224706 5.75595518 37.9118824 5.26788796 37.5770924 4.7999888 37.2221345 4.3522577 36.8470084 3.91662745 36.4477367 3.50116527 36.0322185 3.10587115 35.5965882 2.7307451 35.1448235 2.37578711 34.6769244 2.0409972 34.1888571 1.73040896 33.6886891 1.44402241 33.1723866 1.18183754 32.6399496 0.939820728 32.0954118 0.726039216 31.5387731 0.536459384 30.9700336 0.375114846 30.3932829 0.242005602 29.8002857 0.137131653 29.2033109 0.0604929972 28.5942353 0.0161232493"></polygon>
                    </g>
                </g>
            </g>
        </g>
    </g>
</svg>