<?xml version="1.0" encoding="UTF-8"?>
<svg width="70px" height="70px" viewBox="0 0 70 70" version="1.1" xmlns="http://www.w3.org/2000/svg" xmlns:xlink="http://www.w3.org/1999/xlink">
    <!-- Generator: Sketch 46.2 (44496) - http://www.bohemiancoding.com/sketch -->
    <title>Me</title>
    <desc>Created with Sketch.</desc>
    <defs></defs>
    <g id="Icons" stroke="none" stroke-width="1" fill="none" fill-rule="evenodd">
        <g transform="translate(-1059.000000, -66.000000)" id="Icon-Set">
            <g transform="translate(69.000000, 66.000000)">
                <g id="Me" transform="translate(990.000000, 0.000000)">
                    <circle id="Oval-1-Copy-8" fill="#EEB111" cx="35" cy="35" r="35"></circle>
                    <path d="M44.6130769,33.8272353 C44.7252564,32.2407253 45.9107692,30.3528142 48.4208974,30.3528142 C51.1001923,30.3528142 52.2,32.2676762 52.2852564,33.8272353 L44.6130769,33.8272353 Z M48.4487179,28 C44.415641,28 41.5384615,31.0912691 41.5384615,34.9214422 C41.5384615,39.1069181 44.5560897,41.8707336 48.6744231,41.8702844 C50.8175,41.8702844 52.8205769,41.1866297 54.2026282,39.9275732 L52.8492949,38.0396621 C51.8621154,38.9973177 50.3108974,39.5174702 48.9566667,39.5174702 C46.3895513,39.5174702 44.8670513,37.8492091 44.6408974,35.8786486 L55.1341667,35.8786486 L55.1341667,35.1675938 C55.1341667,31.0090688 52.5383333,28 48.4487179,28 L48.4487179,28 Z" id="Fill-179" fill="#FFFFFF"></path>
                    <path d="M23.7303205,32.2950763 C24.3513462,31.4465719 25.5642308,30.5441656 26.8897436,30.5441656 C28.4975,30.5441656 29.1185256,31.5018212 29.1185256,32.9239308 L29.1185256,41.5414834 L32.0805128,41.5414834 L32.0805128,32.2950763 C32.6723718,31.419621 33.9144231,30.5441656 35.2399359,30.5441656 C36.8472436,30.5441656 37.4960897,31.5018212 37.4960897,32.9239308 L37.4960897,41.5414834 L40.4571795,41.5414834 L40.4571795,31.9936753 C40.4571795,29.3129584 39.0194872,28 36.5362821,28 C34.4780128,28 32.6723718,29.2307581 31.9108974,30.4071652 C31.4594872,28.9846065 30.2178846,28 28.1878846,28 C26.1004487,28 24.3235256,29.3129584 23.7303205,30.1066626 L23.7303205,28.3279027 L20.7692308,28.3279027 L20.7692308,41.5414834 L23.7303205,41.5414834 L23.7303205,32.2950763 Z" id="Fill-180" fill="#FFFFFF"></path>
                    <path d="M16.974359,41.0604932 C18.0463462,41.0604932 18.9491667,40.1571886 18.9491667,39.1182311 C18.9491667,38.1057754 18.0463462,37.2307692 16.974359,37.2307692 C15.9023718,37.2307692 15,38.1057754 15,39.1182311 C15,40.1571886 15.9023718,41.0609423 16.974359,41.0604932" id="Fill-181" fill="#FFFFFF"></path>
                </g>
            </g>
        </g>
    </g>
</svg>