<?xml version="1.0" encoding="UTF-8"?>
<svg width="70px" height="70px" viewBox="0 0 70 70" version="1.1" xmlns="http://www.w3.org/2000/svg" xmlns:xlink="http://www.w3.org/1999/xlink">
    <!-- Generator: Sketch 46.2 (44496) - http://www.bohemiancoding.com/sketch -->
    <title>Mixi</title>
    <desc>Created with Sketch.</desc>
    <defs></defs>
    <g id="Icons" stroke="none" stroke-width="1" fill="none" fill-rule="evenodd">
        <g transform="translate(-509.000000, -617.000000)" id="Icon-Set">
            <g transform="translate(69.000000, 66.000000)">
                <g id="Mixi" transform="translate(440.000000, 551.000000)">
                    <circle id="Oval-1-Copy-53" fill="#D1AC59" cx="35" cy="35" r="35"></circle>
                    <path d="M45.4901233,40.4291451 L45.4870121,40.4291451 L42.2728455,40.4291451 L42.2728455,31.7717051 C42.2728455,31.4256255 42.242901,31.0966747 42.1810677,30.7984779 C42.1305121,30.537653 42.0336788,30.3215966 41.8936788,30.1351262 C41.7602899,29.9603346 41.5635121,29.8178542 41.3146233,29.709242 C41.0486233,29.5932333 40.6780121,29.5348397 40.2241788,29.5348397 C39.2811233,29.5348397 38.5449566,29.7793144 38.0300677,30.2596993 C37.5175121,30.7365807 37.2717344,31.3648961 37.2717344,32.1804605 L37.2717344,40.4291451 L34.0587344,40.4291451 L34.0587344,31.7717051 C34.0587344,31.4120003 34.0245121,31.0818817 33.9572344,30.7879671 C33.8973455,30.5216921 33.7958455,30.3001856 33.653901,30.1117688 C33.5181788,29.9350307 33.3400677,29.7987789 33.1024566,29.6963954 C32.8504566,29.590119 32.5066788,29.5348397 32.0847344,29.5348397 C31.5367899,29.5348397 31.0658455,29.6360553 30.6921233,29.834983 C30.300901,30.0436429 29.9804566,30.2927891 29.7401233,30.5758035 C29.5009566,30.8623216 29.3259566,31.1593506 29.2190121,31.4587152 C29.1097344,31.7600264 29.0564566,32.0029439 29.0564566,32.1804605 L29.0564566,40.4291451 L25.8465677,40.4291451 L25.8465677,26.9791451 L28.9296788,26.9791451 L28.9296788,28.0290626 C29.9345677,27.1399222 31.2186788,26.6918484 32.7512899,26.6918484 C33.6465121,26.6918484 34.4709566,26.8705329 35.2059566,27.2220626 C35.7422344,27.4786053 36.1770121,27.8628354 36.499401,28.3646313 C36.9030677,27.9309613 37.3841233,27.5735922 37.9254566,27.3006993 C38.7222899,26.8950582 39.6066233,26.6918484 40.5551233,26.6918484 C41.2601788,26.6918484 41.9115677,26.7654244 42.4917899,26.912187 C43.0910677,27.0624533 43.6187899,27.3061494 44.0578455,27.6331537 C44.5093455,27.9695011 44.8663455,28.4132927 45.1160121,28.9446747 C45.3641233,29.4698281 45.4901233,30.0969757 45.4901233,30.8124924 L45.4901233,40.4291451 Z M33.7052344,19.1586805 C24.0790677,20.3382319 17.1051233,27.7394302 18.0932899,35.6918643 C18.9892899,42.9291711 26.1588455,48.1262044 34.703901,48.1188079 L36.3765121,48.1188079 L36.3765121,51.8633969 C47.7931233,50.6678846 53.8815677,39.3803954 52.8965121,31.427572 C51.9087344,23.47397 43.3387899,17.9822435 33.7052344,19.1586805 L33.7052344,19.1586805 Z" id="Fill-142" fill="#FFFFFF"></path>
                </g>
            </g>
        </g>
    </g>
</svg>