<?xml version="1.0" encoding="UTF-8"?>
<svg width="70px" height="70px" viewBox="0 0 70 70" version="1.1" xmlns="http://www.w3.org/2000/svg" xmlns:xlink="http://www.w3.org/1999/xlink">
    <!-- Generator: Sketch 46.2 (44496) - http://www.bohemiancoding.com/sketch -->
    <title>Myspace</title>
    <desc>Created with Sketch.</desc>
    <defs></defs>
    <g id="Icons" stroke="none" stroke-width="1" fill="none" fill-rule="evenodd">
        <g transform="translate(-839.000000, -399.000000)" id="Icon-Set">
            <g transform="translate(69.000000, 66.000000)">
                <g id="Myspace" transform="translate(770.000000, 333.000000)">
                    <circle id="Oval-1-Copy-36" fill="#000000" cx="35" cy="35" r="35"></circle>
                    <g id="Group-18" transform="translate(18.000000, 24.000000)" fill="#FFFFFF">
                        <path d="M8.02705556,9.83621274 L8.02705556,5.21688712 C8.02705556,4.31139653 8.09394444,3.64882344 8.22694444,3.22877858 C8.36033333,2.80912301 8.57772222,2.49068307 8.8795,2.27345876 C9.18088889,2.05584515 9.5025,1.947233 9.84472222,1.947233 C10.3145,1.947233 10.5633889,2.12864255 10.7893333,2.49068307 C10.7893333,4.33514327 10.8437778,9.83621274 10.8437778,9.83621274 L13.0896111,9.83621274 L13.0896111,3.68658466 C13.0896111,2.0624631 12.852,1.08183936 11.7848889,0.430166425 C11.3155,0.143259045 11.2361667,0 10.5579444,0 C10.0243889,0 9.52272222,0.126908828 9.05333333,0.380337192 C8.58355556,0.634154848 8.14605556,1.01760637 7.74005556,1.53069175 C7.462,1.01760637 7.10538889,0.634154848 6.67061111,0.380337192 C6.23544444,0.126908828 5.7225,0 5.131,0 C4.018,0 3.05822222,0.510360347 2.25244444,1.53069175 L2.25244444,0.217224313 L0,0.217224313 L0,9.83621274 L2.44377778,9.83621274 L2.44377778,5.1623864 C2.44377778,4.23898842 2.50911111,3.57758321 2.63938889,3.17894935 C2.76966667,2.78070478 2.98588889,2.47550072 3.28727778,2.26450507 C3.58866667,2.05312012 3.92777778,1.947233 4.305,1.947233 C4.61805556,1.947233 4.86577778,2.01380174 5.04855556,2.14654993 C5.23094444,2.27968741 5.66261111,2.48172938 5.74972222,2.75345441 C5.83644444,3.02517945 5.88038889,3.6293589 5.88038889,4.56482489 L5.88038889,9.83621274 L8.02705556,9.83621274 Z" id="Fill-77"></path>
                        <path d="M16.4976111,11.1344978 C16.2145,11.1344978 15.6233889,11.0963473 15.2710556,11.0204356 L15.2889444,13.0505876 C15.7054444,13.1498567 16.4035,13.1000275 16.8359444,13.1000275 C17.2629444,13.1000275 17.8283889,13.0501983 18.1675,12.9509291 C18.5066111,12.8512706 18.7924444,12.7122938 19.0246111,12.5339986 C19.2567778,12.355314 19.4625,12.1229074 19.6413889,11.8363893 C19.8202778,11.5498712 20.0085,11.1344978 20.2060556,10.5906585 L20.7427222,8.96731548 L23.7461111,0 L21.4155,0 L19.4290556,6.61599855 L17.3947778,0 L15,0 L18.2355556,9.34453835 C18.1021667,9.86502026 17.9100556,10.2936295 17.6588333,10.6299768 C17.408,10.9663242 17.0210556,11.1344978 16.4976111,11.1344978" id="Fill-78"></path>
                        <polygon id="Fill-79" points="32.7969444 16.0050608 32.7969444 19.2875615 2.191 19.2875615 2.18594444 16 0.0233333333 16 0 21.4601939 35 21.4601939 34.9832778 16.0050608"></polygon>
                    </g>
                </g>
            </g>
        </g>
    </g>
</svg>