<?xml version="1.0" encoding="UTF-8"?>
<svg width="70px" height="70px" viewBox="0 0 70 70" version="1.1" xmlns="http://www.w3.org/2000/svg" xmlns:xlink="http://www.w3.org/1999/xlink">
    <!-- Generator: Sketch 46.2 (44496) - http://www.bohemiancoding.com/sketch -->
    <title>Netflix</title>
    <desc>Created with Sketch.</desc>
    <defs></defs>
    <g id="Icons" stroke="none" stroke-width="1" fill="none" fill-rule="evenodd">
        <g transform="translate(-399.000000, -726.000000)" id="Icon-Set">
            <g transform="translate(69.000000, 66.000000)">
                <g id="Netflix" transform="translate(330.000000, 660.000000)">
                    <circle id="Oval-1-Copy-58" fill="#B81D24" cx="35" cy="35" r="35"></circle>
                    <path d="M49.2940939,39.9130259 L51.3240291,34.8907767 L49.6043689,30.0052589 L51.2714401,30.0052589 L52.2180421,32.6872977 L53.2961165,30.0262945 L53.3118932,30 L55,30 L53.006877,34.9223301 L55,40.5809061 C54.421521,40.4967638 53.8377832,40.4231392 53.2540453,40.3495146 L52.118123,37.1258091 L50.9243528,40.0813107 C50.3826861,40.0234628 49.8357605,39.9656149 49.2940939,39.9130259 Z M48.0319579,39.7973301 C47.4797735,39.7447411 46.9223301,39.7026699 46.3648867,39.6553398 L46.3648867,30 L48.0319579,30 L48.0319579,39.7973301 Z M35.5157767,39.2451456 C35.4053398,39.2451456 35.3001618,39.2504045 35.1897249,39.2451456 L35.1897249,30 L39.1654531,30 L39.1654531,31.5355987 L36.862055,31.5355987 L36.862055,34.1229773 L38.8656958,34.1229773 L38.8656958,35.6533172 L36.862055,35.6533172 L36.862055,39.2504045 C36.4150485,39.2504045 35.9680421,39.2451456 35.5157767,39.2451456 Z M30.3410194,39.3398058 L30.3410194,31.5355987 L28.7843851,31.5355987 L28.7843851,30 L33.5647249,30 L33.5647249,31.5355987 L32.0080906,31.5355987 L32.0080906,39.2872168 C31.4506472,39.3029935 30.8984628,39.3187702 30.3410194,39.3398058 Z M17.5987055,40.3758091 C17.0675566,40.4389159 16.5364078,40.5125405 16.0105178,40.5809061 L16,40.5809061 L16,30 L17.5987055,30 L17.6670712,30 L19.7969256,36.0424757 L19.7969256,30 L21.3956311,30 L21.3956311,39.9445793 C20.7855987,40.0076861 20.1755663,40.0707929 19.5707929,40.1391586 L17.5987055,34.5384304 L17.5987055,40.3758091 Z M27.1751618,31.5355987 L24.8665049,31.5355987 L24.8665049,34.1229773 L26.8701456,34.1229773 L26.8701456,35.6585761 L24.8665049,35.6585761 L24.8665049,38.1092233 C25.6343042,38.0513754 26.4021036,37.9987864 27.1699029,37.9567152 L27.1699029,39.0505663 L27.1699029,39.4923139 C25.8394013,39.5711974 24.5141586,39.6658576 23.1941748,39.7815534 L23.1941748,38.2459547 L23.1941748,30 L27.1751618,30 L27.1751618,31.5355987 Z M42.473301,37.8830906 C43.2411003,37.9199029 44.0088997,37.9619741 44.7819579,38.019822 L44.7819579,39.0558252 L44.7819579,39.5501618 C43.4567152,39.4607605 42.1314725,39.3923948 40.8009709,39.3450647 L40.8009709,37.809466 L40.8009709,30 L42.473301,30 L42.473301,37.8830906 Z" id="Combined-Shape" fill="#FFFFFF"></path>
                </g>
            </g>
        </g>
    </g>
</svg>