<?xml version="1.0" encoding="UTF-8"?>
<svg width="70px" height="70px" viewBox="0 0 70 70" version="1.1" xmlns="http://www.w3.org/2000/svg" xmlns:xlink="http://www.w3.org/1999/xlink">
    <!-- Generator: Sketch 46.2 (44496) - http://www.bohemiancoding.com/sketch -->
    <title>Ok.ru</title>
    <desc>Created with Sketch.</desc>
    <defs></defs>
    <g id="Icons" stroke="none" stroke-width="1" fill="none" fill-rule="evenodd">
        <g transform="translate(-1180.000000, -508.000000)" id="Icon-Set">
            <g transform="translate(69.000000, 66.000000)">
                <g id="Ok.ru" transform="translate(1111.000000, 442.000000)">
                    <circle id="Oval-1-Copy-59" fill="#F58220" cx="35" cy="35" r="35"></circle>
                    <g id="Group-84" transform="translate(25.000000, 18.000000)" fill="#FFFFFF">
                        <path d="M13.7687988,25.4011704 C15.6034277,24.9824447 17.3699391,24.2542263 18.99572,23.2301691 C20.2263745,22.4518856 20.5987497,20.8225423 19.8221658,19.5845254 C19.0456274,18.346554 17.4199373,17.973342 16.1846962,18.7516255 C12.4972738,21.0773732 7.75176107,21.0728218 4.0643387,18.7516255 C2.82918844,17.973342 1.20340755,18.346554 0.426869092,19.5845254 C-0.349669363,20.8179454 0.0227058028,22.4518856 1.25336031,23.2301691 C2.87909579,24.2542263 4.64560725,24.9824447 6.48023611,25.4011704 L1.45317138,30.4440832 C0.422373343,31.4771977 0.422373343,33.1475488 1.45317138,34.1807542 C1.97086368,34.6950585 2.64295544,34.9544863 3.3150472,34.9544863 C3.99168013,34.9544863 4.66377189,34.6950585 5.1815096,34.1807542 L10.126788,29.2243173 L15.0721119,34.1807542 C16.1029553,35.2139142 17.7695612,35.2139142 18.8004047,34.1807542 C19.8312481,33.1475943 19.8312481,31.4726918 18.8004047,30.4440832 L13.7687988,25.4011704" id="Shape"></path>
                        <path d="M10.126788,5.28868661 C12.1839792,5.28868661 13.8551263,6.96358908 13.8551263,9.02535761 C13.8551263,11.0825748 12.1839792,12.7574772 10.126788,12.7574772 C8.07422888,12.7574772 6.39849522,11.0825748 6.39849522,9.02535761 C6.39849522,6.96358908 8.07422888,5.28868661 10.126788,5.28868661 L10.126788,5.28868661 Z M10.126788,18.0416125 C15.0903219,18.0416125 19.1273683,13.9954486 19.1273683,9.02531209 C19.1273683,4.04616385 15.0903219,0 10.126788,0 C5.16329955,0 1.12625323,4.04616385 1.12625323,9.02080624 C1.12625323,13.9954486 5.16329955,18.0416125 10.126788,18.0416125 L10.126788,18.0416125 Z" id="Shape"></path>
                    </g>
                </g>
            </g>
        </g>
    </g>
</svg>