<?xml version="1.0" encoding="UTF-8"?>
<svg width="70px" height="70px" viewBox="0 0 70 70" version="1.1" xmlns="http://www.w3.org/2000/svg" xmlns:xlink="http://www.w3.org/1999/xlink">
    <!-- Generator: Sketch 46.2 (44496) - http://www.bohemiancoding.com/sketch -->
    <title>PayPal</title>
    <desc>Created with Sketch.</desc>
    <defs></defs>
    <g id="Icons" stroke="none" stroke-width="1" fill="none" fill-rule="evenodd">
        <g transform="translate(-289.000000, -508.000000)" id="Icon-Set">
            <g transform="translate(69.000000, 66.000000)">
                <g id="PayPal" transform="translate(220.000000, 442.000000)">
                    <circle id="Oval-1-Copy-41" fill="#253B80" cx="35" cy="35" r="35"></circle>
                    <g id="Group-22" transform="translate(20.000000, 17.000000)" fill="#FFFFFF">
                        <path d="M14.7528391,20.2208321 L11.5973947,20.2208321 C10.8394502,20.2208321 10.2008947,20.7603893 10.0830613,21.4930347 L8.46722801,31.5351823 L8.00989468,34.3816773 C7.93328357,34.8624515 8.31128357,35.2965109 8.80672801,35.2965109 L14.403228,35.2965109 C15.0658947,35.2965109 15.6290058,34.824301 15.733228,34.1839175 L15.7880613,33.9051852 L16.8419502,27.3510839 L16.9096169,26.9917685 C17.0126725,26.3490492 17.5769502,25.8768394 18.2396169,25.8768394 L19.0765058,25.8768394 C24.4987836,25.8768394 28.7431169,23.719 29.9836725,17.4755528 C30.5020613,14.8673039 30.233728,12.6892214 28.8625058,11.1577511 C28.4475613,10.6956628 27.9326725,10.3126006 27.3306725,10 C27.2983947,10.2012634 27.2618391,10.406809 27.2206169,10.6181939 C25.8023391,17.7550637 20.9501725,20.2208321 14.7528391,20.2208321" id="Fill-87"></path>
                        <path d="M16.7651685,0 L6.01044632,0 C5.25366854,0 4.60811298,0.539167873 4.49144632,1.27298119 L0.0114463152,29.1037757 C-0.0768314626,29.654233 0.356779648,30.1509682 0.92339076,30.1509682 L7.56289076,30.1509682 L9.23005743,19.784152 L9.1783352,20.1088205 C9.29655743,19.3761751 9.93511298,18.8370072 10.6930574,18.8370072 L13.8485019,18.8370072 C20.0454463,18.8370072 24.8980019,16.3700709 26.3162796,9.23436903 C26.3586685,9.02298408 26.3940574,8.8170492 26.4259463,8.61617511 C26.0673908,8.42970478 26.0685574,8.43048336 26.427113,8.61617511 C26.8494463,5.97834009 26.4240019,4.18254124 24.9687796,2.55647323 C23.364613,0.766513748 20.4697241,0 16.7651685,0" id="Fill-88"></path>
                    </g>
                </g>
            </g>
        </g>
    </g>
</svg>