<?xml version="1.0" encoding="UTF-8"?>
<svg width="70px" height="70px" viewBox="0 0 70 70" version="1.1" xmlns="http://www.w3.org/2000/svg" xmlns:xlink="http://www.w3.org/1999/xlink">
    <!-- Generator: Sketch 46.2 (44496) - http://www.bohemiancoding.com/sketch -->
    <title>Periscope</title>
    <desc>Created with Sketch.</desc>
    <defs></defs>
    <g id="Icons" stroke="none" stroke-width="1" fill="none" fill-rule="evenodd">
        <g transform="translate(-289.000000, -726.000000)" id="Icon-Set">
            <g transform="translate(69.000000, 66.000000)">
                <g id="Periscope" transform="translate(220.000000, 660.000000)">
                    <circle id="Oval-1-Copy-58" fill="#3FA4C4" cx="35" cy="35" r="35"></circle>
                    <path d="M48.3362741,31.6680167 C48.3362741,41.8313644 37.4063854,53 34.6682574,53 C31.9303701,53 21,41.8313644 21,31.6680167 C21,24.1193322 27.1193322,18 34.6682574,18 C42.2174233,18 48.3362741,24.1193322 48.3362741,31.6680167 Z M34.6682574,23.4201793 C34.0109815,23.4201793 33.3724781,23.4988792 32.7594859,23.6435232 C33.871151,24.1886458 34.638414,25.3277474 34.638414,26.6492787 C34.638414,28.4990854 33.1387854,29.9987141 31.2889786,29.9987141 C29.5082447,29.9987141 28.0560285,28.6078693 27.949892,26.8538501 C26.9602478,28.219665 26.3751736,29.8976318 26.3751736,31.7132631 C26.3751736,36.2934963 30.0880241,40.0063469 34.6682574,40.0063469 C39.2484906,40.0063469 42.9613412,36.2934963 42.9613412,31.7132631 C42.9613412,27.1330299 39.2484906,23.4201793 34.6682574,23.4201793 Z" id="Combined-Shape" fill="#FFFFFF"></path>
                </g>
            </g>
        </g>
    </g>
</svg>