<?xml version="1.0" encoding="UTF-8"?>
<svg width="70px" height="70px" viewBox="0 0 70 70" version="1.1" xmlns="http://www.w3.org/2000/svg" xmlns:xlink="http://www.w3.org/1999/xlink">
    <!-- Generator: Sketch 46.2 (44496) - http://www.bohemiancoding.com/sketch -->
    <title>Pinterest</title>
    <desc>Created with Sketch.</desc>
    <defs></defs>
    <g id="Icons" stroke="none" stroke-width="1" fill="none" fill-rule="evenodd">
        <g transform="translate(-619.000000, -66.000000)" id="Icon-Set">
            <g transform="translate(69.000000, 66.000000)">
                <g id="Pinterest" transform="translate(550.000000, 0.000000)">
                    <circle id="Oval-1-Copy-4" fill="#CC2127" cx="35" cy="35" r="35"></circle>
                    <path d="M35.5,17 C25.8357222,17 18,24.843822 18,34.5180897 C18,41.7289247 22.3536111,47.9217641 28.5711667,50.6109855 C28.5264444,49.38978 28.57,47.9334428 28.8787778,46.6129682 C29.2182778,45.1877742 31.1409444,37.0329088 31.1409444,37.0329088 C31.1409444,37.0329088 30.5793889,35.909026 30.5793889,34.2498683 C30.5793889,31.6470695 32.0894444,29.6990579 33.9662222,29.6990579 C35.5641667,29.6990579 36.3365,30.9027453 36.3365,32.3411751 C36.3365,33.9481679 35.3121667,36.3516498 34.7832778,38.5780043 C34.3453889,40.4427077 35.7212778,41.9652243 37.5583889,41.9652243 C40.8833889,41.9652243 43.123,37.6873068 43.123,32.6160145 C43.123,28.7647598 40.5341667,25.8789465 35.8173333,25.8789465 C30.4915,25.8789465 27.1688333,29.8563314 27.1688333,34.3000868 C27.1688333,35.8311679 27.6215,36.9130072 28.3296667,37.7480362 C28.6543889,38.1322663 28.6983333,38.2872041 28.5797222,38.7298278 C28.4941667,39.0513821 28.3051667,39.8299638 28.2238889,40.1410072 C28.1076111,40.5859667 27.7455556,40.7420724 27.3438333,40.5785702 C24.8915,39.5777033 23.7466111,36.887314 23.7466111,33.8636918 C23.7466111,28.8683111 27.9547778,22.8794602 36.2991667,22.8794602 C43.0067222,22.8794602 47.4190556,27.7381997 47.4190556,32.9496368 C47.4190556,39.8502069 43.5877222,45.0005253 37.9426111,45.0005253 C36.046,45.0005253 34.261,43.9739653 33.6531667,42.8107641 C33.6531667,42.8107641 32.63,46.8578321 32.4165,47.6426425 C32.0478333,48.9782996 31.3377222,50.3127887 30.6797222,51.3634848 C32.2092222,51.8010478 33.8262222,52.0361795 35.5,52.0361795 C45.1642778,52.0361795 53,44.1923575 53,34.5180897 C53,24.843822 45.1642778,17 35.5,17" id="Fill-15" fill="#FFFFFF"></path>
                </g>
            </g>
        </g>
    </g>
</svg>