<?xml version="1.0" encoding="UTF-8"?>
<svg width="70px" height="70px" viewBox="0 0 70 70" version="1.1" xmlns="http://www.w3.org/2000/svg" xmlns:xlink="http://www.w3.org/1999/xlink">
    <!-- Generator: Sketch 46.2 (44496) - http://www.bohemiancoding.com/sketch -->
    <title>Pocket</title>
    <desc>Created with Sketch.</desc>
    <defs></defs>
    <g id="Icons" stroke="none" stroke-width="1" fill="none" fill-rule="evenodd">
        <g transform="translate(-1180.000000, -66.000000)" id="Icon-Set">
            <g transform="translate(69.000000, 66.000000)">
                <g id="Pocket" transform="translate(1111.000000, 0.000000)">
                    <circle id="Oval-1-Copy-59" fill="#EF4056" cx="35" cy="35" r="35"></circle>
                    <path d="M20.9150776,22 C19.099325,22.1183325 18,23.1549009 18,24.9985536 L18,36.0397502 C18,45.0076603 26.9192158,52.0553234 34.6348364,51.9996727 C43.3105058,51.9370657 51.3253235,44.6110745 51.3253235,36.0397502 L51.3253235,24.9985536 C51.3253235,23.1479446 50.15651,22.104345 48.3267699,22 L20.9150776,22 L20.9150776,22 Z M27.9419464,30.9818228 L34.6348364,37.3407341 L41.3346828,30.9818228 C44.3332364,29.7225769 45.6411766,33.1455416 44.409756,34.1474032 L35.6853923,42.4751811 C35.4001827,42.7465529 33.8765213,42.7465529 33.5913117,42.4751811 L24.8668732,34.1473284 C23.6910285,33.0411218 25.2216461,29.5625065 27.9419464,30.9818228 L27.9419464,30.9818228 L27.9419464,30.9818228 Z" id="Shape" fill="#FFFFFF"></path>
                </g>
            </g>
        </g>
    </g>
</svg>