<?xml version="1.0" encoding="UTF-8"?>
<svg width="70px" height="70px" viewBox="0 0 70 70" version="1.1" xmlns="http://www.w3.org/2000/svg" xmlns:xlink="http://www.w3.org/1999/xlink">
    <!-- Generator: Sketch 46.2 (44496) - http://www.bohemiancoding.com/sketch -->
    <title>Rdio</title>
    <desc>Created with Sketch.</desc>
    <defs></defs>
    <g id="Icons" stroke="none" stroke-width="1" fill="none" fill-rule="evenodd">
        <g transform="translate(-619.000000, -399.000000)" id="Icon-Set">
            <g transform="translate(69.000000, 66.000000)">
                <g id="Rdio" transform="translate(550.000000, 333.000000)">
                    <circle id="Oval-1-Copy-34" fill="#007DC3" cx="35" cy="35" r="35"></circle>
                    <path d="M33.6482778,49.5720926 C41.7391111,49.5720926 48.2965556,42.9529797 48.2965556,34.7860463 C48.2965556,34.1281447 48.2545556,33.4799754 48.1736667,32.8446527 C52.6447222,31.5276816 55.2658333,26.8055832 53.3828333,26.7105962 C48.5497222,26.4661216 44.4158333,24.132712 41.6313889,22.3890781 C41.3366111,22.1952113 41.0363889,22.0110767 40.7268333,21.8386208 L40.7268333,32.6912721 C40.7268333,36.2797554 38.5478889,39.139097 36.0792222,40.3268234 C32.4932778,42.0525499 28.499,40.969932 27.1561667,37.9081592 C25.8137222,34.8467757 27.6313889,30.9667135 31.2169444,29.2433227 C33.2006667,28.2895601 35.3068889,28.1969088 37.0222778,28.8205528 L37.0222778,20.4017482 C35.9380556,20.1440376 34.8102778,20 33.6482778,20 C25.5593889,20 19,26.6191129 19,34.7860463 C19,42.9529797 25.5593889,49.5720926 33.6482778,49.5720926" id="Fill-74" fill="#FFFFFF"></path>
                </g>
            </g>
        </g>
    </g>
</svg>