<?xml version="1.0" encoding="UTF-8"?>
<svg width="70px" height="70px" viewBox="0 0 70 70" version="1.1" xmlns="http://www.w3.org/2000/svg" xmlns:xlink="http://www.w3.org/1999/xlink">
    <!-- Generator: Sketch 46.2 (44496) - http://www.bohemiancoding.com/sketch -->
    <title>Rss</title>
    <desc>Created with Sketch.</desc>
    <defs></defs>
    <g id="Icons" stroke="none" stroke-width="1" fill="none" fill-rule="evenodd">
        <g transform="translate(-399.000000, -176.000000)" id="Icon-Set">
            <g transform="translate(69.000000, 66.000000)">
                <g id="Rss" transform="translate(330.000000, 110.000000)">
                    <circle id="Oval-1-Copy-12" fill="#FF9845" cx="35" cy="35" r="35"></circle>
                    <path d="M18.2691111,17 C37.327,17 52.9653889,32.6565007 52.9653889,51.6028987 C52.9653889,51.7379826 52.9568333,51.8726773 52.9548889,52.0093184 L46.4499444,52.0093184 C46.4518889,51.8726773 46.4604444,51.7379826 46.4604444,51.6028987 C46.4604444,36.2200695 33.7395,23.4676787 18.2691111,23.4676787 C18.1804444,23.4676787 18.0890556,23.4750753 18,23.4750753 L18,17.0073965 C18.0890556,17.0073965 18.1804444,17 18.2691111,17 Z M34.4305556,51.5722533 C34.4305556,42.6551563 27.2376667,35.4711823 18.2687222,35.4711823 C18.1800556,35.4711823 18.0890556,35.4828611 18,35.4840289 L18,29.0159609 C18.0890556,29.0140145 18.1800556,29 18.2687222,29 C30.824,29 40.9370556,39.0880839 40.9370556,51.5722533 C40.9370556,51.7092836 40.9176111,51.8396961 40.9141111,51.9786729 L34.4103333,51.9786729 C34.4134444,51.8396961 34.4305556,51.7092836 34.4305556,51.5722533 Z M22.9474444,51.8369913 C20.2158889,51.8369913 18,49.6382764 18,46.9190796 C18,44.2033864 20.2158889,42 22.9474444,42 C25.6817222,42 27.8945,44.2033864 27.8945,46.9190796 C27.8945,49.6382764 25.6817222,51.8369913 22.9474444,51.8369913 Z" id="Combined-Shape" fill="#FFFFFF"></path>
                </g>
            </g>
        </g>
    </g>
</svg>