<?xml version="1.0" encoding="UTF-8"?>
<svg width="70px" height="70px" viewBox="0 0 70 70" version="1.1" xmlns="http://www.w3.org/2000/svg" xmlns:xlink="http://www.w3.org/1999/xlink">
    <!-- Generator: Sketch 46.2 (44496) - http://www.bohemiancoding.com/sketch -->
    <title>Shazam</title>
    <desc>Created with Sketch.</desc>
    <defs></defs>
    <g id="Icons" stroke="none" stroke-width="1" fill="none" fill-rule="evenodd">
        <g transform="translate(-729.000000, -290.000000)" id="Icon-Set">
            <g transform="translate(69.000000, 66.000000)">
                <g id="Shazam" transform="translate(660.000000, 224.000000)">
                    <circle id="Oval-1-Copy-25" fill="#0088FF" cx="35" cy="35" r="35"></circle>
                    <path d="M39.5716124,53 C38.7981179,53 38.0291577,52.696002 37.4547561,52.0950136 C36.3356315,50.924776 36.3785003,49.0750258 37.5462647,47.9569316 C37.5891335,47.9140628 41.8875615,43.8048349 44.1493063,41.3062808 C45.2197913,40.1265627 45.7568887,38.6119316 45.6616703,37.0484546 C45.5608873,35.3912021 44.7618364,33.8369997 43.4092001,32.6702658 C41.6336459,31.1358491 38.1262309,30.7947531 35.9331176,32.7617744 C34.6270599,33.9307753 33.0437974,35.6508885 33.0287521,35.6692314 C31.9316801,36.8584301 30.0815177,36.9348934 28.8917006,35.8433861 C27.702708,34.7496118 27.6217105,32.8963579 28.7165154,31.7073652 C28.7894749,31.6273983 30.5062904,29.76116 32.0256619,28.4006919 C36.1905369,24.6659483 43.0149302,24.5919582 47.236895,28.2382849 C49.793157,30.445413 51.3090248,33.449325 51.5074994,36.6933438 C51.6999971,39.8433809 50.6247718,42.8808872 48.4885421,45.2423845 C46.0841759,47.8915978 41.7742063,52.0125734 41.5920137,52.1898197 C41.0258561,52.7295964 40.2974977,53 39.5716124,53 M30.7867929,45.4507519 C28.0763678,45.4507519 25.3704769,44.5552461 23.2919553,42.7597002 C20.7369298,40.5538086 19.220856,37.5511333 19.0213509,34.3056718 C18.8323569,31.1566652 19.9028419,28.1191589 22.0427814,25.7588982 C24.4446743,23.1076238 28.7546439,18.9854116 28.9368366,18.811463 C30.104807,17.6923383 31.9557939,17.7374743 33.0751246,18.9054447 C34.1907456,20.0744456 34.1513804,21.9268752 32.9823795,23.0437328 C32.938274,23.0855711 28.6433498,27.194799 26.3793379,29.6906737 C25.3100895,30.8759566 24.7705189,32.3872901 24.8657373,33.9484999 C24.9677569,35.6069891 25.7668078,37.1624281 27.1182075,38.3306046 C28.8962348,39.8670824 32.4024132,40.2036442 34.5967632,38.2401266 C35.9015842,37.067622 37.4860834,35.3485393 37.5021592,35.3312269 C38.594903,34.1401732 40.4493936,34.0635039 41.6369435,35.1585148 C42.8267606,36.2510525 42.9069336,38.1057492 41.8121288,39.2957724 C41.7391693,39.370999 40.0202927,41.2360006 38.5029823,42.598942 C36.3885993,44.4960953 33.585429,45.4507519 30.7867929,45.4507519" id="path14681" fill="#FFFFFF"></path>
                </g>
            </g>
        </g>
    </g>
</svg>