<?xml version="1.0" encoding="UTF-8"?>
<svg width="70px" height="70px" viewBox="0 0 70 70" version="1.1" xmlns="http://www.w3.org/2000/svg" xmlns:xlink="http://www.w3.org/1999/xlink">
    <!-- Generator: Sketch 46.2 (44496) - http://www.bohemiancoding.com/sketch -->
    <title>Shopify</title>
    <desc>Created with Sketch.</desc>
    <defs></defs>
    <g id="Icons" stroke="none" stroke-width="1" fill="none" fill-rule="evenodd">
        <g transform="translate(-1059.000000, -617.000000)" id="Icon-Set">
            <g transform="translate(69.000000, 66.000000)">
                <g id="Shopify" transform="translate(990.000000, 551.000000)">
                    <circle id="Oval-1-Copy-58" fill="#96BF48" cx="35" cy="35" r="35"></circle>
                    <g id="Group-31" transform="translate(20.000000, 17.000000)" fill="#FFFFFF">
                        <path d="M26.8024444,6.45175398 C26.7137778,6.39413893 26.6173333,6.38323878 26.6173333,6.38323878 L23.8301667,6.173411 L21.7791667,4.11367294 C21.7025556,4.05333285 21.6123333,4.01829667 21.5205556,4 L20,34.8462417 L30.6991111,32.5062142 L26.9195,6.66703184 C26.9195,6.66703184 26.8911111,6.50936903 26.8024444,6.45175398" id="Fill-148"></path>
                        <path d="M16.9423333,5.40495572 C16.9407778,5.2690932 16.9380556,5.13167352 16.933,4.9915288 C16.8929444,3.91358234 16.7475,3.00653459 16.5009444,2.27116411 C16.7688889,2.29880376 17.0142778,2.38795138 17.2363333,2.54678206 C17.8573889,2.99057366 18.3011111,3.8855534 18.6153333,4.88135948 L16.9423333,5.40495572 Z M16.9524444,8.07588046 C16.7747222,8.56794414 16.3080556,8.84784428 15.9106111,8.70069233 C15.5131667,8.55431896 15.3354444,8.03617279 15.5131667,7.54410912 C15.5547778,7.4296576 15.6131111,7.32766339 15.6811667,7.23851577 C15.6628889,7.43432909 15.6434444,7.61340289 15.6236111,7.76016556 C15.5781111,8.08911635 15.806,8.39315253 16.1318889,8.43869957 C16.4573889,8.48463589 16.758,8.25456498 16.8031111,7.92522489 C16.8066111,7.90031028 16.8439444,7.62313517 16.8793333,7.18829725 C17.0306111,7.4210932 17.0695,7.75315832 16.9524444,8.07588046 L16.9524444,8.07588046 Z M14.7972222,16.5098674 C14.6405,16.4327878 14.4553889,16.3506475 14.2457778,16.2720107 C14.0377222,16.1941525 13.8067222,16.119798 13.5555,16.0579007 C13.307,15.9960035 13.0398333,15.9465635 12.7575,15.9169774 C12.4786667,15.8881699 12.1850556,15.8784376 11.8817222,15.8967343 C11.6028889,15.9130845 11.3501111,15.963303 11.1276667,16.043497 C10.9071667,16.1229123 10.7158333,16.232303 10.5583333,16.3681656 C10.4012222,16.5032495 10.2771667,16.6651945 10.1896667,16.8508863 C10.1025556,17.0361887 10.0516111,17.2456272 10.0415,17.4776446 C10.0341111,17.6489326 10.0605556,17.8136026 10.1204444,17.9736012 C10.1799444,18.1343783 10.2736667,18.2912625 10.4008333,18.4473682 C10.5283889,18.6042524 10.6901667,18.7607473 10.8865556,18.9199673 C11.0845,19.0803551 11.3178333,19.2438573 11.5869444,19.4139774 C11.9641667,19.6584521 12.3499444,19.9336808 12.7166667,20.2493957 C13.0888333,20.5701713 13.4411667,20.9318226 13.7437222,21.3440816 C14.0501667,21.7610122 14.3045,22.2277719 14.4763889,22.7517575 C14.6494444,23.2792466 14.7373333,23.8616258 14.7097222,24.5035664 C14.6642222,25.5527054 14.4367222,26.4570281 14.0602778,27.2071916 C13.6888889,27.9484014 13.1759444,28.5303913 12.5583889,28.9519933 C11.9540556,29.3646417 11.2544444,29.6204058 10.4933889,29.7231786 C9.75411111,29.8232263 8.96116667,29.7788472 8.14411111,29.5962698 L8.12505556,29.5915983 L8.10561111,29.5877054 L8.08577778,29.5830339 L8.06672222,29.5787517 C7.68327778,29.4845433 7.31383333,29.3626952 6.96616667,29.2209933 C6.62394444,29.0808486 6.30233333,28.9216287 6.00988889,28.7495621 C5.72094444,28.579442 5.45961111,28.3968645 5.23327778,28.2080585 C5.00966667,28.0215881 4.81911111,27.8284999 4.66977778,27.6350223 L5.57161111,24.6106214 C5.72366667,24.7406446 5.90994444,24.8881858 6.12188889,25.0388414 C6.33577778,25.1910541 6.5765,25.3467705 6.83433333,25.4927546 C7.09488889,25.6399065 7.37372222,25.7761583 7.65994444,25.8874955 C7.95044444,25.9996113 8.24911111,26.0860339 8.54505556,26.1300237 C8.80638889,26.1693421 9.04011111,26.1615563 9.24466667,26.1148414 C9.45038889,26.0677372 9.62616667,25.9813146 9.77005556,25.8633595 C9.91472222,25.7450151 10.0267222,25.5951381 10.1052778,25.4230715 C10.1834444,25.2506156 10.2277778,25.0555809 10.2367222,24.8476996 C10.2456667,24.6398182 10.227,24.4436156 10.1748889,24.2532524 C10.1235556,24.0632784 10.0387778,23.8791438 9.91744444,23.6942307 C9.79611111,23.5100961 9.63822222,23.3259615 9.4395,23.135209 C9.24233333,22.9460136 9.0055,22.7509789 8.72511111,22.5438761 C8.38094444,22.2842191 8.05738889,22.0027618 7.76766667,21.6963899 C7.48144444,21.3935216 7.22788889,21.0661279 7.01983333,20.7107054 C6.81372222,20.3587864 6.65194444,19.9776706 6.54694444,19.5642437 C6.44272222,19.152374 6.3945,18.7066359 6.41511111,18.2215795 C6.45011111,17.409908 6.61072222,16.6616909 6.87944444,15.9882177 C7.15088889,15.3077372 7.5355,14.6965505 8.01811111,14.1710078 C8.51005556,13.634565 9.10855556,13.1825983 9.79805556,12.8341829 C10.5073889,12.4760353 11.319,12.2245534 12.2181111,12.1058197 C12.635,12.0505404 13.0351667,12.0244579 13.4135556,12.0229007 C13.7977778,12.0209543 14.1586667,12.0443117 14.4911667,12.0867444 C14.8279444,12.130345 15.1347778,12.1934101 15.4066111,12.2712683 C15.6807778,12.3495158 15.9183889,12.4425563 16.114,12.5433826 L14.7972222,16.5098674 Z M6.50377778,9.63615832 C6.55083333,9.50574588 6.61888889,9.39168365 6.69977778,9.29513951 C6.63483333,9.63031896 6.60255556,9.84715398 6.59555556,9.89581534 C6.54888889,10.2251554 6.77483333,10.5295809 7.10033333,10.5770744 C7.12911111,10.5813566 7.1575,10.583303 7.18588889,10.583303 C7.47677778,10.583303 7.7315,10.3672466 7.77466667,10.0674926 C7.77661111,10.0538674 7.81705556,9.78331028 7.90844444,9.34613661 C8.02666667,9.57387178 8.04922222,9.87440434 7.94305556,10.1679297 C7.76533333,10.6599933 7.29866667,10.9395042 6.90122222,10.7927415 C6.50377778,10.6463682 6.32566667,10.128222 6.50377778,9.63615832 L6.50377778,9.63615832 Z M12.8772778,1.39837395 C13.6021667,1.13248828 14.1582778,1.14533488 14.5775,1.43068509 C12.3417778,2.46113806 11.3656667,5.05692967 10.9441111,7.28211635 L8.2005,8.14050275 C8.81377778,5.90169088 10.1803333,2.38756208 12.8772778,1.39837395 L12.8772778,1.39837395 Z M15.3198889,2.50084573 C15.6671667,3.41840434 15.7643889,4.66997453 15.7542778,5.77672851 L12.3285556,6.8488356 C12.7827778,5.05264747 13.6542778,3.21791954 15.3198889,2.50084573 L15.3198889,2.50084573 Z M20.7721111,4.20632909 L19.7081111,4.53917279 C19.2468889,3.16030449 18.6153333,2.17812359 17.8223889,1.61092677 C17.3032222,1.23954327 16.7377778,1.05346223 16.1334444,1.05346223 C16.0521667,1.05346223 15.9697222,1.05969088 15.8868889,1.06630883 C15.7433889,0.873999132 15.5901667,0.698818235 15.4175,0.557894935 C14.6486667,-0.0708098403 13.657,-0.168521852 12.4705,0.266705355 C8.91255556,1.57238698 7.40172222,6.23258813 6.85727778,8.5609369 L3.75627778,9.53143907 C3.75627778,9.53143907 3.02594444,9.74126686 2.85444444,9.94914819 C2.66622222,10.1764941 2.63005556,10.791963 2.63005556,10.791963 L0,31.2959137 L19.7462222,35.0350527 L21.2663889,4.18920029 C21.0486111,4.145989 20.8261667,4.1930932 20.7721111,4.20632909 L20.7721111,4.20632909 Z" id="Fill-149"></path>
                    </g>
                </g>
            </g>
        </g>
    </g>
</svg>