<?xml version="1.0" encoding="UTF-8"?>
<svg width="70px" height="70px" viewBox="0 0 70 70" version="1.1" xmlns="http://www.w3.org/2000/svg" xmlns:xlink="http://www.w3.org/1999/xlink">
    <!-- Generator: Sketch 46.2 (44496) - http://www.bohemiancoding.com/sketch -->
    <title>Skype</title>
    <desc>Created with Sketch.</desc>
    <defs></defs>
    <g id="Icons" stroke="none" stroke-width="1" fill="none" fill-rule="evenodd">
        <g transform="translate(-509.000000, -66.000000)" id="Icon-Set">
            <g transform="translate(69.000000, 66.000000)">
                <g id="Skype" transform="translate(440.000000, 0.000000)">
                    <circle id="Oval-1-Copy-3" fill="#00AFF0" cx="35" cy="35" r="35"></circle>
                    <path d="M42.3172222,41.3610449 C41.7031667,42.2346136 40.8036667,42.9209334 39.6191111,43.4137757 C38.4353333,43.9112894 37.0318333,44.1580999 35.4086111,44.1580999 C33.4618333,44.1580999 31.8572778,43.8201954 30.5914444,43.1436078 C29.6962222,42.6569942 28.9666667,42.0057106 28.4055,41.1932605 C27.8458889,40.381589 27.5655,39.5905499 27.5655,38.8217004 C27.5655,38.3771302 27.7331111,37.9952359 28.0695,37.6787424 C28.4055,37.3591346 28.8344444,37.2006932 29.354,37.2006932 C29.7755556,37.2006932 30.1333333,37.3237091 30.4238333,37.5728553 C30.7162778,37.8208336 30.9651667,38.1863777 31.1701111,38.6741592 C31.4221111,39.2514776 31.6927778,39.7349768 31.9852222,40.121932 C32.2757222,40.510055 32.6871667,40.8308307 33.2145,41.0819233 C33.7445556,41.3322373 34.4402778,41.4595355 35.3008889,41.4595355 C36.4842778,41.4595355 37.4467778,41.207275 38.1868333,40.6980825 C38.9261111,40.1923936 39.2978889,39.5574602 39.2978889,38.7979537 C39.2978889,38.19611 39.0972222,37.7056035 38.6986111,37.3322735 C38.2988333,36.9558292 37.7831667,36.6693111 37.1508333,36.4715514 C36.5185,36.2726237 35.6734444,36.0620174 34.6141111,35.8397323 C33.197,35.5360854 32.0108889,35.1767699 31.0565556,34.7691823 C30.1018333,34.3600376 29.3427222,33.803741 28.7831111,33.0983459 C28.2219444,32.3913936 27.9423333,31.5147106 27.9423333,30.4679074 C27.9423333,29.4682084 28.2371111,28.5817931 28.8305556,27.8067149 C29.4220556,27.0304689 30.2776111,26.433686 31.4003333,26.0167554 C32.5215,25.5998249 33.8394444,25.3923329 35.3553333,25.3923329 C36.5655556,25.3923329 37.6132222,25.5313097 38.4963889,25.8061491 C39.3795556,26.0829349 40.1114444,26.4508148 40.6947778,26.9086208 C41.2781111,27.3672055 41.7051111,27.8472012 41.9730556,28.3509436 C42.2425556,28.8523502 42.3771111,29.3463603 42.3771111,29.8220738 C42.3771111,30.2592475 42.2095,30.6559349 41.8727222,31.0055181 C41.5371111,31.3562692 41.1178889,31.5330072 40.6158333,31.5330072 C40.1569444,31.5330072 39.8092778,31.4267308 39.5720556,31.2161245 C39.3344444,31.0055181 39.0758333,30.6613849 38.7989444,30.1825572 C38.4396111,29.4981838 38.0106667,28.9632981 37.5062778,28.5806252 C37.0038333,28.1956165 36.1980556,28.0044747 35.0850556,28.0044747 C34.0552778,28.0044747 33.2226667,28.2107988 32.5903333,28.6288973 C31.9576111,29.0446599 31.6414444,29.5472344 31.6414444,30.1331172 C31.6414444,30.4943792 31.7503333,30.8100941 31.965,31.0740333 C32.1785,31.3391404 32.4756111,31.5637612 32.8532222,31.7541245 C33.2285,31.9433198 33.61,32.0920289 33.9953889,32.2010304 C34.3811667,32.3080854 35.0177778,32.464191 35.9075556,32.6705152 C37.0182222,32.9099291 38.0242778,33.1750362 38.9261111,33.4627221 C39.8275556,33.7523546 40.5944444,34.1031056 41.2267778,34.5138075 C41.8591111,34.9276237 42.353,35.4504414 42.7068889,36.0822605 C43.0607778,36.7121331 43.2388889,37.4864327 43.2388889,38.4024342 C43.2388889,39.4994559 42.9301111,40.4855297 42.3172222,41.3610449 M50.6394444,34.5597438 C50.6394444,25.9342258 43.6538333,18.9417829 35.0368333,18.9417829 C34.2310556,18.9417829 33.4462778,19.0196411 32.6731667,19.1383748 C31.118,17.8093357 29.1035556,17 26.8973889,17 C21.9845556,17 18,20.9871172 18,25.907754 C18,27.9145485 18.6723889,29.7609551 19.7927778,31.2503821 C19.5637222,32.3185962 19.435,33.4230145 19.435,34.5597438 C19.435,43.1872084 26.4190556,50.1800405 35.0368333,50.1800405 C36.1443889,50.1800405 37.2239444,50.0589711 38.2657778,49.8390217 C39.8283333,51.2054327 41.8676667,52.0361795 44.1026111,52.0361795 C49.0166111,52.0361795 53,48.0490622 53,43.1307612 C53,40.6980825 52.0254444,38.4966425 50.4453889,36.8908177 C50.5605,36.1262504 50.6394444,35.3531187 50.6394444,34.5597438" id="Fill-12" fill="#FFFFFF"></path>
                </g>
            </g>
        </g>
    </g>
</svg>