<?xml version="1.0" encoding="UTF-8"?>
<svg width="70px" height="70px" viewBox="0 0 70 70" version="1.1" xmlns="http://www.w3.org/2000/svg" xmlns:xlink="http://www.w3.org/1999/xlink">
    <!-- Generator: Sketch 46.2 (44496) - http://www.bohemiancoding.com/sketch -->
    <title>Slack</title>
    <desc>Created with Sketch.</desc>
    <defs></defs>
    <g id="Icons" stroke="none" stroke-width="1" fill="none" fill-rule="evenodd">
        <g transform="translate(-1301.000000, -176.000000)" id="Icon-Set">
            <g transform="translate(69.000000, 66.000000)">
                <g id="Slack" transform="translate(1232.000000, 110.000000)">
                    <circle id="Oval-1-Copy-59" fill="#CE1E5B" cx="35" cy="35" r="35"></circle>
                    <path d="M43.6449278,29.2266014 C44.3396945,31.3648211 45.0808164,33.6457057 45.7770067,35.788312 L48.9180531,34.7673774 C50.5555308,34.2353263 52.314399,35.1315484 52.84645,36.7690262 C53.3785012,38.4067909 52.4825661,40.1656589 50.8448014,40.6977101 C50.8448014,40.6977101 49.6153187,41.0971896 47.7038051,41.7182719 C48.3400211,43.6763131 48.7525294,44.9458776 48.7570603,44.9598587 C49.2850938,46.5849965 48.2763776,48.3424297 46.6216813,48.8188076 C45.0352852,49.2753845 43.3825978,48.4156083 42.8290235,46.885746 L41.7755455,43.6444599 C39.6368443,44.3393582 37.355307,45.0806657 35.2121045,45.777025 C35.8483071,47.7350782 36.2608067,49.0046256 36.2653377,49.018542 C36.7933712,50.6439669 35.784655,52.4014001 34.1299587,52.8774912 C32.5435626,53.3343549 30.8908751,52.4745787 30.3373009,50.9447164 L29.283758,47.7032306 C27.3245627,48.339799 26.0541273,48.7525757 26.0401414,48.7571082 C24.4150035,49.2851416 22.6575704,48.2764255 22.1811923,46.6217292 C21.7246156,45.0353329 22.5843918,43.3826455 24.114254,42.8293583 L27.3570841,41.775341 L25.2238354,35.2118728 C23.2652937,35.848234 21.9953764,36.2608539 21.9814579,36.2653855 C20.3560331,36.7934189 18.5985999,35.7847029 18.1225089,34.1300066 C17.6656451,32.5436103 18.5254214,30.8909229 20.0552836,30.3376357 L23.2971453,29.2839331 L22.275607,26.1409174 C21.7432689,24.5031526 22.639491,22.7442846 24.2772557,22.2122334 C25.9147334,21.6801823 27.6736015,22.5764044 28.2059396,24.2138821 C28.2059396,24.2138821 28.6056463,25.4440782 29.2270311,27.3565418 L35.7885107,25.2238636 L34.7673296,22.0819469 C34.2349915,20.4444692 35.1312136,18.6856011 36.7689783,18.15355 C38.4064561,17.6212118 40.1653241,18.5174339 40.6973753,20.1551986 C40.6973753,20.1551986 41.0969214,21.3848423 41.7180954,23.2965702 L44.8590826,22.2756548 C46.4968473,21.7436037 48.2557155,22.6398258 48.7877666,24.2773035 C49.3198177,25.9150683 48.4235957,27.6739363 46.7861179,28.2059874 C46.7861179,28.2059874 45.5565521,28.6054894 43.6449278,29.2266014 Z M37.7156259,31.1531112 C35.5772609,31.847895 33.2961663,32.5890541 31.1533586,33.2852828 C31.8482402,35.4239486 32.5894954,37.705339 33.2857852,39.8483348 L39.8484495,37.7152714 L37.7156259,31.1531112 Z" id="Combined-Shape" fill="#FFFFFF"></path>
                </g>
            </g>
        </g>
    </g>
</svg>