<?xml version="1.0" encoding="UTF-8"?>
<svg width="70px" height="70px" viewBox="0 0 70 70" version="1.1" xmlns="http://www.w3.org/2000/svg" xmlns:xlink="http://www.w3.org/1999/xlink">
    <!-- Generator: Sketch 46.2 (44496) - http://www.bohemiancoding.com/sketch -->
    <title>Smashing Magazine</title>
    <desc>Created with Sketch.</desc>
    <defs></defs>
    <g id="Icons" stroke="none" stroke-width="1" fill="none" fill-rule="evenodd">
        <g transform="translate(-399.000000, -399.000000)" id="Icon-Set">
            <g transform="translate(69.000000, 66.000000)">
                <g id="Smashing-Magazine" transform="translate(330.000000, 333.000000)">
                    <circle id="Oval-1-Copy-32" fill="#E53B2C" cx="35" cy="35" r="35"></circle>
                    <g id="Group-15" transform="translate(17.000000, 17.000000)" fill="#FFFFFF">
                        <path d="M17.54241,29.579437 C22.2086877,29.579437 24.2841877,24.0974428 15.5341877,20.7873025 C10.8838544,19.0296541 6.97863219,15.891191 6.7192433,11.8024689 C6.55357663,9.19460926 7.21040997,6.91608973 8.90557663,5 L1.9872433,6.65292909 C0.596576632,6.98771925 -0.260145591,8.38410564 0.0711877428,9.77620984 L5.82713219,33.8690333 C6.16040997,35.2611375 7.55535441,36.1187453 8.94602108,35.785123 L11.9077989,35.0773922 C10.7597989,34.6954978 8.77102108,33.9686918 6.8662433,32.9506961 L9.6277433,26.681945 C9.6277433,26.681945 12.8757433,29.579437 17.54241,29.579437" id="Fill-71"></path>
                        <path d="M35.2447459,26.0808432 L29.4919126,1.98801973 C29.1586348,0.597083406 27.7625237,-0.261692282 26.371857,0.0719300047 L21.415857,1.25887791 C22.6805237,1.45897342 25.1810793,2.0063164 27.939857,3.45486778 L25.7811348,9.44488659 C25.7811348,9.44488659 23.9844682,7.43575634 19.1673015,7.19089238 C14.5893015,6.96004288 12.0409126,11.9168837 20.9725237,14.8412368 C27.8107459,17.0792701 29.9982459,21.3945595 29.8850793,25.3836232 C29.8251904,27.4581543 29.0987459,29.1465089 28.2591348,30.4175436 L33.3329682,29.2052918 C34.7201348,28.8705016 35.5780237,27.4729474 35.2447459,26.0808432" id="Fill-72"></path>
                    </g>
                </g>
            </g>
        </g>
    </g>
</svg>