<?xml version="1.0" encoding="UTF-8"?>
<svg width="70px" height="70px" viewBox="0 0 70 70" version="1.1" xmlns="http://www.w3.org/2000/svg" xmlns:xlink="http://www.w3.org/1999/xlink">
    <!-- Generator: Sketch 46.2 (44496) - http://www.bohemiancoding.com/sketch -->
    <title>Snapchat</title>
    <desc>Created with Sketch.</desc>
    <defs></defs>
    <g id="Icons" stroke="none" stroke-width="1" fill="none" fill-rule="evenodd">
        <g transform="translate(-179.000000, -835.000000)" id="Icon-Set">
            <g transform="translate(69.000000, 66.000000)">
                <g id="Snapchat" transform="translate(110.000000, 769.000000)">
                    <circle id="Oval-1-Copy-58" fill="#FFFC00" cx="35" cy="35" r="35"></circle>
                    <path d="M34.9703378,18.8718961 C36.364812,18.8718961 41.1667039,19.2464892 43.4296013,24.3197513 C44.1747358,25.9903227 43.9837251,29.0164909 43.8305307,31.447439 C43.8066061,31.8332226 43.7828745,32.2071404 43.7635805,32.564176 L43.755477,32.7176598 L43.8579282,32.8319768 C43.8993138,32.8778965 44.286641,33.2826847 45.1481183,33.3159669 L45.16201,33.3167387 L45.1764805,33.3164492 C45.7460395,33.2947435 46.3875652,33.1178175 47.0842717,32.7914594 C47.1869158,32.7434173 47.3235173,32.7199751 47.4680294,32.7199751 C47.6327038,32.7199751 47.8077004,32.750942 47.9520195,32.8117181 L47.9738218,32.8204004 C48.3391537,32.9484161 48.597404,33.1897841 48.6013593,33.4081922 C48.6034816,33.5316739 48.5111598,33.9764971 47.2161462,34.4880777 C47.0895775,34.5380492 46.9229738,34.5912041 46.7298408,34.6520767 C45.8870787,34.9196846 44.6138673,35.3235081 44.1853475,36.3332598 C43.9440759,36.9020471 44.0101579,37.5732855 44.3815675,38.328067 C44.534376,38.6847167 46.9399525,44.103245 52.352982,44.9952068 C52.3519209,45.0208678 52.3453609,45.0489406 52.3308904,45.0820298 C52.2391474,45.2981227 51.6559861,46.0447042 48.0271697,46.6046162 C47.4593471,46.6916322 47.3202374,47.3281414 47.1589395,48.0680665 C47.1006716,48.3329732 47.041439,48.6003881 46.9600183,48.8765818 C46.935129,48.9600283 46.9304985,48.9647554 46.8410707,48.9647554 L46.798431,48.9647554 C46.637519,48.9647554 46.3932569,48.9313767 46.1101174,48.87581 C45.5944851,48.7753847 44.890061,48.6521925 43.9895133,48.6521925 C43.4869045,48.6521925 42.9691499,48.6958934 42.4496588,48.78262 C41.3391923,48.9672636 40.4361364,49.6059916 39.4797326,50.2820535 C38.1953307,51.1896435 36.8678067,52.1287792 34.8423221,52.1287792 C34.7538591,52.1287792 34.6675184,52.1257886 34.5809848,52.1214475 L34.5582179,52.1204828 L34.5353545,52.1222193 C34.4856724,52.1265604 34.4356045,52.1287792 34.3844754,52.1287792 C32.3592801,52.1287792 31.0311773,51.1899329 29.7473542,50.2820535 C28.7907575,49.6059916 27.8872192,48.9672636 26.7769457,48.78262 C26.257937,48.6961828 25.7397,48.6521925 25.2373806,48.6521925 C24.3370259,48.6521925 23.6317335,48.7899517 23.1171624,48.8905699 C22.8340229,48.9459437 22.5888926,48.993407 22.4284629,48.993407 C22.2970708,48.993407 22.2945625,48.9856894 22.2667792,48.8907629 C22.1853585,48.6143762 22.1258365,48.3405943 22.067858,48.0760735 C21.9061742,47.3353767 21.766968,46.6953945 21.1994348,46.6082821 C17.5709078,46.0478877 16.9876501,45.3000521 16.8956177,45.0845381 C16.8812436,45.0505806 16.8747801,45.0216396 16.8733331,44.9959786 C22.2862661,44.1047885 24.6913603,38.6860672 24.8446512,38.328067 C25.216736,37.5738643 25.2827215,36.9027224 25.0406782,36.3332598 C24.6121584,35.3240869 23.33914,34.9196846 22.4969567,34.6525591 C22.3033413,34.5913006 22.1366411,34.5380492 22.009976,34.4880777 C20.9163918,34.0559884 20.5800008,33.6207157 20.6299723,33.3569667 C20.6879508,33.0527967 21.2152559,32.7435138 21.6754179,32.7435138 C21.7788338,32.7435138 21.8695156,32.7602031 21.9365623,32.7915558 C22.6839156,33.1418385 23.3661516,33.3194398 23.9645551,33.3194398 C24.9052343,33.3194398 25.3239142,32.8817553 25.3688693,32.8317838 L25.4708381,32.7177563 L25.4626381,32.5650442 C25.4436335,32.2082016 25.4201913,31.8343803 25.395495,31.4493684 C25.2427829,29.0178414 25.0517723,25.9936991 25.7966174,24.3230313 C28.0511218,19.2683879 32.8295715,18.8787454 34.2401562,18.8787454 C34.2748854,18.8787454 34.8881454,18.8724749 34.8881454,18.8724749 C34.9132276,18.872282 34.9411074,18.8718961 34.9703378,18.8718961" id="Shape" stroke="#000000" fill="#FFFFFF"></path>
                </g>
            </g>
        </g>
    </g>
</svg>