<?xml version="1.0" encoding="UTF-8"?>
<svg width="70px" height="70px" viewBox="0 0 70 70" version="1.1" xmlns="http://www.w3.org/2000/svg" xmlns:xlink="http://www.w3.org/1999/xlink">
    <!-- Generator: Sketch 46.2 (44496) - http://www.bohemiancoding.com/sketch -->
    <title>Soundcloud</title>
    <desc>Created with Sketch.</desc>
    <defs></defs>
    <g id="Icons" stroke="none" stroke-width="1" fill="none" fill-rule="evenodd">
        <g transform="translate(-69.000000, -617.000000)" id="Icon-Set">
            <g transform="translate(69.000000, 66.000000)">
                <g id="Soundcloud" transform="translate(0.000000, 551.000000)">
                    <circle id="Oval-1-Copy-49" fill="#FF8800" cx="35" cy="35" r="35"></circle>
                    <g id="Group-27" transform="translate(17.000000, 25.000000)" fill="#FFFFFF">
                        <path d="M8.10766667,3.6 C7.82393333,3.6 7.59386667,3.75275774 7.58453333,3.9484932 L7.2,12.2707537 L7.58453333,16.2466593 C7.59386667,16.440059 7.82393333,16.5918825 8.10766667,16.5918825 C8.39,16.5918825 8.62053333,16.440059 8.6322,16.2443236 L9.06526667,12.2707537 L8.6322,3.9484932 C8.62053333,3.75509349 8.39,3.6 8.10766667,3.6" id="Fill-129"></path>
                        <path d="M12.9142,3.6 C12.5861333,3.6 12.3257333,3.78358958 12.3159333,4.01482836 L12,12.3973511 L12.3168667,16.3092573 C12.3234,16.5381603 12.5861333,16.7217499 12.9142,16.7217499 C13.2404,16.7217499 13.5017333,16.5414304 13.5110667,16.3092573 L13.8652667,12.3973511 L13.5110667,4.01482836 C13.5017333,3.78358958 13.2404,3.6 12.9142,3.6" id="Fill-130"></path>
                        <path d="M16.5188667,2.4 C16.1562667,2.4 15.8580667,2.61535572 15.8515333,2.87976208 L15.6,12.4880839 C15.6,12.4927554 15.8515333,16.3500052 15.8515333,16.3500052 C15.8580667,16.6120758 16.1562667,16.8264973 16.5188667,16.8264973 C16.8800667,16.828833 17.1796667,16.615813 17.1852667,16.352341 L17.4652667,12.4918211 L17.1852667,2.87976208 C17.1796667,2.61535572 16.8800667,2.4 16.5188667,2.4" id="Fill-131"></path>
                        <path d="M33.0446,7.12075311 C32.3842667,7.12075311 31.7575333,7.24968625 31.1849333,7.48326078 C30.8027333,3.28966368 27.1674,0 22.7364,0 C21.6523333,0 20.5948667,0.206012735 19.6624667,0.555907381 C19.3012667,0.693716353 19.2023333,0.830591027 19.2,1.10200463 L19.2,15.8713893 C19.2042,16.1572845 19.4305333,16.3955305 19.7184667,16.4216909 C19.7301333,16.4216909 32.9578,16.4296324 33.0446,16.4296324 C35.6994667,16.4296324 37.8508,14.3452133 37.8508,11.7758935 C37.8508,9.20377077 35.6994667,7.12075311 33.0446,7.12075311" id="Fill-132"></path>
                        <path d="M4.503,6 C4.26593333,6 4.07226667,6.12332735 4.06013333,6.28355948 L3.6,12.5340139 L4.06013333,16.5734518 C4.07226667,16.7332168 4.26593333,16.856077 4.503,16.856077 C4.73773333,16.8574784 4.93093333,16.7332168 4.9468,16.5734518 L5.46526667,12.5340139 L4.9468,6.28496093 C4.93093333,6.12426165 4.73773333,6 4.503,6" id="Fill-133"></path>
                        <path d="M0.895066667,9.6 C0.7056,9.6 0.552066667,9.66119653 0.5376,9.74248046 L0,12.4440035 L0.539933333,15.0572353 C0.553466667,15.1389864 0.707933333,15.1997158 0.896933333,15.1997158 C1.08406667,15.1997158 1.23666667,15.1389864 1.253,15.0572353 L1.8648,12.4440035 L1.253,9.74248046 C1.23666667,9.66119653 1.08406667,9.6 0.895066667,9.6" id="Fill-134"></path>
                    </g>
                </g>
            </g>
        </g>
    </g>
</svg>