<?xml version="1.0" encoding="UTF-8"?>
<svg width="70px" height="70px" viewBox="0 0 70 70" version="1.1" xmlns="http://www.w3.org/2000/svg" xmlns:xlink="http://www.w3.org/1999/xlink">
    <!-- Generator: Sketch 46.2 (44496) - http://www.bohemiancoding.com/sketch -->
    <title>Spotify</title>
    <desc>Created with Sketch.</desc>
    <defs></defs>
    <g id="Icons" stroke="none" stroke-width="1" fill="none" fill-rule="evenodd">
        <g transform="translate(-729.000000, -508.000000)" id="Icon-Set">
            <g transform="translate(69.000000, 66.000000)">
                <g id="Spotify" transform="translate(660.000000, 442.000000)">
                    <circle id="Oval-1-Copy-45" fill="#7AB800" cx="35" cy="35" r="35"></circle>
                    <path d="M47.5543889,31.7222026 C47.0982222,32.4898842 46.1123889,32.7405876 45.3423889,32.2882315 C39.7836111,28.9796483 30.6108889,28.6787265 25.3033333,30.2900014 C24.4520556,30.5508263 23.5517778,30.0669378 23.2881111,29.2140014 C23.0326111,28.3610651 23.5132778,27.4563531 24.3665,27.200589 C30.4615556,25.3467858 40.5901667,25.7053227 46.9893333,29.5094732 C47.7573889,29.9649436 48.0093889,30.9560781 47.5543889,31.7222026 M45.1596111,37.4366035 C44.7718889,38.0695904 43.9439444,38.2661823 43.312,37.8765022 C38.6783889,35.0253357 31.6076111,34.1988712 26.1227222,35.8654255 C25.4102778,36.0807033 24.6573889,35.6793444 24.4446667,34.9700564 C24.2288333,34.2568755 24.6301667,33.503987 25.3387222,33.2890984 C31.6052778,31.3846874 39.3939444,32.3069175 44.7193889,35.582411 C45.3517222,35.9752055 45.5527778,36.7993343 45.1596111,37.4366035 M43.0510556,42.4039551 C42.7434444,42.9162619 42.0835,43.0739247 41.576,42.7656064 C37.5226111,40.2877699 32.4242778,39.7268017 26.4186667,41.0986628 C25.8407778,41.2321896 25.2628889,40.8697598 25.1345556,40.2897164 C25,39.7116194 25.3612778,39.1346903 25.9422778,39.00311 C32.5121667,37.4996686 38.1495,38.1493951 42.6956111,40.9258177 C43.2007778,41.2364718 43.3621667,41.8974877 43.0510556,42.4039551 M35.5,17 C25.8353333,17 18,24.8430434 18,34.5180897 C18,44.193136 25.8353333,52.0361795 35.5,52.0361795 C45.1650556,52.0361795 53,44.193136 53,34.5180897 C53,24.8430434 45.1650556,17 35.5,17" id="Fill-185" fill="#FFFFFF"></path>
                </g>
            </g>
        </g>
    </g>
</svg>