<?xml version="1.0" encoding="UTF-8"?>
<svg width="70px" height="70px" viewBox="0 0 70 70" version="1.1" xmlns="http://www.w3.org/2000/svg" xmlns:xlink="http://www.w3.org/1999/xlink">
    <!-- Generator: Sketch 46.2 (44496) - http://www.bohemiancoding.com/sketch -->
    <title>Stumble Upon</title>
    <desc>Created with Sketch.</desc>
    <defs></defs>
    <g id="Icons" stroke="none" stroke-width="1" fill="none" fill-rule="evenodd">
        <g transform="translate(-729.000000, -399.000000)" id="Icon-Set">
            <g transform="translate(69.000000, 66.000000)">
                <g id="Stumble-Upon" transform="translate(660.000000, 333.000000)">
                    <circle id="Oval-1-Copy-35" fill="#EB4924" cx="35" cy="35" r="35"></circle>
                    <g id="Group-17" transform="translate(17.000000, 21.000000)" fill="#FFFFFF">
                        <path d="M7.83144444,27.3480738 C12.1504444,27.3480738 15.6621111,23.7440188 15.6621111,19.3142779 L15.6621111,8.03379595 C15.6621111,6.994 16.4885,6.14651375 17.5015556,6.14651375 C18.5169444,6.14651375 19.3425556,6.994 19.3425556,8.03379595 L19.3425556,10.1842388 L19.3406111,10.1842388 L21.728,11.3688509 L25.3314444,10.1842388 L25.3314444,8.03379595 C25.3314444,3.60405499 21.8186111,0 17.5,0 C13.1825556,0 9.6705,3.60405499 9.6705,8.03379595 L9.6705,19.3142779 C9.6705,20.3552417 8.8445,21.2015601 7.83144444,21.2015601 C6.81761111,21.2015601 5.992,20.3552417 5.992,19.3142779 L5.992,14.5921795 L0,14.5921795 L0,19.3142779 C0,23.7440188 3.51166667,27.3480738 7.83144444,27.3480738" id="Fill-75"></path>
                        <path d="M22.3866111,16.1846122 L20,15 L20,19.8174747 C20,24.2472156 23.5116667,27.8512706 27.8314444,27.8512706 C32.1485,27.8512706 35.6605556,24.2472156 35.6605556,19.8174747 L35.6605556,15.0953763 L29.6701111,15.0953763 L29.6701111,19.8174747 C29.6701111,20.8584385 28.8445,21.7051462 27.8314444,21.7051462 C26.8160556,21.7051462 25.9896667,20.8584385 25.9896667,19.8174747 L25.9896667,15 L22.3866111,16.1846122 Z" id="Fill-76"></path>
                    </g>
                </g>
            </g>
        </g>
    </g>
</svg>