<?xml version="1.0" encoding="UTF-8"?>
<svg width="70px" height="70px" viewBox="0 0 70 70" version="1.1" xmlns="http://www.w3.org/2000/svg" xmlns:xlink="http://www.w3.org/1999/xlink">
    <!-- Generator: Sketch 46.2 (44496) - http://www.bohemiancoding.com/sketch -->
    <title>Telegram</title>
    <desc>Created with Sketch.</desc>
    <defs></defs>
    <g id="Icons" stroke="none" stroke-width="1" fill="none" fill-rule="evenodd">
        <g transform="translate(-399.000000, -835.000000)" id="Icon-Set">
            <g transform="translate(69.000000, 66.000000)">
                <g id="Telegram" transform="translate(330.000000, 769.000000)">
                    <circle id="Oval-1-Copy-58" fill="#2DA4D7" cx="35" cy="35" r="35"></circle>
                    <g id="Group-76" transform="translate(14.000000, 18.000000)" fill="#FFFFFF">
                        <path d="M15.9090909,35.7727273 C14.6681818,35.7727273 14.8909091,35.2954545 14.4454545,34.1181818 L10.8181818,22.1545455 L33.3454545,8.09090909 L35.9863636,8.79090909 L33.7909091,14.7727273 L15.9090909,35.7727273 L15.9090909,35.7727273 Z" id="path2993"></path>
                        <path d="M16.5454545,23.0363636 L31.9454545,34.3954545 C33.6954545,35.35 34.9681818,34.8727273 35.4136364,32.7727273 L41.6818182,3.24545455 C42.3181818,0.668181818 40.6954545,-0.477272727 39.0090909,0.286363636 L2.22727273,14.4772727 C-0.286363636,15.4954545 -0.254545455,16.8954545 1.78181818,17.5 L11.2318182,20.4590909 L33.0909091,6.68181818 C34.1090909,6.04545455 35.0636364,6.39545455 34.3,7.09545455 L16.5454545,23.0363636 L16.5454545,23.0363636 Z" id="path2991"></path>
                    </g>
                </g>
            </g>
        </g>
    </g>
</svg>