<?xml version="1.0" encoding="UTF-8"?>
<svg width="70px" height="70px" viewBox="0 0 70 70" version="1.1" xmlns="http://www.w3.org/2000/svg" xmlns:xlink="http://www.w3.org/1999/xlink">
    <!-- Generator: Sketch 46.2 (44496) - http://www.bohemiancoding.com/sketch -->
    <title>Tinder</title>
    <desc>Created with Sketch.</desc>
    <defs></defs>
    <g id="Icons" stroke="none" stroke-width="1" fill="none" fill-rule="evenodd">
        <g transform="translate(-1180.000000, -617.000000)" id="Icon-Set">
            <g transform="translate(69.000000, 66.000000)">
                <g id="Tinder" transform="translate(1111.000000, 551.000000)">
                    <g id="Group-83">
                        <circle id="Oval-1-Copy-59" fill="#DF4723" cx="35" cy="35" r="35"></circle>
                        <path d="M36.7522232,18 C37.5005689,18.349228 37.9745212,19.0726289 38.5731978,19.6463606 C39.5460473,20.4944858 40.2696976,21.6170044 41.2176022,22.4900745 C42.3900105,23.6125931 43.1383563,25.03445 44.1112058,26.3066378 C45.8074561,28.8759582 47.3041476,31.6198926 48.0774382,34.6132755 C48.8756737,36.6587539 49.000398,38.8788463 48.9505082,41.0739938 C49.000398,43.0695825 48.4516111,45.0402262 47.5533467,46.836256 C46.007015,49.5552456 43.2131909,51.3762202 40.294393,52.3490697 C36.6524437,53.2221397 32.6363216,53.3718089 29.1190966,51.8252277 C27.8466593,51.1267716 26.400107,50.6528193 25.3773678,49.5552456 C23.0076063,47.6095466 21.6356391,44.4415497 22.0846466,41.3733321 C22.7831026,35.9104082 26.050879,31.2207748 29.5431591,27.1797078 C29.8674423,27.7783844 29.5927994,28.4768404 29.8175526,29.1004619 C30.1168909,30.4225394 30.5908432,31.8194514 31.5886375,32.767356 C32.8109356,31.6448374 34.1083176,30.5223188 35.1560017,29.2251862 C36.1039063,27.8282741 36.8769474,26.2816929 37.2012306,24.6353323 C37.2763146,22.5399642 37.4758735,20.3448167 36.6773886,18.349228 L36.7522232,18 L36.7522232,18 Z" id="Shape" fill="#FFFFFF"></path>
                    </g>
                </g>
            </g>
        </g>
    </g>
</svg>