<?xml version="1.0" encoding="UTF-8"?>
<svg width="70px" height="70px" viewBox="0 0 70 70" version="1.1" xmlns="http://www.w3.org/2000/svg" xmlns:xlink="http://www.w3.org/1999/xlink">
    <!-- Generator: Sketch 46.2 (44496) - http://www.bohemiancoding.com/sketch -->
    <title>Treehouse</title>
    <desc>Created with Sketch.</desc>
    <defs></defs>
    <g id="Icons" stroke="none" stroke-width="1" fill="none" fill-rule="evenodd">
        <g transform="translate(-1301.000000, -66.000000)" id="Icon-Set">
            <g transform="translate(69.000000, 66.000000)">
                <g id="Treehouse" transform="translate(1232.000000, 0.000000)">
                    <circle id="Oval-1-Copy-59" fill="#5FCF80" cx="35" cy="35" r="35"></circle>
                    <path d="M50.0140406,25.726209 C49.5772231,25.5078003 48.5943837,25.0709828 47.5023401,24.4157566 C46.301092,23.7605304 44.4446178,24.8525741 43.2433697,26.7090484 L41.1684868,30.2035881 C40.4040561,31.7324493 40.5132606,33.3705149 41.4960999,34.7901716 L41.6053042,34.8993759 C42.5881435,36.3190328 43.898596,37.5202808 44.2262091,37.9570983 C44.4446178,38.175507 44.6630265,38.6123245 44.7722309,38.9399376 C45.099844,40.2503901 44.4446178,41.451638 43.1341654,41.7792511 C41.9329173,42.1068642 40.6224649,41.3424337 40.1856475,40.1411856 C40.076443,39.8135725 40.076443,39.4859594 40.076443,39.1583463 C40.1856475,38.6123245 39.9672387,37.7386896 39.2028082,37.0834633 C38.4383775,36.2098284 36.9095164,37.8478939 36.4726989,39.3767551 L36.4726989,39.4859594 C36.0358814,41.1240249 35.7082683,42.4344773 35.8174727,42.5436818 C35.8174727,42.6528861 35.9266771,42.7620904 35.9266771,42.7620904 C36.5819033,44.0725429 36.1450858,45.6014041 34.8346333,46.2566303 C33.5241809,46.9118565 31.8861154,46.4750391 31.2308892,45.1645866 C30.575663,43.8541342 31.0124805,42.325273 32.322933,41.6700468 C32.4321373,41.6700468 32.4321373,41.5608425 32.5413416,41.5608425 C32.6505461,41.5608425 32.8689547,40.7964118 33.1965678,40.0319813 C33.4149766,39.2675508 33.6333854,38.6123245 33.6333854,38.6123245 C33.6333854,38.5031201 33.6333854,38.3939158 33.7425897,38.3939158 L35.0530421,33.8073323 L33.7425897,36.5374415 C33.5241809,35.9914197 33.3057723,35.9914197 32.6505461,36.4282371 C32.322933,36.6466459 31.6677067,37.1926677 31.449298,37.4110764 C30.9032761,37.8478939 30.4664587,38.6123245 30.2480499,39.049142 C30.1388456,39.3767551 29.9204368,39.5951639 29.7020281,39.8135725 C28.7191888,40.6872075 27.1903276,40.4687987 26.425897,39.4859594 C25.6614665,38.5031201 25.8798752,37.1926677 26.8627145,36.4282371 C27.1903276,36.2098284 27.5179407,35.9914197 27.8455538,35.9914197 C28.3915757,35.8822153 30.4664587,34.5717628 31.6677067,33.8073323 C31.8861154,33.698128 32.1045242,33.4797192 32.2137285,33.3705149 L35.3806552,31.0772231 L32.5413416,32.6060842 L31.8861154,32.6060842 C31.0124805,32.7152887 29.9204368,32.824493 29.7020281,33.1521061 C29.5928237,33.2613104 29.4836193,33.4797192 29.2652106,33.5889235 C28.3915757,34.0257411 27.0811233,33.8073323 26.3166927,32.9336973 C25.6614665,31.950858 25.8798752,30.74961 26.7535101,30.0943838 C27.299532,29.7667707 27.7363495,29.6575663 28.1731669,29.6575663 C28.9375975,29.6575663 30.9032761,30.0943838 32.5413416,29.7667707 L32.9781592,29.6575663 C34.6162247,29.3299532 36.5819033,28.0195008 37.3463339,26.4906396 C37.3463339,26.4906396 38.1107644,25.0709828 39.0936037,23.5421217 C40.076443,21.9040562 39.9672387,20.1567863 38.9843994,19.5015601 L37.1279251,18.4095164 C36.1450858,17.8634945 34.6162247,17.8634945 33.6333854,18.4095164 L20.7472699,25.5078003 C19.7644306,26.0538222 19,27.4734789 19,28.5655226 L19,42.5436818 C19,43.6357254 19.7644306,44.8369735 20.7472699,45.3829953 L33.7425897,52.5904836 C34.725429,53.1365055 36.2542902,53.1365055 37.2371295,52.5904836 L50.0140406,45.273791 C50.9968799,44.7277691 51.7613105,43.5265211 51.7613105,42.4344773 L51.7613105,28.5655226 C51.7613105,27.4734789 50.9968799,26.2722309 50.0140406,25.726209 L50.0140406,25.726209 L50.0140406,25.726209 Z" id="Shape" fill="#FFFFFF"></path>
                </g>
            </g>
        </g>
    </g>
</svg>