<?xml version="1.0" encoding="UTF-8"?>
<svg width="70px" height="70px" viewBox="0 0 70 70" version="1.1" xmlns="http://www.w3.org/2000/svg" xmlns:xlink="http://www.w3.org/1999/xlink">
    <!-- Generator: Sketch 46.2 (44496) - http://www.bohemiancoding.com/sketch -->
    <title>Tumblr</title>
    <desc>Created with Sketch.</desc>
    <defs></defs>
    <g id="Icons" stroke="none" stroke-width="1" fill="none" fill-rule="evenodd">
        <g transform="translate(-509.000000, -176.000000)" id="Icon-Set">
            <g transform="translate(69.000000, 66.000000)">
                <g id="Tumblr" transform="translate(440.000000, 110.000000)">
                    <circle id="Oval-1-Copy-13" fill="#35465C" cx="35" cy="35" r="35"></circle>
                    <g id="Group-7" transform="translate(25.000000, 17.000000)" fill="#FFFFFF">
                        <path d="M6.53138889,0 C6.53138889,7.60752243 0,8.98561216 0,8.98561216 L0,14.1873169 L4.40494444,14.1873169 L4.40494444,27.0938669 C4.40494444,31.4317352 8.40505556,35.0361795 13.2712222,35.0361795 C18.1377778,35.0361795 20.8067222,33.0998466 20.8067222,33.0998466 L20.8067222,27.3624776 C20.8067222,27.3624776 19.3378889,29.2964747 16.338,29.2964747 C13.3385,29.2964747 12.0407778,26.961508 12.0407778,25.1598698 L12.0407778,14.2196281 L19.7085,14.2196281 L19.7085,8.71739074 L12.0407778,8.71739074 L12.0407778,0 L6.53138889,0 Z" id="Fill-22"></path>
                    </g>
                </g>
            </g>
        </g>
    </g>
</svg>