<?xml version="1.0" encoding="UTF-8"?>
<svg width="70px" height="70px" viewBox="0 0 70 70" version="1.1" xmlns="http://www.w3.org/2000/svg" xmlns:xlink="http://www.w3.org/1999/xlink">
    <!-- Generator: Sketch 46.2 (44496) - http://www.bohemiancoding.com/sketch -->
    <title>Tunein</title>
    <desc>Created with Sketch.</desc>
    <defs></defs>
    <g id="Icons" stroke="none" stroke-width="1" fill="none" fill-rule="evenodd">
        <g transform="translate(-1301.000000, -399.000000)" id="Icon-Set">
            <g transform="translate(69.000000, 66.000000)">
                <g id="Tunein" transform="translate(1232.000000, 333.000000)">
                    <circle id="Oval-1-Copy-59" fill="#29B4A7" cx="35" cy="35" r="35"></circle>
                    <path d="M19,31.8617126 C19,31.558844 19.2450671,31.3137768 19.5482306,31.3137768 L35.0664904,31.3137768 C37.8660351,31.3137768 40.1438907,33.5830802 40.1438907,36.3728929 L40.1438907,40.8799445 C40.1438907,41.1839928 39.8970541,41.4299446 39.5935957,41.4299446 C39.5844536,41.4299446 39.5723624,41.4299446 39.5614509,41.4314191 L24.0576415,41.4299446 C21.2695982,41.4299446 19,39.1612311 19,36.3705337 L19,31.8617126 L19,31.8617126 Z M46.6555377,31.3106508 L51.1021336,31.3106508 C51.4041176,31.3106508 51.6494795,31.5571925 51.6494795,31.8588815 L51.6494795,36.3691771 C51.6494795,39.1586949 49.3819456,41.4268186 46.5921329,41.4268186 L42.1570383,41.4259338 C41.8414888,41.4259338 41.5952421,41.1849955 41.5952421,40.8788829 L41.5952421,36.3703567 C41.5952421,33.5799541 43.865725,31.3106508 46.6555377,31.3106508 L46.6555377,31.3106508 Z M39.5934777,42.8841272 L30.6359964,42.8841272 C30.3334227,42.8841272 30.0877658,43.1306688 30.0877658,43.4323577 L30.0877658,52.4517693 C30.0877658,52.7593565 30.3357819,52.9991153 30.6504468,52.9991153 L35.0840668,53 C37.8735846,53 40.1437727,50.7312865 40.1437727,47.9414738 L40.1437727,43.4323577 C40.1437727,43.1306688 39.8972311,42.8841272 39.5934777,42.8841272 L39.5934777,42.8841272 Z M40.8793572,23.7645317 C40.8793572,26.9483392 38.2983381,29.5293583 35.1145306,29.5293583 C31.9310181,29.5293583 29.3499989,26.9483392 29.3499989,23.7645317 C29.3499989,20.5810192 31.9310181,18 35.1145306,18 C38.2983381,18 40.8793572,20.5810192 40.8793572,23.7645317 L40.8793572,23.7645317 Z" id="Shape" fill="#FFFFFF"></path>
                </g>
            </g>
        </g>
    </g>
</svg>