<?xml version="1.0" encoding="UTF-8"?>
<svg width="70px" height="70px" viewBox="0 0 70 70" version="1.1" xmlns="http://www.w3.org/2000/svg" xmlns:xlink="http://www.w3.org/1999/xlink">
    <!-- Generator: Sketch 46.2 (44496) - http://www.bohemiancoding.com/sketch -->
    <title>Vimeo</title>
    <desc>Created with Sketch.</desc>
    <defs></defs>
    <g id="Icons" stroke="none" stroke-width="1" fill="none" fill-rule="evenodd">
        <g transform="translate(-289.000000, -66.000000)" id="Icon-Set">
            <g transform="translate(69.000000, 66.000000)">
                <g id="Vimeo" transform="translate(220.000000, 0.000000)">
                    <circle id="Oval-1-Copy" fill="#1AB7EA" cx="35" cy="35" r="35"></circle>
                    <path d="M46.4789444,20 C42.0312222,20 38.5491111,23.2556397 37.0433333,28.6146179 C38.6836667,27.8469363 41.6617778,27.4451881 41.8958889,30.124288 C42.1296111,32.8037771 38.0151667,39.734712 36.2056667,39.734712 C34.4008333,39.734712 33.0634444,31.8990651 32.5932778,28.3152533 C32.1246667,24.7302735 31.2881667,21.0865109 27.8768333,21.0865109 C24.4608333,21.0865109 20.0796111,26.0721592 17,28.4818698 L18.6065,30.6580058 C18.6065,30.6580058 20.8826667,28.8840072 21.6857222,29.0198698 C23.7623889,29.5535876 25.5353333,37.8953126 26.4379444,41.0765977 C27.3393889,44.2582721 28.4426667,50.6909146 32.8966111,50.6909146 C40.0883333,50.6909146 52,33.0392981 52,27.2758466 C52,23.4931071 50.9286111,20 46.4789444,20" id="Fill-7" fill="#FFFFFF"></path>
                </g>
            </g>
        </g>
    </g>
</svg>