<?xml version="1.0" encoding="UTF-8"?>
<svg width="70px" height="70px" viewBox="0 0 70 70" version="1.1" xmlns="http://www.w3.org/2000/svg" xmlns:xlink="http://www.w3.org/1999/xlink">
    <!-- Generator: Sketch 46.2 (44496) - http://www.bohemiancoding.com/sketch -->
    <title>Vine</title>
    <desc>Created with Sketch.</desc>
    <defs></defs>
    <g id="Icons" stroke="none" stroke-width="1" fill="none" fill-rule="evenodd">
        <g transform="translate(-949.000000, -726.000000)" id="Icon-Set">
            <g transform="translate(69.000000, 66.000000)">
                <g id="Vine" transform="translate(880.000000, 660.000000)">
                    <circle id="Oval-1-Copy-58" fill="#00B488" cx="35" cy="35" r="35"></circle>
                    <path d="M20,23.6038359 C20,23.6038359 23.3935195,46.4371897 33.2196722,52.4461707 C34.5624565,53.2242286 36.0850242,53.1872396 37.107381,52.3050966 C41.2075611,48.770073 45.4531163,42.8165754 46.6543964,40.0596096 C48.9124417,40.2746615 50.4681273,39.7219781 50.4681273,39.7219781 L50.4539339,35.3641658 C50.4539339,35.3641658 47.1425643,35.4265308 46.5116019,35.4359931 C41.708202,35.5073904 38.3933916,29.679053 40.3464932,24.7547939 C41.7000301,21.3436401 44.0797947,23.8021138 44.5038771,24.8623198 C44.9279595,25.9225258 44.8350571,28.7633618 44.2174279,30.8476451 C44.9701097,32.6041893 49.0560964,33.5357943 49.9877013,32.0665595 C51.1352184,28.8407805 51.6367195,23.0343784 48.6621212,20.0236514 C46.6999874,18.0378619 41.7740079,17.0292683 38.1684473,19.2916146 C34.5624565,21.5535308 34.6329935,26.3608017 34.9160019,28.764222 C35.1990102,31.1680725 35.976638,36.2574915 40.7834787,39.0854244 C41.2075611,39.5800438 35.5142763,46.9748195 35.1990102,46.6500911 C28.1298232,39.3684327 26.2210222,23.674373 26.2210222,23.674373 L20,23.6038359 Z" id="Fill-4" fill="#FEFEFE"></path>
                </g>
            </g>
        </g>
    </g>
</svg>