<?xml version="1.0" encoding="UTF-8"?>
<svg width="70px" height="70px" viewBox="0 0 70 70" version="1.1" xmlns="http://www.w3.org/2000/svg" xmlns:xlink="http://www.w3.org/1999/xlink">
    <!-- Generator: Sketch 46.2 (44496) - http://www.bohemiancoding.com/sketch -->
    <title>Visa</title>
    <desc>Created with Sketch.</desc>
    <defs></defs>
    <g id="Icons" stroke="none" stroke-width="1" fill="none" fill-rule="evenodd">
        <g transform="translate(-289.000000, -835.000000)" id="Icon-Set">
            <g transform="translate(69.000000, 66.000000)">
                <g id="Visa" transform="translate(220.000000, 769.000000)">
                    <circle id="Oval-1-Copy-58" fill="#1D5B99" cx="35" cy="35" r="35"></circle>
                    <g id="Group-75" transform="translate(14.000000, 25.000000)" fill="#FFFFFF">
                        <path d="M3.21503955,23.7362429 C11.930678,20.0010734 24.1599266,16.6154915 40.3565932,20.0054463 L40.5264068,15.8973672 C23.4381582,14.0316045 11.1765989,19.4741412 3.21503955,23.3312655 L3.21503955,23.7362429 L3.21503955,23.7362429 L3.21503955,23.7362429 Z" id="Shape"></path>
                        <polygon id="Shape" points="12.329096 12.9036441 16.1065367 0.448463277 19.4770565 0.448463277 15.6993729 12.9036441"></polygon>
                        <path d="M10.8223955,0.451864407 L7.79053107,5.73163277 C7.01871751,7.11443503 6.56758192,7.81288136 6.35063842,8.68672881 L6.30448023,8.68672881 C6.35816949,7.5789322 6.20366102,6.2189661 6.18908475,5.45031073 L5.85431638,0.451864407 L0.180745763,0.451864407 L0.122440678,0.786875706 C1.5800678,0.786875706 2.44444068,1.5190904 2.68227684,3.01680226 L3.78812994,12.9036441 L7.27987571,12.9036441 L14.3401356,0.451864407 L10.8223955,0.451864407 L10.8223955,0.451864407 L10.8223955,0.451864407 Z" id="Shape"></path>
                        <path d="M37.0332034,12.9036441 L36.9401582,11.0512429 L32.7315028,11.0478418 L31.870774,12.9034011 L28.2116441,12.9034011 L34.8465198,0.472028249 L39.3379548,0.472028249 L40.4615424,12.9034011 L37.0332034,12.9034011 L37.0332034,12.9036441 L37.0332034,12.9036441 Z M36.6466893,5.55671751 C36.6092768,4.63622599 36.5779379,3.38679661 36.6406158,2.63077401 L36.5908136,2.63077401 C36.385774,3.24905085 35.5046384,5.10582486 35.1171525,6.01902825 L33.8631073,8.74916384 L36.8182034,8.74916384 L36.6466893,5.55671751 L36.6466893,5.55671751 L36.6466893,5.55671751 Z" id="Shape"></path>
                        <path d="M23.0154463,13.2576045 C20.6358701,13.2576045 19.056774,12.5027966 17.9292994,11.8298588 L19.5348757,9.37788701 C20.5469548,9.9439322 21.3416045,10.5971921 23.1699548,10.5971921 C23.7578644,10.5971921 24.3243955,10.4443842 24.6460452,9.88732768 C25.1149153,9.07712994 24.5379379,8.64129944 23.2212147,7.8959661 L22.571113,7.47325424 C20.6193503,6.13952542 19.7751412,4.87284746 20.6939322,2.66162712 C21.2818418,1.24724294 22.8325141,0.175158192 25.3906497,0.175158192 C27.1548644,0.175158192 28.8087853,0.938225989 29.7725198,1.68380226 L27.926678,3.84862147 C26.9862655,3.08798305 26.206678,2.70316949 25.3146102,2.70316949 C24.6032881,2.70316949 24.0629944,2.97744633 23.8764181,3.34744068 C23.5253729,4.04297175 23.9898701,4.51718644 25.0155537,5.15392655 L25.7885819,5.64563277 C28.1581977,7.14018644 28.7227853,8.70737853 28.1288023,10.1725367 C27.1074915,12.6944746 25.1076271,13.2576045 23.0154463,13.2576045 L23.0154463,13.2576045 L23.0154463,13.2576045 Z" id="Shape"></path>
                        <path d="M41.3834915,2.37496045 L41.1614463,2.37496045 L41.1614463,1.02471186 L41.6738023,1.02471186 C41.9998249,1.02471186 42.1662373,1.13889266 42.1662373,1.41292655 C42.1662373,1.65732203 42.0158588,1.75838418 41.8137345,1.78122034 L42.1919887,2.37496045 L41.9410339,2.37496045 L41.5921751,1.79774011 L41.3834915,1.79774011 L41.3834915,2.37496045 L41.3834915,2.37496045 L41.3834915,2.37496045 Z M41.6310452,1.60849153 C41.7977006,1.60849153 41.9441921,1.59221469 41.9441921,1.39640678 C41.9441921,1.23339548 41.784339,1.21371751 41.6509661,1.21371751 L41.3832486,1.21371751 L41.3832486,1.60849153 L41.6310452,1.60849153 L41.6310452,1.60849153 L41.6310452,1.60849153 Z M41.6244859,2.89679096 C40.9236102,2.89679096 40.4246158,2.37180226 40.4246158,1.677 C40.4246158,0.943084746 40.9787571,0.45720904 41.6244859,0.45720904 C42.2641412,0.45720904 42.8182825,0.943084746 42.8182825,1.677 C42.8182825,2.41067232 42.2641412,2.89679096 41.6244859,2.89679096 L41.6244859,2.89679096 L41.6244859,2.89679096 Z M41.6244859,0.669293785 C41.096339,0.669293785 40.6855311,1.08325989 40.6855311,1.677 C40.6855311,2.23138418 41.0443503,2.68470621 41.6244859,2.68470621 C42.1463164,2.68470621 42.5573672,2.27389831 42.5573672,1.677 C42.5573672,1.08325989 42.1463164,0.669293785 41.6244859,0.669293785 L41.6244859,0.669293785 L41.6244859,0.669293785 Z" id="Shape"></path>
                    </g>
                </g>
            </g>
        </g>
    </g>
</svg>