<?xml version="1.0" encoding="UTF-8"?>
<svg width="70px" height="70px" viewBox="0 0 70 70" version="1.1" xmlns="http://www.w3.org/2000/svg" xmlns:xlink="http://www.w3.org/1999/xlink">
    <!-- Generator: Sketch 46.2 (44496) - http://www.bohemiancoding.com/sketch -->
    <title>Wallet</title>
    <desc>Created with Sketch.</desc>
    <defs></defs>
    <g id="Icons" stroke="none" stroke-width="1" fill="none" fill-rule="evenodd">
        <g transform="translate(-1180.000000, -726.000000)" id="Icon-Set">
            <g transform="translate(69.000000, 66.000000)">
                <g id="Wallet" transform="translate(1111.000000, 660.000000)">
                    <circle id="Oval-1-Copy-59" fill="#27A260" cx="35" cy="35" r="35"></circle>
                    <path d="M39.3536871,48.8476355 C39.3543481,48.5654627 39.3518919,48.270523 39.3518919,48.0609846 C39.3518919,44.2085743 38.4445593,40.5333522 36.7782031,37.2856634 C36.5038816,40.8673247 35.3959126,44.3353668 33.5291357,47.4091893 C32.8933147,48.4559292 31.7814162,49.0810306 30.5560158,49.0810306 C30.2138286,49.0810306 29.8766858,49.0255408 29.5496321,48.926752 C29.2716791,48.8427483 29.0050653,48.7250061 28.7557492,48.5761572 C27.7808938,47.9844759 27.2049766,46.9839774 27.1049268,45.926728 C27.0434054,45.2875538 27.1615523,44.6438971 27.4460631,44.0682391 C27.4908333,43.9791191 27.5374952,43.8893685 27.5904628,43.8021402 C29.1000384,41.3153971 29.8983353,38.4530467 29.8983353,35.5255378 C29.8983353,34.9115765 29.8552466,34.3020291 29.7848333,33.6962652 C29.5235687,31.4213923 28.8108187,29.2125188 27.5995009,27.26512 C27.0229532,26.3381876 26.9832275,25.180468 27.3136442,24.2997772 C27.4775914,23.8604827 27.7130028,23.4394746 28.1039539,23.0264537 C28.4984782,22.6100698 28.9350402,22.3857984 29.3461694,22.2218512 C29.7469994,22.061267 30.0324357,21.9935862 30.5894359,21.9935862 C31.2611991,21.9935862 31.9235038,22.2033546 32.4748289,22.5640385 C32.7212203,22.7247003 32.9455743,22.9161622 33.1425837,23.133488 C36.8394789,25.5698297 39.9972743,28.7683306 42.2260277,32.3189347 C41.8790938,29.1786623 41.0178941,26.1360934 39.6333095,23.2170949 C38.7700643,21.4058985 39.5431385,19.2193049 41.3595897,18.3547986 C41.8531129,18.1193872 42.3806866,18 42.9229736,18 C44.3253529,18 45.6186443,18.8170037 46.2212554,20.0817094 C47.3481367,22.4518431 48.2117769,24.938377 48.7966982,27.496748 L48.7962778,27.4965378 C49.3869082,30.096993 49.6973569,32.8235615 49.6973569,35.5387797 C49.697689,38.2450704 49.3946668,40.9428708 48.7939657,43.5816522 C48.6346426,44.2878864 48.4648101,44.9415734 48.2621882,45.6372981 C47.6215329,47.9472725 46.886713,49.7414436 46.1586192,51.1076705 C45.522588,52.2639188 44.2900412,52.9999998 42.9599668,52.9999998 C42.4213025,53.0001807 41.8893736,52.8802669 41.4028886,52.6489846 C40.3223082,52.1306591 39.6469718,51.1936377 39.4115604,50.1607702 C39.3485942,49.8835573 39.3173556,49.6000833 39.3184467,49.3158114 C39.3184467,49.1537719 39.3319735,48.9962025 39.3536871,48.8476355 Z M29.7522103,33.622286 C29.8228338,34.22805 29.8657123,34.8375973 29.8657123,35.4515587 C29.8657123,38.3790676 29.0676256,41.2414179 27.5578398,43.728161 C27.4996175,43.8242173 27.4527454,43.9116558 27.4136503,43.99426 C27.1202268,44.5863617 27.0170242,45.2083102 27.0718834,45.8449719 L27.0729344,45.8596851 C26.706155,40.1488568 23.5838011,35.2081601 18.7421033,32.6182143 C17.1375224,31.7577016 16.5315483,29.7554436 17.3901693,28.1500219 C17.9641416,27.0752164 19.0845051,26.4050033 20.302965,26.4075572 C20.8425195,26.4075572 21.3791314,26.5416576 21.8579413,26.7974573 C24.9947982,28.4772858 27.7642452,30.8793228 29.7522103,33.6218656 L29.7522103,33.622286 Z" id="Combined-Shape" fill="#FFFFFF"></path>
                </g>
            </g>
        </g>
    </g>
</svg>