<?xml version="1.0" encoding="UTF-8"?>
<svg width="70px" height="70px" viewBox="0 0 70 70" version="1.1" xmlns="http://www.w3.org/2000/svg" xmlns:xlink="http://www.w3.org/1999/xlink">
    <!-- Generator: Sketch 46.2 (44496) - http://www.bohemiancoding.com/sketch -->
    <title>WeChat</title>
    <desc>Created with Sketch.</desc>
    <defs></defs>
    <g id="Icons" stroke="none" stroke-width="1" fill="none" fill-rule="evenodd">
        <g transform="translate(-839.000000, -835.000000)" id="Icon-Set">
            <g transform="translate(69.000000, 66.000000)">
                <g id="WeChat" transform="translate(770.000000, 769.000000)">
                    <circle id="Oval-1-Copy-59" fill="#2DC100" cx="35" cy="35" r="35"></circle>
                    <g id="Group-79" transform="translate(15.000000, 18.000000)" fill="#FFFFFF">
                        <path d="M28.1553319,11.5964602 C24.405531,11.7923673 21.1448009,12.9290929 18.4975,15.4972566 C15.8227876,18.0919027 14.6018142,21.2713274 14.9355531,25.2126991 C13.4698894,25.0311947 12.1349336,24.8314159 10.7923894,24.7183628 C10.3287168,24.6793363 9.77847345,24.7347788 9.38573009,24.9563938 C8.08205752,25.6920133 6.83227876,26.5225664 5.35097345,27.4485177 C5.62276549,26.2191814 5.79869469,25.1426991 6.11013274,24.1072566 C6.33918142,23.3462389 6.23309735,22.922677 5.53201327,22.4271018 C1.03064159,19.2490708 -0.866792035,14.4929425 0.553185841,9.59634956 C1.86692478,5.0664823 5.09311947,2.31929204 9.47679204,0.887234513 C15.4600885,-1.06719027 22.1842699,0.926415929 25.8225664,5.67681416 C27.136615,7.39274336 27.9423894,9.31867257 28.1553319,11.5964602 L28.1553319,11.5964602 Z M10.8973894,10.070708 C10.9319248,9.17511062 10.155885,8.36825221 9.23411504,8.34130531 C8.29035398,8.31358407 7.51415929,9.03480088 7.48659292,9.96477876 C7.45871681,10.9073009 8.17962389,11.6625885 9.13019912,11.6867478 C10.0725664,11.7105973 10.8625442,10.9884513 10.8973894,10.070708 L10.8973894,10.070708 Z M19.9015265,8.34068584 C18.9763496,8.35772124 18.1945796,9.14568584 18.2109956,10.0448451 C18.2278761,10.9768363 18.9947788,11.7059513 19.9461283,11.6944912 C20.8999558,11.683031 21.6233407,10.9461726 21.6143584,9.99451327 C21.6064602,9.06035398 20.8429646,8.32349558 19.9015265,8.34068584 L19.9015265,8.34068584 Z" id="Shape"></path>
                        <path d="M36.5798009,34.9736726 C35.3924336,34.4449558 34.3032522,33.6517257 33.1436062,33.5306195 C31.9884513,33.4099779 30.7741372,34.0763717 29.5655531,34.1999558 C25.8842035,34.5765929 22.5861504,33.5505973 19.8666814,31.035708 C14.6945796,26.2518584 15.4336062,18.9167257 21.4175221,14.9964159 C26.7358186,11.5122124 34.5353982,12.6737168 38.2850442,17.508208 C41.5572345,21.726792 41.1726991,27.326792 37.1780531,30.8707743 C36.0221239,31.8964602 35.6061504,32.7404867 36.3478097,34.0926327 C36.4847124,34.3422788 36.500354,34.6583628 36.5798009,34.9736726 L36.5798009,34.9736726 Z M23.0639159,21.8875442 C23.819823,21.8883186 24.4422345,21.2967257 24.470885,20.5501106 C24.5010841,19.7596681 23.865354,19.0966814 23.0738274,19.0934292 C22.2901991,19.0898673 21.6337168,19.762146 21.6609735,20.5408186 C21.6866814,21.2848009 22.3134292,21.886615 23.0639159,21.8875442 L23.0639159,21.8875442 Z M31.7769027,19.0965265 C31.0434513,19.0914159 30.4202655,19.6918363 30.3903761,20.4328761 C30.3586283,21.2253319 30.9745354,21.8760841 31.7587832,21.8780973 C32.517323,21.8805752 33.1166593,21.3069469 33.1442257,20.5521239 C33.1736504,19.7578097 32.5574336,19.1019469 31.7769027,19.0965265 L31.7769027,19.0965265 Z" id="Shape"></path>
                    </g>
                </g>
            </g>
        </g>
    </g>
</svg>