<?xml version="1.0" encoding="UTF-8"?>
<svg width="70px" height="70px" viewBox="0 0 70 70" version="1.1" xmlns="http://www.w3.org/2000/svg" xmlns:xlink="http://www.w3.org/1999/xlink">
    <!-- Generator: Sketch 46.2 (44496) - http://www.bohemiancoding.com/sketch -->
    <title>WhatsApp</title>
    <desc>Created with Sketch.</desc>
    <defs></defs>
    <g id="Icons" stroke="none" stroke-width="1" fill="none" fill-rule="evenodd">
        <g transform="translate(-509.000000, -726.000000)" id="Icon-Set">
            <g transform="translate(69.000000, 66.000000)">
                <g id="WhatsApp" transform="translate(440.000000, 660.000000)">
                    <circle id="Oval-1-Copy-58" fill="#3ACE01" cx="35" cy="35" r="35"></circle>
                    <path d="M47.7668404,23.0862757 C44.4914089,19.808104 40.1354426,18.0018425 35.4944015,18 C25.9319689,18 18.1492934,25.7796991 18.1454666,35.3422261 C18.1442382,38.3989145 18.9430998,41.3826569 20.4612627,44.0126778 L18,53 L27.1968999,50.5882971 C29.7309195,51.9699226 32.5838412,52.6980588 35.4875038,52.6992871 L35.4945905,52.6992871 C35.4951574,52.6992871 35.4940235,52.6992871 35.4946377,52.6992871 C45.0561254,52.6992871 52.8395096,44.9186432 52.8433836,35.3560216 C52.8452262,30.7219255 51.0423664,26.3644474 47.7668404,23.0862757 L47.7668404,23.0862757 Z M35.4946377,49.7701597 L35.4887321,49.7701597 C32.9012787,49.7691675 30.3634795,49.0742917 28.1495431,47.7608876 L27.6229531,47.4485052 L22.1653809,48.8796906 L23.6221257,43.5603093 L23.279176,43.0149158 C21.8357543,40.719813 21.0734129,38.0670201 21.0745468,35.34336 C21.077665,27.3954224 27.5463694,20.9291747 35.5002126,20.9291747 C39.3516521,20.9306393 42.9721593,22.4320776 45.6946383,25.1567297 C48.4171172,27.8813819 49.915579,31.503212 49.9141617,35.354935 C49.9110435,43.303534 43.4423864,49.7701597 35.4946377,49.7701597 L35.4946377,49.7701597 Z M40.4420138,37.5640997 C40.0446854,37.4194362 39.7557365,37.3471517 39.4666459,37.7810476 C39.1777442,38.2148489 38.3469925,39.1909727 38.0940441,39.4801579 C37.8411901,39.7693903 37.5883362,39.8055797 37.1548656,39.5886318 C36.7213477,39.3717312 35.3246039,38.9141185 33.6688642,37.4377672 C32.3802636,36.288822 31.5102042,34.8695896 31.2573503,34.4356938 C31.0044964,34.0018452 31.230468,33.7673695 31.4474632,33.551272 C31.6424423,33.3571433 31.8809338,33.045139 32.0976927,32.7920961 C32.3144044,32.5391004 32.3866889,32.3582475 32.5311633,32.0690624 C32.675685,31.77983 32.6034005,31.5267399 32.4950211,31.3098392 C32.3866889,31.0929385 31.5197004,28.9599324 31.158467,28.0922825 C30.8066353,27.2472628 30.4491815,27.3615951 30.1830991,27.3483194 C29.9305286,27.3357523 29.641249,27.3331066 29.3523001,27.3331066 C29.0633512,27.3331066 28.5936911,27.4415333 28.1963627,27.8753818 C27.7990343,28.3092304 26.6791919,29.3576387 26.6791919,31.4905976 C26.6791919,33.6235565 28.2324577,35.6842309 28.4492166,35.9734161 C28.6659755,36.2626484 31.5059049,40.6398276 35.8544065,42.5169089 C36.8886887,42.9633718 37.6961015,43.2300212 38.3256851,43.429772 C39.3641248,43.7594932 40.3091143,43.7130043 41.0561011,43.6014595 C41.8889316,43.477064 43.6207353,42.5531456 43.9820632,41.5408795 C44.3432966,40.5285662 44.3432966,39.6609635 44.2349171,39.4802051 C44.1265376,39.2994467 43.8375887,39.1909727 43.4041181,38.9740248 C42.970553,38.7571242 40.8393894,37.7087158 40.4420138,37.5640997 Z" id="Oval-1-Copy-58" fill="#FFFFFF"></path>
                </g>
            </g>
        </g>
    </g>
</svg>