<?xml version="1.0" encoding="UTF-8"?>
<svg width="70px" height="70px" viewBox="0 0 70 70" version="1.1" xmlns="http://www.w3.org/2000/svg" xmlns:xlink="http://www.w3.org/1999/xlink">
    <!-- Generator: Sketch 46.2 (44496) - http://www.bohemiancoding.com/sketch -->
    <title>Wordpress</title>
    <desc>Created with Sketch.</desc>
    <defs></defs>
    <g id="Icons" stroke="none" stroke-width="1" fill="none" fill-rule="evenodd">
        <g transform="translate(-289.000000, -617.000000)" id="Icon-Set">
            <g transform="translate(69.000000, 66.000000)">
                <g id="Wordpress" transform="translate(220.000000, 551.000000)">
                    <circle id="Oval-1-Copy-51" fill="#21759B" cx="35" cy="35" r="35"></circle>
                    <g id="Group-28" transform="translate(18.000000, 18.000000)" fill="#FFFFFF">
                        <path d="M26.0842778,11.6320116 C23.1551667,9.78132272 23.8909444,6.09979884 26.1441667,4.79762084 C27.1078333,4.24054559 28.0621667,4.0949508 28.9398889,4.26740666 C25.8727222,1.61555716 21.8858333,0 17.5158889,0 C10.7671111,0 4.92016667,3.8298437 2,9.43251809 L11.2668333,9.43251809 L11.2668333,10.7136744 L10.8052222,10.7136744 C10.5516667,10.7646715 10.3327222,10.8355224 10.1896111,10.9542562 C9.97222222,11.1348871 9.86605556,12.0512779 9.86605556,12.0512779 L13.4772778,27.355081 L16.7665,19.6735933 L15.2416667,14.6108654 C14.6575556,13.0509768 14.1741667,11.7122055 13.7891667,11.3143502 C13.4644444,10.9818958 13.1276667,10.800097 12.7838889,10.7136744 L12.3654444,10.7136744 L12.3654444,9.43251809 L22.9000556,9.43251809 L22.9000556,10.7136744 L21.0275556,10.7136744 C20.7576667,10.7701216 20.5235556,10.8612156 20.3734444,11.0278321 C20.1471111,11.279314 20.0343333,11.5860753 20.0343333,11.9453907 C20.0343333,12.2330767 20.1762778,13.1876179 20.1762778,13.1876179 L24.2456111,27.290848 C24.2456111,27.290848 28.4347222,19.1850333 28.4946111,17.4231027 C28.5548889,15.6642865 27.9062222,12.7847019 26.0842778,11.6320116" id="Fill-136"></path>
                        <path d="M31.5001111,13.6112388 C29.81,19.1306049 25.6278889,29.0571331 24,32.8562229 C30.0833889,30.1113329 34.3265556,24.0029696 34.3265556,16.8894573 C34.3265556,13.6400463 33.4258889,10.6078596 31.8862778,8 C32.2121667,9.58558177 32.1452778,11.5028394 31.5001111,13.6112388" id="Fill-137"></path>
                        <path d="M13,34.0138177 C14.3222222,34.3322576 15.6946111,34.5206744 17.116,34.5206744 C18.5836667,34.5206744 20.0031111,34.3198003 21.3657778,33.9787815 L17.4679444,23 L13,34.0138177 Z" id="Fill-138"></path>
                        <path d="M2.2855,10 L1.37005556,10 C0.488444444,12.0924385 0,14.3912012 0,16.8044153 C0,24.0666368 4.41388889,30.2960695 10.7018333,32.9518119 L4.03238889,10.8918654 C4.03238889,10.8918654 3.18655556,10.1775166 2.2855,10" id="Fill-139"></path>
                    </g>
                </g>
            </g>
        </g>
    </g>
</svg>