<?xml version="1.0" encoding="UTF-8"?>
<svg width="70px" height="70px" viewBox="0 0 70 70" version="1.1" xmlns="http://www.w3.org/2000/svg" xmlns:xlink="http://www.w3.org/1999/xlink">
    <!-- Generator: Sketch 46.2 (44496) - http://www.bohemiancoding.com/sketch -->
    <title>XBox</title>
    <desc>Created with Sketch.</desc>
    <defs></defs>
    <g id="Icons" stroke="none" stroke-width="1" fill="none" fill-rule="evenodd">
        <g transform="translate(-949.000000, -835.000000)" id="Icon-Set">
            <g transform="translate(69.000000, 66.000000)">
                <g id="XBox" transform="translate(880.000000, 769.000000)">
                    <circle id="Oval-1-Copy-59" fill="#0F7C10" cx="35" cy="35" r="35"></circle>
                    <path d="M23.2158203,23.03125 L23.2089844,23.0449219 C23.1884766,23.0585937 24.7675781,21.7119141 30.6943359,27.6113281 C30.7148438,27.625 30.7285156,27.6455078 30.7285156,27.6660156 C30.7285156,27.6865234 30.7148438,27.7070312 30.7011719,27.7207031 C27.1738281,31.9111328 20.3583984,41.9121094 21.6914063,46.0341797 C21.7050781,46.0683594 21.7050781,46.1025391 21.6708984,46.1230469 C21.6367188,46.1435547 21.5957031,46.1230469 21.5751953,46.0957031 C19.3330078,43.1494141 18,39.4785156 18,35.4931641 C18,30.6191406 19.9892578,26.2167969 23.2021484,23.0449219 C23.1953125,23.0449219 23.2021484,23.0380859 23.2158203,23.03125 Z M47.7705078,23.03125 C47.7841797,23.0380859 47.7841797,23.0449219 47.7841797,23.0449219 C50.9970703,26.2167969 52.9863281,30.6191406 52.9863281,35.4931641 C52.9863281,39.4785156 51.6533203,43.1494141 49.4111328,46.0957031 C49.390625,46.1230469 49.3496094,46.1435547 49.3154297,46.1230469 C49.2880859,46.1025391 49.28125,46.0683594 49.2949219,46.0341797 C50.6279297,41.9121094 43.8125,31.9042969 40.2919922,27.7138672 C40.2783203,27.7001953 40.2646484,27.6796875 40.2646484,27.6660156 C40.2646484,27.6386719 40.2783203,27.625 40.2988281,27.6044922 C46.2255859,21.7050781 47.7978516,23.0654297 47.7773438,23.0449219 L47.7705078,23.03125 Z M35.4931641,18 C39.0205078,18 41.9257812,18.9707031 44.6054687,20.5634766 C44.6396484,20.5771484 44.6464844,20.6181641 44.6328125,20.6523438 C44.6191406,20.6865234 44.5849609,20.6933594 44.5507812,20.6796875 C41.1601562,19.9482422 36.0126953,22.8740234 35.5273437,23.1679687 C35.5136719,23.1748047 35.5068359,23.1816406 35.4931641,23.1816406 C35.4794922,23.1816406 35.4658203,23.1748047 35.4521484,23.1679687 C34.1601562,22.4296875 29.4023437,19.9345703 26.4013672,20.7001953 C26.3671875,20.7070312 26.3330078,20.7001953 26.3193359,20.6660156 C26.3056641,20.6318359 26.3193359,20.5976562 26.3466797,20.5771484 C29.0263672,18.9638672 31.9726562,18 35.4931641,18 Z M35.4931641,32.0341797 C35.5136719,32.0341797 35.5341797,32.0478516 35.5478516,32.0615234 C40.7841797,36.0400391 49.7460938,45.8837891 47.0117188,48.6728516 L47.0185547,48.6660156 L47.0185547,48.6728516 L47.0117188,48.6728516 C43.9287109,51.3662109 39.9023438,53 35.4931641,53 C31.0839844,53 27.0507813,51.3662109 23.9746094,48.6728516 C23.9746094,48.6728516 23.9746094,48.6728516 23.9677734,48.6660156 L23.9746094,48.6728516 C21.2470703,45.890625 30.2021484,36.046875 35.4384766,32.0615234 C35.4453125,32.0478516 35.4726563,32.0341797 35.4931641,32.0341797 Z" id="Combined-Shape" fill="#FFFFFF"></path>
                </g>
            </g>
        </g>
    </g>
</svg>