<?xml version="1.0" encoding="UTF-8"?>
<svg width="70px" height="70px" viewBox="0 0 70 70" version="1.1" xmlns="http://www.w3.org/2000/svg" xmlns:xlink="http://www.w3.org/1999/xlink">
    <!-- Generator: Sketch 46.2 (44496) - http://www.bohemiancoding.com/sketch -->
    <title>Yandex</title>
    <desc>Created with Sketch.</desc>
    <defs></defs>
    <g id="Icons" stroke="none" stroke-width="1" fill="none" fill-rule="evenodd">
        <g transform="translate(-289.000000, -399.000000)" id="Icon-Set">
            <g transform="translate(69.000000, 66.000000)">
                <g id="Yandex" transform="translate(220.000000, 333.000000)">
                    <circle id="Oval-1-Copy-31" fill="#FFCC00" cx="35" cy="35" r="35"></circle>
                    <path d="M35.5,18 C25.8349444,18 18,25.8430434 18,35.5180897 C18,44.823699 25.2531667,52.4129247 34.4060556,52.9809001 L34.4060556,40.9926874 C32.343,35.6049016 26.8048333,21.7835181 26.7340556,21.6289696 C26.6442222,21.4362706 26.8009444,21.1256165 27.0770556,21.1256165 L29.9038889,21.1256165 C30.2787778,21.1256165 30.3767778,21.3981201 30.4331667,21.6176802 C30.5354444,22.0159247 34.0222222,31.9938394 34.3858333,33.1453618 L35.8834444,37.3325745 C36.0565,36.6606585 36.7806111,33.8620463 37.0018889,33.0678929 C37.3153333,31.9475137 41.6199444,21.7885789 41.6568889,21.6009407 C41.6934444,21.4144703 41.8536667,21.2852258 42.1099444,21.2852258 L45.0056111,21.2852258 C45.3583333,21.2852258 45.3828333,21.5374863 45.3,21.7765109 C45.2315556,21.9723242 39.4071667,36.0054819 37.6875,40.9926874 L37.6875,52.8847453 C46.3177222,51.8052417 53,44.4499797 53,35.5180897 C53,25.8430434 45.1650556,18 35.5,18" id="Fill-70" fill="#FFFFFF"></path>
                </g>
            </g>
        </g>
    </g>
</svg>