<?xml version="1.0" encoding="UTF-8"?>
<svg width="70px" height="70px" viewBox="0 0 70 70" version="1.1" xmlns="http://www.w3.org/2000/svg" xmlns:xlink="http://www.w3.org/1999/xlink">
    <!-- Generator: Sketch 46.2 (44496) - http://www.bohemiancoding.com/sketch -->
    <title>Yelp</title>
    <desc>Created with Sketch.</desc>
    <defs></defs>
    <g id="Icons" stroke="none" stroke-width="1" fill="none" fill-rule="evenodd">
        <g transform="translate(-179.000000, -508.000000)" id="Icon-Set">
            <g transform="translate(69.000000, 66.000000)">
                <g id="Yelp" transform="translate(110.000000, 442.000000)">
                    <circle id="Oval-1-Copy-40" fill="#AF0606" cx="35" cy="35" r="35"></circle>
                    <g id="Group-21" transform="translate(21.000000, 17.000000)" fill="#FFFFFF">
                        <path d="M24.2442634,9.65469217 C24.2442634,9.65469217 23.8989301,9.06219145 23.1822079,9.00340852 C22.3919857,8.9360612 21.9050968,9.88904528 21.9050968,9.88904528 L17.1921523,17.2805113 C17.1921523,17.2805113 16.7752634,18.0158818 17.1695968,18.6811799 C17.5977634,19.404093 18.7776523,19.1930974 18.7776523,19.1930974 L27.1189301,16.7639223 C27.1189301,16.7639223 28.2556523,16.3030019 28.4182079,15.6894794 C28.5772634,15.0747891 28.2303745,14.3335793 28.2303745,14.3335793 L24.2442634,9.65469217 Z" id="Fill-152"></path>
                        <path d="M13.4659801,15.7306631 C14.4483135,15.4900814 14.6042579,14.0680018 14.6042579,14.0680018 L14.537369,2.23355895 C14.537369,2.23355895 14.3892024,0.774496723 13.7312024,0.378587895 C12.6987024,-0.245834681 12.3930357,0.0803910789 12.0970912,0.123213076 L5.17175791,2.6882507 C5.17175791,2.6882507 4.4931468,2.91170367 4.14042458,3.47500758 C3.63603569,4.27500034 4.65259125,5.44481944 4.65259125,5.44481944 L11.8513135,15.22186 C11.8513135,15.22186 12.5614246,15.9529482 13.4659801,15.7306631" id="Fill-153"></path>
                        <path d="M0.00890866501,22.1241201 C0.00890866501,22.1241201 -0.0634246683,23.1549624 0.204130887,23.6232793 C0.584075332,24.2881882 1.83318644,23.8253213 1.83318644,23.8253213 L10.5229087,21.911178 C10.8604642,21.6846107 11.452742,21.6643676 11.4854087,20.4571766 C11.5102976,19.545068 10.3856309,18.9965572 10.3856309,18.9965572 L2.94190867,15.2492432 C2.94190867,15.2492432 1.83863089,14.7957193 1.302742,15.1122128 C0.892853109,15.3539624 0.529241998,15.7899682 0.493853109,16.1769233 L0.00890866501,22.1241201 Z" id="Fill-154"></path>
                        <path d="M14.0290455,24.1041307 C13.2827677,23.7222364 12.3898788,24.5136647 12.3898788,24.5136647 L6.57132326,30.8968673 C6.57132326,30.8968673 5.8456566,31.872041 6.02998993,32.4719383 C6.20382326,33.0332957 6.49198993,33.3131958 6.8991566,33.510177 L12.7429899,35.3480193 C12.7429899,35.3480193 13.4511566,35.4943927 13.9878233,35.3394549 C14.7496566,35.1202841 14.6088788,33.9313898 14.6088788,33.9313898 L14.741101,25.2887429 C14.741101,25.2887429 14.7115455,24.4560497 14.0290455,24.1041307" id="Fill-155"></path>
                        <path d="M27.0147913,24.7171261 L18.6548469,22.0419191 C18.6540691,22.0419191 17.835458,21.8258627 17.2898469,22.3747628 C16.6964025,22.9699886 17.1980691,24.0553316 17.1980691,24.0553316 L21.6648469,31.4876731 C21.6648469,31.4876731 22.3982913,32.467129 23.0341247,32.467129 C23.6719025,32.467129 24.3026802,31.9450899 24.3026802,31.9450899 L27.8337913,26.9146731 C27.8337913,26.9146731 28.1896247,26.2805182 28.1977913,25.7246109 C28.2106247,24.9343504 27.0147913,24.7171261 27.0147913,24.7171261" id="Fill-156"></path>
                    </g>
                </g>
            </g>
        </g>
    </g>
</svg>