<?xml version="1.0" encoding="UTF-8"?>
<svg width="70px" height="70px" viewBox="0 0 70 70" version="1.1" xmlns="http://www.w3.org/2000/svg" xmlns:xlink="http://www.w3.org/1999/xlink">
    <!-- Generator: Sketch 46.2 (44496) - http://www.bohemiancoding.com/sketch -->
    <title>Yo</title>
    <desc>Created with Sketch.</desc>
    <defs></defs>
    <g id="Icons" stroke="none" stroke-width="1" fill="none" fill-rule="evenodd">
        <g transform="translate(-1301.000000, -726.000000)" id="Icon-Set">
            <g transform="translate(69.000000, 66.000000)">
                <g id="Yo" transform="translate(1232.000000, 660.000000)">
                    <circle id="Oval-1-Copy-59" fill="#9B5AB6" cx="35" cy="35" r="35"></circle>
                    <path d="M15,23 C16.875456,23.0054048 18.750858,22.9945952 20.6209632,23.0054048 C20.696576,22.9891905 20.7235999,23.070262 20.7560826,23.118905 C22.4261032,25.9996487 24.1070414,28.8695828 25.7717113,31.7557312 C25.8473241,31.6962787 25.8852115,31.6152071 25.9283957,31.5341355 C27.5012385,28.8371541 29.0686224,26.134768 30.6360064,23.4377866 C30.7332923,23.2972625 30.78734,23.1297145 30.906245,23.0054048 C32.4466052,23 33.9923701,23.0054048 35.5381349,23 C35.8839863,23.0162143 36.2352965,22.9783809 36.581256,23.0216191 C33.873411,27.7778188 31.1386503,32.5178041 28.4308593,37.2740038 C28.4145909,39.808788 28.4308593,42.3436803 28.4254005,44.8731137 C28.4145909,45.4460196 28.4470196,46.0243302 28.4091862,46.5972361 C26.6580399,46.5917773 24.9122985,46.5972361 23.1611522,46.5917773 C23.1449379,43.6407716 23.1611522,40.6897659 23.1556934,37.7387602 C23.1449379,37.5712122 23.1827172,37.3928547 23.1286695,37.2307116 C20.4641168,32.5772026 17.799564,27.9290983 15.140416,23.2755893 C15.0864764,23.189167 15.0324286,23.0972859 15,23 Z M44.8559625,28.1399385 C45.936917,28.1021051 47.028681,28.1831767 48.0826116,28.4534153 C49.9364485,28.9182257 51.6119279,30.0099897 52.8388113,31.4692783 C53.9521944,32.7556141 54.6818386,34.3770458 54.9034343,36.0687396 C55.0060709,36.7606045 55.0223393,37.4739804 54.9736963,38.171196 C54.8980295,39.9547709 54.2710759,41.7059171 53.1847167,43.1219675 C52.1578099,44.4569462 50.7903485,45.5595739 49.2067502,46.1756639 C48.1636291,46.6026409 47.0340317,46.8026715 45.909839,46.8512604 C44.7694321,46.8945526 43.607406,46.8080222 42.5048325,46.4891947 C40.5537096,45.9649318 38.8241825,44.7326437 37.6081087,43.132777 C36.9541313,42.278823 36.4569462,41.3113687 36.1650885,40.2790572 C35.8245879,39.1602693 35.7381115,37.982029 35.8029688,36.8200029 C35.8948499,35.2364046 36.392089,33.6636159 37.2784716,32.3448514 C38.4404977,30.6261338 40.1484598,29.2533216 42.1320113,28.6209632 C43.0129351,28.3291055 43.9317464,28.1885815 44.8559625,28.1399385 Z M44.9586532,32.4691612 C43.9155321,32.544828 42.9048397,33.0258527 42.2022733,33.8095447 C41.4509559,34.6041003 41.0294377,35.67965 40.9159375,36.7606045 C40.8510802,37.5334869 40.8672405,38.3279884 41.0618123,39.0846566 C41.2402238,39.7764674 41.5590514,40.4412544 42.018457,40.9925412 C42.6616249,41.781638 43.5966505,42.3491391 44.6127477,42.4788536 C45.2397013,42.5869491 45.8828692,42.5544664 46.4990133,42.4193471 C47.455658,42.2031562 48.3150168,41.614036 48.8987322,40.8249392 C49.4229951,40.1385872 49.7364719,39.3008475 49.8391626,38.4468394 C49.9796326,37.3550754 49.8932103,36.2200732 49.4716381,35.1985712 C49.0716309,34.2419265 48.3528502,33.398782 47.4286341,32.9177573 C46.671966,32.5232089 45.8017976,32.4043039 44.9586532,32.4691612 Z" id="Combined-Shape" stroke="#FFFFFF" stroke-width="0.0938" fill="#FFFFFF"></path>
                </g>
            </g>
        </g>
    </g>
</svg>