<?xml version="1.0" encoding="UTF-8"?>
<svg width="70px" height="70px" viewBox="0 0 70 70" version="1.1" xmlns="http://www.w3.org/2000/svg" xmlns:xlink="http://www.w3.org/1999/xlink">
    <!-- Generator: Sketch 46.2 (44496) - http://www.bohemiancoding.com/sketch -->
    <title>Zerpply</title>
    <desc>Created with Sketch.</desc>
    <defs></defs>
    <g id="Icons" stroke="none" stroke-width="1" fill="none" fill-rule="evenodd">
        <g transform="translate(-509.000000, -508.000000)" id="Icon-Set">
            <g transform="translate(69.000000, 66.000000)">
                <g id="Zerpply" transform="translate(440.000000, 442.000000)">
                    <circle id="Oval-1-Copy-43" fill="#9DBC7A" cx="35" cy="35" r="35"></circle>
                    <path d="M22.3118889,39.9549547 C22.0478333,40.2554873 22.0046667,40.7459938 22.0046667,40.7459938 L22.0046667,43.6123426 C22.0046667,43.6466002 22.0015556,43.8575958 22,44.0837738 C22.0925556,44.5645481 22.3142222,44.6614815 22.4413889,44.6774424 L23.5590556,44.6774424 C26.3353333,44.6774424 28.7021111,44.7502398 31.2672222,46.0216638 C33.2377222,46.9976161 34.866,48.560619 36.7855556,49.6479084 C38.6055556,50.6783614 40.6833889,51.7598115 42.8148889,52.002729 C47.1055,52.491289 48.8298333,47.4947405 48.1158333,44.2546725 C46.2044444,45.7386494 43.5382222,45.7004989 41.0948333,45.0558332 C38.7949444,44.3165698 35.1358889,42.0220893 35.1358889,42.0220893 L35.1358889,42.0232572 C33.4951667,41.0352369 31.5674444,40.2192832 29.6323333,40.3037594 C29.6323333,39.4613339 29.6576111,39.429412 30.1888333,38.8349649 C30.9199444,38.0197897 31.6506667,37.2034468 32.3817778,36.3874931 C34.6812778,33.8193411 36.9815556,31.252357 39.2810556,28.6845944 C41.2383333,26.4995046 43.1952222,24.3148042 45.1521111,22.1293252 C45.3395556,21.9206653 46.0298333,21.3834439 46.0644444,21.0949793 C46.1834444,20.1026769 46.3024444,19.1103744 46.4218333,18.1180719 C46.5050556,17.430195 45.7638333,17.5952543 45.7638333,17.5952543 L45.7626667,17.5917507 C42.5885556,18.2134482 39.3273333,18.5377275 36.0921667,18.3948578 C34.2923889,18.3158317 32.3981111,18.1503831 30.7083889,17.5029923 C30.6473333,17.4796349 30.2895556,17.3036754 29.9539444,17.1265481 C29.4674444,16.8836306 29.1407778,17.0405148 28.9681111,17.1814381 C28.8316111,17.3453295 28.6873333,17.5029923 28.5586111,17.6715553 C27.7081111,18.7895987 26.9171111,20.1034554 26.7728333,21.5068491 C26.7401667,21.8198389 26.7001111,22.4800763 26.8786111,22.8775423 L26.8774444,22.8779316 C26.8774444,22.8779316 26.8968889,22.9262036 26.9505556,23.0032832 C26.9598889,23.0153512 26.9668889,23.0289764 26.9766111,23.0398766 C27.3814444,23.5786552 29.2461667,25.2000517 36.5277222,23.793933 C31.7895,29.1809402 27.0508889,34.5671689 22.3126667,39.9537868 C22.3118889,39.9541761 22.3118889,39.9541761 22.3118889,39.9549547" id="Fill-92" fill="#FFFFFF"></path>
                </g>
            </g>
        </g>
    </g>
</svg>